<svg width="40" height="40" viewBox="0 0 40 40" fill="none" xmlns="http://www.w3.org/2000/svg">
<g clip-path="url(#clip0_460_2010)">
<path fill-rule="evenodd" clip-rule="evenodd" d="M31.6406 0H3.51562C2.86844 0 2.34375 0.524687 2.34375 1.17188V7.1875H1.17188C0.524687 7.1875 0 7.71219 0 8.35938C0 9.00656 0.524687 9.53125 1.17188 9.53125H2.34375V18.9062H1.17188C0.524687 18.9062 0 19.4309 0 20.0781C0 20.7253 0.524687 21.25 1.17188 21.25H2.34375V30.625H1.17188C0.524687 30.625 0 31.1497 0 31.7969C0 32.4441 0.524687 32.9688 1.17188 32.9688H2.34375V38.8281C2.34375 39.4753 2.86844 40 3.51562 40H26.9531C27.2684 40 27.5705 39.868 27.782 39.6566L32.4692 34.9692C32.689 34.7495 32.8125 34.4514 32.8125 34.1406V1.17188C32.8125 0.524687 32.2878 0 31.6406 0ZM30.4688 26.624L28.125 28.9677V25.2511L30.4688 22.9073V26.624ZM25.7812 37.6562H4.6875V32.9688H5.85938C6.50656 32.9688 7.03125 32.4441 7.03125 31.7969C7.03125 31.1497 6.50656 30.625 5.85938 30.625H4.6875V21.25H5.85938C6.50656 21.25 7.03125 20.7253 7.03125 20.0781C7.03125 19.4309 6.50656 18.9062 5.85938 18.9062H4.6875V9.53125H5.85938C6.50656 9.53125 7.03125 9.00656 7.03125 8.35938C7.03125 7.71219 6.50656 7.1875 5.85938 7.1875H4.6875V2.34375H30.4688V19.5927L26.1245 23.937C25.9048 24.1568 25.7812 24.4548 25.7812 24.7656V37.6562ZM30.4688 33.6552L28.125 35.999V32.2823L30.4688 29.9385V33.6552ZM17.5781 9.53125C15.6396 9.53125 14.0625 11.1084 14.0625 13.0469C14.0625 14.9854 15.6396 16.5625 17.5781 16.5625C19.5166 16.5625 21.0938 14.9854 21.0938 13.0469C21.0938 11.1084 19.5166 9.53125 17.5781 9.53125ZM17.5781 14.2188C16.932 14.2188 16.4062 13.693 16.4062 13.0469C16.4062 12.4007 16.932 11.875 17.5781 11.875C18.2243 11.875 18.75 12.4007 18.75 13.0469C18.75 13.693 18.2243 14.2188 17.5781 14.2188ZM9.375 13.0469C9.375 8.52367 13.0549 4.84375 17.5781 4.84375C22.1013 4.84375 25.7812 8.52367 25.7812 13.0469C25.7812 15.2501 24.5196 18.0495 22.0312 21.3672C20.244 23.7502 18.4809 25.5201 18.4067 25.5942C18.187 25.814 17.8889 25.9375 17.5781 25.9375C17.2673 25.9375 16.9693 25.814 16.7495 25.5942C16.6753 25.5201 14.9122 23.7502 13.125 21.3672C10.6366 18.0495 9.375 15.2501 9.375 13.0469ZM11.7188 13.0469C11.7188 16.0545 15.4068 20.7012 17.5781 23.0677C19.7493 20.7013 23.4375 16.0545 23.4375 13.0469C23.4375 9.81602 20.809 7.1875 17.5781 7.1875C14.3473 7.1875 11.7188 9.81602 11.7188 13.0469ZM12.8906 28.2812C12.2434 28.2812 11.7188 28.8059 11.7188 29.4531C11.7188 30.1003 12.2434 30.625 12.8906 30.625H22.2656C22.9128 30.625 23.4375 30.1003 23.4375 29.4531C23.4375 28.8059 22.9128 28.2812 22.2656 28.2812H12.8906ZM11.7188 34.1406C11.7188 33.4934 12.2434 32.9688 12.8906 32.9688H22.2656C22.9128 32.9688 23.4375 33.4934 23.4375 34.1406C23.4375 34.7878 22.9128 35.3125 22.2656 35.3125H12.8906C12.2434 35.3125 11.7188 34.7878 11.7188 34.1406Z" fill="#242527"/>
<path d="M2.34375 7.1875V7.6875H2.84375V7.1875H2.34375ZM2.34375 9.53125H2.84375V9.03125H2.34375V9.53125ZM2.34375 18.9062V19.4062H2.84375V18.9062H2.34375ZM2.34375 21.25H2.84375V20.75H2.34375V21.25ZM2.34375 30.625V31.125H2.84375V30.625H2.34375ZM2.34375 32.9688H2.84375V32.4688H2.34375V32.9688ZM27.782 39.6566L28.1355 40.0101L28.1355 40.0101L27.782 39.6566ZM32.4692 34.9692L32.8228 35.3228L32.4692 34.9692ZM28.125 28.9677H27.625V30.1748L28.4786 29.3213L28.125 28.9677ZM30.4688 26.624L30.8223 26.9775L30.9688 26.8311V26.624H30.4688ZM28.125 25.2511L27.7714 24.8975L27.625 25.044V25.2511H28.125ZM30.4688 22.9073H30.9688V21.7002L30.1152 22.5538L30.4688 22.9073ZM4.6875 37.6562H4.1875V38.1562H4.6875V37.6562ZM25.7812 37.6562V38.1562H26.2812V37.6562H25.7812ZM4.6875 32.9688V32.4688H4.1875V32.9688H4.6875ZM4.6875 30.625H4.1875V31.125H4.6875V30.625ZM4.6875 21.25V20.75H4.1875V21.25H4.6875ZM4.6875 18.9062H4.1875V19.4062H4.6875V18.9062ZM4.6875 9.53125V9.03125H4.1875V9.53125H4.6875ZM4.6875 7.1875H4.1875V7.6875H4.6875V7.1875ZM4.6875 2.34375V1.84375H4.1875V2.34375H4.6875ZM30.4688 2.34375H30.9688V1.84375H30.4688V2.34375ZM30.4688 19.5927L30.8223 19.9463L30.9688 19.7998V19.5927H30.4688ZM26.1245 23.937L26.4781 24.2906L26.4781 24.2906L26.1245 23.937ZM28.125 35.999H27.625V37.2061L28.4786 36.3525L28.125 35.999ZM30.4688 33.6552L30.8223 34.0088L30.9688 33.8623V33.6552H30.4688ZM28.125 32.2823L27.7714 31.9287L27.625 32.0752V32.2823H28.125ZM30.4688 29.9385H30.9688V28.7314L30.1152 29.585L30.4688 29.9385ZM22.0312 21.3672L21.6313 21.0672H21.6313L22.0312 21.3672ZM18.4067 25.5942L18.0534 25.2405L18.0532 25.2407L18.4067 25.5942ZM16.7495 25.5942L17.1031 25.2407L17.1029 25.2405L16.7495 25.5942ZM13.125 21.3672L13.525 21.0672L13.525 21.0672L13.125 21.3672ZM17.5781 23.0677L17.2097 23.4057L17.5781 23.8072L17.9465 23.4057L17.5781 23.0677ZM3.51562 0.5H31.6406V-0.5H3.51562V0.5ZM2.84375 1.17188C2.84375 0.80083 3.14458 0.5 3.51562 0.5V-0.5C2.5923 -0.5 1.84375 0.248545 1.84375 1.17188H2.84375ZM2.84375 7.1875V1.17188H1.84375V7.1875H2.84375ZM1.17188 7.6875H2.34375V6.6875H1.17188V7.6875ZM0.5 8.35938C0.5 7.98833 0.80083 7.6875 1.17188 7.6875V6.6875C0.248545 6.6875 -0.5 7.43604 -0.5 8.35938H0.5ZM1.17188 9.03125C0.80083 9.03125 0.5 8.73042 0.5 8.35938H-0.5C-0.5 9.2827 0.248545 10.0312 1.17188 10.0312V9.03125ZM2.34375 9.03125H1.17188V10.0312H2.34375V9.03125ZM2.84375 18.9062V9.53125H1.84375V18.9062H2.84375ZM1.17188 19.4062H2.34375V18.4062H1.17188V19.4062ZM0.5 20.0781C0.5 19.7071 0.80083 19.4062 1.17188 19.4062V18.4062C0.248545 18.4062 -0.5 19.1548 -0.5 20.0781H0.5ZM1.17188 20.75C0.80083 20.75 0.5 20.4492 0.5 20.0781H-0.5C-0.5 21.0015 0.248545 21.75 1.17188 21.75V20.75ZM2.34375 20.75H1.17188V21.75H2.34375V20.75ZM2.84375 30.625V21.25H1.84375V30.625H2.84375ZM1.17188 31.125H2.34375V30.125H1.17188V31.125ZM0.5 31.7969C0.5 31.4258 0.80083 31.125 1.17188 31.125V30.125C0.248545 30.125 -0.5 30.8735 -0.5 31.7969H0.5ZM1.17188 32.4688C0.80083 32.4688 0.5 32.1679 0.5 31.7969H-0.5C-0.5 32.7202 0.248545 33.4688 1.17188 33.4688V32.4688ZM2.34375 32.4688H1.17188V33.4688H2.34375V32.4688ZM2.84375 38.8281V32.9688H1.84375V38.8281H2.84375ZM3.51562 39.5C3.14458 39.5 2.84375 39.1992 2.84375 38.8281H1.84375C1.84375 39.7515 2.59229 40.5 3.51562 40.5V39.5ZM26.9531 39.5H3.51562V40.5H26.9531V39.5ZM27.4284 39.303C27.308 39.4234 27.132 39.5 26.9531 39.5V40.5C27.4048 40.5 27.833 40.3126 28.1355 40.0101L27.4284 39.303ZM32.1157 34.6157L27.4284 39.303L28.1355 40.0101L32.8228 35.3228L32.1157 34.6157ZM32.3125 34.1406C32.3125 34.3187 32.2417 34.4896 32.1157 34.6157L32.8228 35.3228C33.1363 35.0093 33.3125 34.5841 33.3125 34.1406H32.3125ZM32.3125 1.17188V34.1406H33.3125V1.17188H32.3125ZM31.6406 0.5C32.0117 0.5 32.3125 0.80083 32.3125 1.17188H33.3125C33.3125 0.248545 32.564 -0.5 31.6406 -0.5V0.5ZM28.4786 29.3213L30.8223 26.9775L30.1152 26.2704L27.7714 28.6142L28.4786 29.3213ZM27.625 25.2511V28.9677H28.625V25.2511H27.625ZM30.1152 22.5538L27.7714 24.8975L28.4786 25.6046L30.8223 23.2609L30.1152 22.5538ZM30.9688 26.624V22.9073H29.9688V26.624H30.9688ZM4.6875 38.1562H25.7812V37.1562H4.6875V38.1562ZM4.1875 32.9688V37.6562H5.1875V32.9688H4.1875ZM5.85938 32.4688H4.6875V33.4688H5.85938V32.4688ZM6.53125 31.7969C6.53125 32.1679 6.23042 32.4688 5.85938 32.4688V33.4688C6.78271 33.4688 7.53125 32.7202 7.53125 31.7969H6.53125ZM5.85938 31.125C6.23042 31.125 6.53125 31.4258 6.53125 31.7969H7.53125C7.53125 30.8735 6.7827 30.125 5.85938 30.125V31.125ZM4.6875 31.125H5.85938V30.125H4.6875V31.125ZM4.1875 21.25V30.625H5.1875V21.25H4.1875ZM5.85938 20.75H4.6875V21.75H5.85938V20.75ZM6.53125 20.0781C6.53125 20.4492 6.23042 20.75 5.85938 20.75V21.75C6.7827 21.75 7.53125 21.0015 7.53125 20.0781H6.53125ZM5.85938 19.4062C6.23042 19.4062 6.53125 19.7071 6.53125 20.0781H7.53125C7.53125 19.1548 6.7827 18.4062 5.85938 18.4062V19.4062ZM4.6875 19.4062H5.85938V18.4062H4.6875V19.4062ZM4.1875 9.53125V18.9062H5.1875V9.53125H4.1875ZM5.85938 9.03125H4.6875V10.0312H5.85938V9.03125ZM6.53125 8.35938C6.53125 8.73042 6.23042 9.03125 5.85938 9.03125V10.0312C6.78271 10.0312 7.53125 9.2827 7.53125 8.35938H6.53125ZM5.85938 7.6875C6.23042 7.6875 6.53125 7.98833 6.53125 8.35938H7.53125C7.53125 7.43604 6.78271 6.6875 5.85938 6.6875V7.6875ZM4.6875 7.6875H5.85938V6.6875H4.6875V7.6875ZM4.1875 2.34375V7.1875H5.1875V2.34375H4.1875ZM30.4688 1.84375H4.6875V2.84375H30.4688V1.84375ZM30.9688 19.5927V2.34375H29.9688V19.5927H30.9688ZM26.4781 24.2906L30.8223 19.9463L30.1152 19.2392L25.771 23.5835L26.4781 24.2906ZM26.2812 24.7656C26.2812 24.5875 26.352 24.4166 26.4781 24.2906L25.771 23.5835C25.4575 23.897 25.2812 24.3222 25.2812 24.7656H26.2812ZM26.2812 37.6562V24.7656H25.2812V37.6562H26.2812ZM28.4786 36.3525L30.8223 34.0088L30.1152 33.3017L27.7714 35.6454L28.4786 36.3525ZM27.625 32.2823V35.999H28.625V32.2823H27.625ZM30.1152 29.585L27.7714 31.9287L28.4786 32.6358L30.8223 30.2921L30.1152 29.585ZM30.9688 33.6552V29.9385H29.9688V33.6552H30.9688ZM14.5625 13.0469C14.5625 11.3845 15.9158 10.0312 17.5781 10.0312V9.03125C15.3635 9.03125 13.5625 10.8322 13.5625 13.0469H14.5625ZM17.5781 16.0625C15.9158 16.0625 14.5625 14.7092 14.5625 13.0469H13.5625C13.5625 15.2615 15.3635 17.0625 17.5781 17.0625V16.0625ZM20.5938 13.0469C20.5938 14.7092 19.2405 16.0625 17.5781 16.0625V17.0625C19.7928 17.0625 21.5938 15.2615 21.5938 13.0469H20.5938ZM17.5781 10.0312C19.2405 10.0312 20.5938 11.3845 20.5938 13.0469H21.5938C21.5938 10.8322 19.7928 9.03125 17.5781 9.03125V10.0312ZM15.9062 13.0469C15.9062 13.9692 16.6558 14.7188 17.5781 14.7188V13.7188C17.2081 13.7188 16.9062 13.4169 16.9062 13.0469H15.9062ZM17.5781 11.375C16.6558 11.375 15.9062 12.1246 15.9062 13.0469H16.9062C16.9062 12.6768 17.2081 12.375 17.5781 12.375V11.375ZM19.25 13.0469C19.25 12.1246 18.5004 11.375 17.5781 11.375V12.375C17.9482 12.375 18.25 12.6768 18.25 13.0469H19.25ZM17.5781 14.7188C18.5004 14.7188 19.25 13.9692 19.25 13.0469H18.25C18.25 13.4169 17.9482 13.7188 17.5781 13.7188V14.7188ZM17.5781 4.34375C12.7788 4.34375 8.875 8.24753 8.875 13.0469H9.875C9.875 8.79981 13.3311 5.34375 17.5781 5.34375V4.34375ZM26.2812 13.0469C26.2812 8.24753 22.3775 4.34375 17.5781 4.34375V5.34375C21.8252 5.34375 25.2812 8.79981 25.2812 13.0469H26.2812ZM22.4312 21.6672C24.9352 18.3287 26.2812 15.4187 26.2812 13.0469H25.2812C25.2812 15.0814 24.104 17.7702 21.6313 21.0672L22.4312 21.6672ZM18.7601 25.948C18.842 25.8661 20.6237 24.0772 22.4312 21.6672L21.6313 21.0672C19.8643 23.4231 18.1199 25.174 18.0534 25.2405L18.7601 25.948ZM17.5781 26.4375C18.0216 26.4375 18.4468 26.2613 18.7603 25.9478L18.0532 25.2407C17.9271 25.3667 17.7562 25.4375 17.5781 25.4375V26.4375ZM16.396 25.9478C16.7095 26.2613 17.1347 26.4375 17.5781 26.4375V25.4375C17.4 25.4375 17.2291 25.3667 17.1031 25.2407L16.396 25.9478ZM12.725 21.6672C14.5325 24.0772 16.3143 25.8661 16.3962 25.948L17.1029 25.2405C17.0364 25.174 15.2919 23.4231 13.525 21.0672L12.725 21.6672ZM8.875 13.0469C8.875 15.4187 10.2211 18.3287 12.725 21.6672L13.525 21.0672C11.0522 17.7702 9.875 15.0814 9.875 13.0469H8.875ZM17.9465 22.7296C16.8726 21.5592 15.4269 19.828 14.2532 18.0249C13.6665 17.1235 13.1538 16.2134 12.7893 15.3535C12.4225 14.4884 12.2188 13.7045 12.2188 13.0469H11.2188C11.2188 13.893 11.476 14.8178 11.8686 15.7438C12.2634 16.675 12.8085 17.6384 13.4151 18.5704C14.6283 20.4342 16.1123 22.2097 17.2097 23.4057L17.9465 22.7296ZM22.9375 13.0469C22.9375 13.7045 22.7337 14.4885 22.367 15.3535C22.0024 16.2135 21.4897 17.1236 20.903 18.025C19.7293 19.8281 18.2836 21.5592 17.2097 22.7296L17.9465 23.4057C19.0439 22.2097 20.5278 20.4343 21.741 18.5705C22.3477 17.6385 22.8928 16.6751 23.2876 15.7439C23.6802 14.8178 23.9375 13.893 23.9375 13.0469H22.9375ZM17.5781 7.6875C20.5328 7.6875 22.9375 10.0922 22.9375 13.0469H23.9375C23.9375 9.53987 21.0851 6.6875 17.5781 6.6875V7.6875ZM12.2188 13.0469C12.2188 10.0922 14.6234 7.6875 17.5781 7.6875V6.6875C14.0711 6.6875 11.2188 9.53987 11.2188 13.0469H12.2188ZM12.2188 29.4531C12.2188 29.0821 12.5196 28.7812 12.8906 28.7812V27.7812C11.9673 27.7812 11.2188 28.5298 11.2188 29.4531H12.2188ZM12.8906 30.125C12.5196 30.125 12.2188 29.8242 12.2188 29.4531H11.2188C11.2188 30.3765 11.9673 31.125 12.8906 31.125V30.125ZM22.2656 30.125H12.8906V31.125H22.2656V30.125ZM22.9375 29.4531C22.9375 29.8242 22.6367 30.125 22.2656 30.125V31.125C23.189 31.125 23.9375 30.3765 23.9375 29.4531H22.9375ZM22.2656 28.7812C22.6367 28.7812 22.9375 29.0821 22.9375 29.4531H23.9375C23.9375 28.5298 23.189 27.7812 22.2656 27.7812V28.7812ZM12.8906 28.7812H22.2656V27.7812H12.8906V28.7812ZM12.8906 32.4688C11.9673 32.4688 11.2188 33.2173 11.2188 34.1406H12.2188C12.2188 33.7696 12.5196 33.4688 12.8906 33.4688V32.4688ZM22.2656 32.4688H12.8906V33.4688H22.2656V32.4688ZM23.9375 34.1406C23.9375 33.2173 23.189 32.4688 22.2656 32.4688V33.4688C22.6367 33.4688 22.9375 33.7696 22.9375 34.1406H23.9375ZM22.2656 35.8125C23.189 35.8125 23.9375 35.064 23.9375 34.1406H22.9375C22.9375 34.5117 22.6367 34.8125 22.2656 34.8125V35.8125ZM12.8906 35.8125H22.2656V34.8125H12.8906V35.8125ZM11.2188 34.1406C11.2188 35.064 11.9673 35.8125 12.8906 35.8125V34.8125C12.5196 34.8125 12.2188 34.5117 12.2188 34.1406H11.2188Z" fill="white"/>
</g>
<defs>
<clipPath id="clip0_460_2010">
<rect width="40" height="40" fill="white"/>
</clipPath>
</defs>
</svg>
