<svg width="40" height="38" viewBox="0 0 40 38" fill="none" xmlns="http://www.w3.org/2000/svg">
<mask id="path-1-outside-1_439_7706" maskUnits="userSpaceOnUse" x="-0.296875" y="0.00292969" width="40" height="38" fill="black">
<rect fill="white" x="-0.296875" y="0.00292969" width="40" height="38"/>
<path d="M26.8713 24.3906H27.4437C27.5887 24.3906 27.7278 24.333 27.8304 24.2304C27.933 24.1279 27.9906 23.9888 27.9906 23.8438C27.9906 23.6987 27.933 23.5596 27.8304 23.4571C27.7278 23.3545 27.5887 23.2969 27.4437 23.2969H27.4221V21.8125H28.9305C28.9648 21.9225 29.0343 22.0181 29.1282 22.0848C29.2221 22.1515 29.3353 22.1856 29.4504 22.1818C29.5957 22.1822 29.7351 22.125 29.8382 22.0227C29.9413 21.9204 29.9996 21.7814 30.0003 21.6362V21.2682C29.999 21.1223 29.9403 20.9827 29.8368 20.8799C29.7333 20.777 29.5934 20.7191 29.4475 20.7188H26.8713C26.7995 20.7191 26.7286 20.7336 26.6624 20.7615C26.5963 20.7893 26.5363 20.8299 26.4859 20.8809C26.4355 20.9319 26.3956 20.9924 26.3686 21.0589C26.3415 21.1253 26.3279 21.1965 26.3284 21.2682V23.8444C26.328 23.9159 26.3417 23.9869 26.3688 24.0532C26.3959 24.1194 26.4358 24.1796 26.4862 24.2304C26.5367 24.2812 26.5967 24.3215 26.6628 24.349C26.7288 24.3765 26.7997 24.3906 26.8713 24.3906Z"/>
<path fill-rule="evenodd" clip-rule="evenodd" d="M29.4531 29.3906H26.875C26.73 29.3906 26.5909 29.333 26.4883 29.2304C26.3857 29.1279 26.3281 28.9888 26.3281 28.8438V26.2656C26.3281 26.1206 26.3857 25.9815 26.4883 25.8789C26.5909 25.7764 26.73 25.7188 26.875 25.7188H29.4531C29.5982 25.7188 29.7373 25.7764 29.8398 25.8789C29.9424 25.9815 30 26.1206 30 26.2656V28.8438C30 28.9888 29.9424 29.1279 29.8398 29.2304C29.7373 29.333 29.5982 29.3906 29.4531 29.3906ZM28.9063 26.8125H27.4219V28.2969H28.9063V26.8125Z"/>
<path d="M27.4436 33.2969H27.4219V31.8125H28.9008C28.9036 31.9563 28.9627 32.0933 29.0653 32.1941C29.168 32.2948 29.306 32.3513 29.4499 32.3515C29.5937 32.3516 29.7319 32.2954 29.8347 32.1948C29.9376 32.0943 29.997 31.9574 30.0001 31.8136V31.2866C29.9995 31.1388 29.9415 30.9969 29.8384 30.891C29.7353 30.785 29.595 30.7233 29.4472 30.7188H26.8711C26.7243 30.7237 26.5853 30.7859 26.4838 30.892C26.3824 30.9982 26.3265 31.1398 26.3282 31.2866V33.8628C26.3281 33.9334 26.3422 34.0033 26.3696 34.0684C26.3971 34.1335 26.4373 34.1924 26.488 34.2416C26.5386 34.2908 26.5986 34.3294 26.6644 34.355C26.7302 34.3806 26.8005 34.3927 26.8711 34.3906H27.4436C27.5886 34.3906 27.7277 34.333 27.8303 34.2305C27.9328 34.1279 27.9904 33.9888 27.9904 33.8438C27.9904 33.6987 27.9328 33.5596 27.8303 33.4571C27.7277 33.3545 27.5886 33.2969 27.4436 33.2969Z"/>
<path d="M29.1046 22.9915L30.7062 21.3899C30.8088 21.2873 30.9481 21.2295 31.0932 21.2295C31.2382 21.2295 31.3773 21.2871 31.4799 21.3897C31.5824 21.4922 31.6401 21.6313 31.6401 21.7764C31.6401 21.9214 31.5824 22.0606 31.4799 22.1631L29.4914 24.1516C29.4407 24.2023 29.3804 24.2426 29.314 24.2701C29.2477 24.2976 29.1765 24.3117 29.1047 24.3117C29.0329 24.3117 28.9618 24.2976 28.8954 24.2701C28.8291 24.2426 28.7688 24.2023 28.718 24.1516L27.844 23.2776C27.7932 23.2269 27.753 23.1666 27.7255 23.1002C27.698 23.0339 27.6838 22.9627 27.6838 22.8909C27.6838 22.8191 27.698 22.748 27.7255 22.6816C27.753 22.6153 27.7932 22.555 27.844 22.5042C27.8948 22.4534 27.9551 22.4131 28.0215 22.3857C28.0878 22.3582 28.1589 22.344 28.2307 22.344C28.3026 22.344 28.3737 22.3582 28.44 22.3857C28.5064 22.4131 28.5667 22.4534 28.6175 22.5042L29.1046 22.9915Z"/>
<path d="M30.7062 31.4876L29.1046 33.0891L28.6175 32.6019C28.5667 32.5511 28.5064 32.5108 28.44 32.4833C28.3737 32.4558 28.3026 32.4417 28.2307 32.4417C28.1589 32.4417 28.0878 32.4558 28.0215 32.4833C27.9551 32.5108 27.8948 32.5511 27.844 32.6019C27.7932 32.6527 27.753 32.7129 27.7255 32.7793C27.698 32.8456 27.6838 32.9168 27.6838 32.9886C27.6838 33.0604 27.698 33.1315 27.7255 33.1979C27.753 33.2642 27.7932 33.3245 27.844 33.3753L28.718 34.2492C28.7688 34.3 28.8291 34.3403 28.8954 34.3678C28.9618 34.3953 29.0329 34.4094 29.1047 34.4094C29.1765 34.4094 29.2477 34.3953 29.314 34.3678C29.3804 34.3403 29.4407 34.3 29.4914 34.2492L31.4799 32.2608C31.5824 32.1582 31.6401 32.0191 31.6401 31.8741C31.6401 31.729 31.5824 31.5899 31.4799 31.4873C31.3773 31.3848 31.2382 31.3271 31.0932 31.3271C30.9481 31.3271 30.8088 31.385 30.7062 31.4876Z"/>
<path d="M32.8818 22.0469H36.3167C36.4617 22.0469 36.6008 22.1045 36.7034 22.2071C36.8059 22.3096 36.8636 22.4487 36.8636 22.5938C36.8636 22.7388 36.8059 22.8779 36.7034 22.9804C36.6008 23.083 36.4617 23.1406 36.3167 23.1406H32.8818C32.7368 23.1406 32.5977 23.083 32.4951 22.9804C32.3926 22.8779 32.335 22.7388 32.335 22.5938C32.335 22.4487 32.3926 22.3096 32.4951 22.2071C32.5977 22.1045 32.7368 22.0469 32.8818 22.0469Z"/>
<path d="M36.3167 27.0469H32.8818C32.7368 27.0469 32.5977 27.1045 32.4951 27.2071C32.3926 27.3096 32.335 27.4487 32.335 27.5938C32.335 27.7388 32.3926 27.8779 32.4951 27.9804C32.5977 28.083 32.7368 28.1406 32.8818 28.1406H36.3167C36.4617 28.1406 36.6008 28.083 36.7034 27.9804C36.8059 27.8779 36.8636 27.7388 36.8636 27.5938C36.8636 27.4487 36.8059 27.3096 36.7034 27.2071C36.6008 27.1045 36.4617 27.0469 36.3167 27.0469Z"/>
<path d="M32.8818 32.0469H36.3167C36.4617 32.0469 36.6008 32.1045 36.7034 32.2071C36.8059 32.3096 36.8636 32.4487 36.8636 32.5938C36.8636 32.7388 36.8059 32.8779 36.7034 32.9804C36.6008 33.083 36.4617 33.1406 36.3167 33.1406H32.8818C32.7368 33.1406 32.5977 33.083 32.4951 32.9804C32.3926 32.8779 32.335 32.7388 32.335 32.5938C32.335 32.4487 32.3926 32.3096 32.4951 32.2071C32.5977 32.1045 32.7368 32.0469 32.8818 32.0469Z"/>
<path fill-rule="evenodd" clip-rule="evenodd" d="M36.9466 16.5003H35.0005C34.8897 16.099 34.6512 15.7447 34.3211 15.491C33.9911 15.2373 33.5874 15.098 33.1711 15.094H31.0938V10.014C31.0961 9.91901 31.0731 9.82506 31.0272 9.74184C30.9812 9.65862 30.914 9.58911 30.8323 9.54044L16.1779 1.07623C16.0953 1.02822 16.0015 1.00293 15.9059 1.00293C15.8104 1.00293 15.7166 1.02822 15.634 1.07623L0.975005 9.54044C0.892061 9.58852 0.823256 9.65762 0.775525 9.74076C0.727794 9.82391 0.702824 9.91817 0.703128 10.014V26.9426C0.703133 27.0385 0.728403 27.1328 0.776401 27.216C0.824399 27.2991 0.893435 27.3681 0.976568 27.4161L15.637 35.8804C15.7202 35.9284 15.8145 35.9536 15.9105 35.9536C16.009 35.9537 16.1058 35.9285 16.1917 35.8804L23.9063 31.4306V34.6473C23.9055 34.9536 23.9654 35.2569 24.0827 35.5399C24.1999 35.8228 24.3721 36.0797 24.5893 36.2956C24.8065 36.5115 25.0643 36.6822 25.3479 36.7978C25.6315 36.9134 25.9352 36.9716 26.2415 36.969H36.9466C37.2536 36.9719 37.5582 36.914 37.8427 36.7987C38.1273 36.6834 38.3863 36.5129 38.6047 36.2971C38.8232 36.0813 38.9968 35.8245 39.1156 35.5414C39.2344 35.2582 39.296 34.9544 39.2969 34.6473V18.8583C39.2965 18.2343 39.049 17.6359 38.6085 17.194C38.1681 16.7521 37.5705 16.5027 36.9466 16.5003ZM33.1905 16.1878C33.4011 16.1878 33.603 16.2714 33.7519 16.4203C33.9007 16.5692 33.9844 16.7711 33.9844 16.9816V17.0346C33.9844 17.2451 33.9007 17.447 33.7519 17.5959C33.603 17.7448 33.4011 17.8284 33.1905 17.8284H30.0126C29.802 17.8284 29.6001 17.7448 29.4513 17.5959C29.3024 17.447 29.2188 17.2451 29.2188 17.0346V16.9816C29.2188 16.7711 29.3024 16.5692 29.4513 16.4203C29.6001 16.2714 29.802 16.1878 30.0126 16.1878H33.1905ZM15.9105 2.1813L22.0022 5.69833L8.43641 13.5305L2.34477 10.0135L15.9105 2.1813ZM15.3906 34.4595L1.79688 26.6268V10.9601L15.3906 18.7928V34.4595ZM15.9105 17.8456L9.53016 14.1619L23.0959 6.32982L29.4766 10.0135L15.9105 17.8456ZM23.9063 18.8583V30.1677L16.4844 34.4595V18.7928L30 10.9601V15.094H30.017C29.6007 15.0979 29.197 15.2373 28.8669 15.491C28.5368 15.7447 28.2983 16.099 28.1875 16.5003H26.2415C25.6191 16.5033 25.0235 16.7534 24.5855 17.1956C24.1476 17.6378 23.9032 18.2359 23.9063 18.8583ZM38.2031 34.6473C38.2024 34.8108 38.1692 34.9725 38.1054 35.123C38.0416 35.2735 37.9486 35.4099 37.8317 35.5241C37.7147 35.6384 37.5763 35.7282 37.4244 35.7885C37.2724 35.8488 37.11 35.8783 36.9466 35.8753H26.2415C26.0788 35.878 25.9173 35.8482 25.7663 35.7877C25.6153 35.7271 25.478 35.637 25.3623 35.5226C25.2467 35.4082 25.155 35.2718 25.0928 35.1215C25.0306 34.9712 24.999 34.81 25 34.6473V18.8583C24.9984 18.6937 25.0292 18.5304 25.0907 18.3778C25.1522 18.2251 25.2433 18.0861 25.3586 17.9687C25.4739 17.8513 25.6112 17.7577 25.7627 17.6934C25.9142 17.6292 26.0769 17.5954 26.2415 17.594H28.2088C28.3261 17.9811 28.5657 18.3198 28.8917 18.5592C29.2177 18.7987 29.6125 18.926 30.017 18.9222H33.1711C33.5756 18.926 33.9704 18.7987 34.2963 18.5592C34.6223 18.3198 34.8619 17.9811 34.9791 17.594H36.9466C37.2805 17.5961 37.6001 17.7303 37.8355 17.9671C38.0709 18.204 38.2031 18.5243 38.2031 18.8583V34.6473Z"/>
</mask>
<path d="M26.8713 24.3906H27.4437C27.5887 24.3906 27.7278 24.333 27.8304 24.2304C27.933 24.1279 27.9906 23.9888 27.9906 23.8438C27.9906 23.6987 27.933 23.5596 27.8304 23.4571C27.7278 23.3545 27.5887 23.2969 27.4437 23.2969H27.4221V21.8125H28.9305C28.9648 21.9225 29.0343 22.0181 29.1282 22.0848C29.2221 22.1515 29.3353 22.1856 29.4504 22.1818C29.5957 22.1822 29.7351 22.125 29.8382 22.0227C29.9413 21.9204 29.9996 21.7814 30.0003 21.6362V21.2682C29.999 21.1223 29.9403 20.9827 29.8368 20.8799C29.7333 20.777 29.5934 20.7191 29.4475 20.7188H26.8713C26.7995 20.7191 26.7286 20.7336 26.6624 20.7615C26.5963 20.7893 26.5363 20.8299 26.4859 20.8809C26.4355 20.9319 26.3956 20.9924 26.3686 21.0589C26.3415 21.1253 26.3279 21.1965 26.3284 21.2682V23.8444C26.328 23.9159 26.3417 23.9869 26.3688 24.0532C26.3959 24.1194 26.4358 24.1796 26.4862 24.2304C26.5367 24.2812 26.5967 24.3215 26.6628 24.349C26.7288 24.3765 26.7997 24.3906 26.8713 24.3906Z" fill="#242527"/>
<path fill-rule="evenodd" clip-rule="evenodd" d="M29.4531 29.3906H26.875C26.73 29.3906 26.5909 29.333 26.4883 29.2304C26.3857 29.1279 26.3281 28.9888 26.3281 28.8438V26.2656C26.3281 26.1206 26.3857 25.9815 26.4883 25.8789C26.5909 25.7764 26.73 25.7188 26.875 25.7188H29.4531C29.5982 25.7188 29.7373 25.7764 29.8398 25.8789C29.9424 25.9815 30 26.1206 30 26.2656V28.8438C30 28.9888 29.9424 29.1279 29.8398 29.2304C29.7373 29.333 29.5982 29.3906 29.4531 29.3906ZM28.9063 26.8125H27.4219V28.2969H28.9063V26.8125Z" fill="#242527"/>
<path d="M27.4436 33.2969H27.4219V31.8125H28.9008C28.9036 31.9563 28.9627 32.0933 29.0653 32.1941C29.168 32.2948 29.306 32.3513 29.4499 32.3515C29.5937 32.3516 29.7319 32.2954 29.8347 32.1948C29.9376 32.0943 29.997 31.9574 30.0001 31.8136V31.2866C29.9995 31.1388 29.9415 30.9969 29.8384 30.891C29.7353 30.785 29.595 30.7233 29.4472 30.7188H26.8711C26.7243 30.7237 26.5853 30.7859 26.4838 30.892C26.3824 30.9982 26.3265 31.1398 26.3282 31.2866V33.8628C26.3281 33.9334 26.3422 34.0033 26.3696 34.0684C26.3971 34.1335 26.4373 34.1924 26.488 34.2416C26.5386 34.2908 26.5986 34.3294 26.6644 34.355C26.7302 34.3806 26.8005 34.3927 26.8711 34.3906H27.4436C27.5886 34.3906 27.7277 34.333 27.8303 34.2305C27.9328 34.1279 27.9904 33.9888 27.9904 33.8438C27.9904 33.6987 27.9328 33.5596 27.8303 33.4571C27.7277 33.3545 27.5886 33.2969 27.4436 33.2969Z" fill="#242527"/>
<path d="M29.1046 22.9915L30.7062 21.3899C30.8088 21.2873 30.9481 21.2295 31.0932 21.2295C31.2382 21.2295 31.3773 21.2871 31.4799 21.3897C31.5824 21.4922 31.6401 21.6313 31.6401 21.7764C31.6401 21.9214 31.5824 22.0606 31.4799 22.1631L29.4914 24.1516C29.4407 24.2023 29.3804 24.2426 29.314 24.2701C29.2477 24.2976 29.1765 24.3117 29.1047 24.3117C29.0329 24.3117 28.9618 24.2976 28.8954 24.2701C28.8291 24.2426 28.7688 24.2023 28.718 24.1516L27.844 23.2776C27.7932 23.2269 27.753 23.1666 27.7255 23.1002C27.698 23.0339 27.6838 22.9627 27.6838 22.8909C27.6838 22.8191 27.698 22.748 27.7255 22.6816C27.753 22.6153 27.7932 22.555 27.844 22.5042C27.8948 22.4534 27.9551 22.4131 28.0215 22.3857C28.0878 22.3582 28.1589 22.344 28.2307 22.344C28.3026 22.344 28.3737 22.3582 28.44 22.3857C28.5064 22.4131 28.5667 22.4534 28.6175 22.5042L29.1046 22.9915Z" fill="#242527"/>
<path d="M30.7062 31.4876L29.1046 33.0891L28.6175 32.6019C28.5667 32.5511 28.5064 32.5108 28.44 32.4833C28.3737 32.4558 28.3026 32.4417 28.2307 32.4417C28.1589 32.4417 28.0878 32.4558 28.0215 32.4833C27.9551 32.5108 27.8948 32.5511 27.844 32.6019C27.7932 32.6527 27.753 32.7129 27.7255 32.7793C27.698 32.8456 27.6838 32.9168 27.6838 32.9886C27.6838 33.0604 27.698 33.1315 27.7255 33.1979C27.753 33.2642 27.7932 33.3245 27.844 33.3753L28.718 34.2492C28.7688 34.3 28.8291 34.3403 28.8954 34.3678C28.9618 34.3953 29.0329 34.4094 29.1047 34.4094C29.1765 34.4094 29.2477 34.3953 29.314 34.3678C29.3804 34.3403 29.4407 34.3 29.4914 34.2492L31.4799 32.2608C31.5824 32.1582 31.6401 32.0191 31.6401 31.8741C31.6401 31.729 31.5824 31.5899 31.4799 31.4873C31.3773 31.3848 31.2382 31.3271 31.0932 31.3271C30.9481 31.3271 30.8088 31.385 30.7062 31.4876Z" fill="#242527"/>
<path d="M32.8818 22.0469H36.3167C36.4617 22.0469 36.6008 22.1045 36.7034 22.2071C36.8059 22.3096 36.8636 22.4487 36.8636 22.5938C36.8636 22.7388 36.8059 22.8779 36.7034 22.9804C36.6008 23.083 36.4617 23.1406 36.3167 23.1406H32.8818C32.7368 23.1406 32.5977 23.083 32.4951 22.9804C32.3926 22.8779 32.335 22.7388 32.335 22.5938C32.335 22.4487 32.3926 22.3096 32.4951 22.2071C32.5977 22.1045 32.7368 22.0469 32.8818 22.0469Z" fill="#242527"/>
<path d="M36.3167 27.0469H32.8818C32.7368 27.0469 32.5977 27.1045 32.4951 27.2071C32.3926 27.3096 32.335 27.4487 32.335 27.5938C32.335 27.7388 32.3926 27.8779 32.4951 27.9804C32.5977 28.083 32.7368 28.1406 32.8818 28.1406H36.3167C36.4617 28.1406 36.6008 28.083 36.7034 27.9804C36.8059 27.8779 36.8636 27.7388 36.8636 27.5938C36.8636 27.4487 36.8059 27.3096 36.7034 27.2071C36.6008 27.1045 36.4617 27.0469 36.3167 27.0469Z" fill="#242527"/>
<path d="M32.8818 32.0469H36.3167C36.4617 32.0469 36.6008 32.1045 36.7034 32.2071C36.8059 32.3096 36.8636 32.4487 36.8636 32.5938C36.8636 32.7388 36.8059 32.8779 36.7034 32.9804C36.6008 33.083 36.4617 33.1406 36.3167 33.1406H32.8818C32.7368 33.1406 32.5977 33.083 32.4951 32.9804C32.3926 32.8779 32.335 32.7388 32.335 32.5938C32.335 32.4487 32.3926 32.3096 32.4951 32.2071C32.5977 32.1045 32.7368 32.0469 32.8818 32.0469Z" fill="#242527"/>
<path fill-rule="evenodd" clip-rule="evenodd" d="M36.9466 16.5003H35.0005C34.8897 16.099 34.6512 15.7447 34.3211 15.491C33.9911 15.2373 33.5874 15.098 33.1711 15.094H31.0938V10.014C31.0961 9.91901 31.0731 9.82506 31.0272 9.74184C30.9812 9.65862 30.914 9.58911 30.8323 9.54044L16.1779 1.07623C16.0953 1.02822 16.0015 1.00293 15.9059 1.00293C15.8104 1.00293 15.7166 1.02822 15.634 1.07623L0.975005 9.54044C0.892061 9.58852 0.823256 9.65762 0.775525 9.74076C0.727794 9.82391 0.702824 9.91817 0.703128 10.014V26.9426C0.703133 27.0385 0.728403 27.1328 0.776401 27.216C0.824399 27.2991 0.893435 27.3681 0.976568 27.4161L15.637 35.8804C15.7202 35.9284 15.8145 35.9536 15.9105 35.9536C16.009 35.9537 16.1058 35.9285 16.1917 35.8804L23.9063 31.4306V34.6473C23.9055 34.9536 23.9654 35.2569 24.0827 35.5399C24.1999 35.8228 24.3721 36.0797 24.5893 36.2956C24.8065 36.5115 25.0643 36.6822 25.3479 36.7978C25.6315 36.9134 25.9352 36.9716 26.2415 36.969H36.9466C37.2536 36.9719 37.5582 36.914 37.8427 36.7987C38.1273 36.6834 38.3863 36.5129 38.6047 36.2971C38.8232 36.0813 38.9968 35.8245 39.1156 35.5414C39.2344 35.2582 39.296 34.9544 39.2969 34.6473V18.8583C39.2965 18.2343 39.049 17.6359 38.6085 17.194C38.1681 16.7521 37.5705 16.5027 36.9466 16.5003ZM33.1905 16.1878C33.4011 16.1878 33.603 16.2714 33.7519 16.4203C33.9007 16.5692 33.9844 16.7711 33.9844 16.9816V17.0346C33.9844 17.2451 33.9007 17.447 33.7519 17.5959C33.603 17.7448 33.4011 17.8284 33.1905 17.8284H30.0126C29.802 17.8284 29.6001 17.7448 29.4513 17.5959C29.3024 17.447 29.2188 17.2451 29.2188 17.0346V16.9816C29.2188 16.7711 29.3024 16.5692 29.4513 16.4203C29.6001 16.2714 29.802 16.1878 30.0126 16.1878H33.1905ZM15.9105 2.1813L22.0022 5.69833L8.43641 13.5305L2.34477 10.0135L15.9105 2.1813ZM15.3906 34.4595L1.79688 26.6268V10.9601L15.3906 18.7928V34.4595ZM15.9105 17.8456L9.53016 14.1619L23.0959 6.32982L29.4766 10.0135L15.9105 17.8456ZM23.9063 18.8583V30.1677L16.4844 34.4595V18.7928L30 10.9601V15.094H30.017C29.6007 15.0979 29.197 15.2373 28.8669 15.491C28.5368 15.7447 28.2983 16.099 28.1875 16.5003H26.2415C25.6191 16.5033 25.0235 16.7534 24.5855 17.1956C24.1476 17.6378 23.9032 18.2359 23.9063 18.8583ZM38.2031 34.6473C38.2024 34.8108 38.1692 34.9725 38.1054 35.123C38.0416 35.2735 37.9486 35.4099 37.8317 35.5241C37.7147 35.6384 37.5763 35.7282 37.4244 35.7885C37.2724 35.8488 37.11 35.8783 36.9466 35.8753H26.2415C26.0788 35.878 25.9173 35.8482 25.7663 35.7877C25.6153 35.7271 25.478 35.637 25.3623 35.5226C25.2467 35.4082 25.155 35.2718 25.0928 35.1215C25.0306 34.9712 24.999 34.81 25 34.6473V18.8583C24.9984 18.6937 25.0292 18.5304 25.0907 18.3778C25.1522 18.2251 25.2433 18.0861 25.3586 17.9687C25.4739 17.8513 25.6112 17.7577 25.7627 17.6934C25.9142 17.6292 26.0769 17.5954 26.2415 17.594H28.2088C28.3261 17.9811 28.5657 18.3198 28.8917 18.5592C29.2177 18.7987 29.6125 18.926 30.017 18.9222H33.1711C33.5756 18.926 33.9704 18.7987 34.2963 18.5592C34.6223 18.3198 34.8619 17.9811 34.9791 17.594H36.9466C37.2805 17.5961 37.6001 17.7303 37.8355 17.9671C38.0709 18.204 38.2031 18.5243 38.2031 18.8583V34.6473Z" fill="#242527"/>
<path d="M26.8713 24.3906H27.4437C27.5887 24.3906 27.7278 24.333 27.8304 24.2304C27.933 24.1279 27.9906 23.9888 27.9906 23.8438C27.9906 23.6987 27.933 23.5596 27.8304 23.4571C27.7278 23.3545 27.5887 23.2969 27.4437 23.2969H27.4221V21.8125H28.9305C28.9648 21.9225 29.0343 22.0181 29.1282 22.0848C29.2221 22.1515 29.3353 22.1856 29.4504 22.1818C29.5957 22.1822 29.7351 22.125 29.8382 22.0227C29.9413 21.9204 29.9996 21.7814 30.0003 21.6362V21.2682C29.999 21.1223 29.9403 20.9827 29.8368 20.8799C29.7333 20.777 29.5934 20.7191 29.4475 20.7188H26.8713C26.7995 20.7191 26.7286 20.7336 26.6624 20.7615C26.5963 20.7893 26.5363 20.8299 26.4859 20.8809C26.4355 20.9319 26.3956 20.9924 26.3686 21.0589C26.3415 21.1253 26.3279 21.1965 26.3284 21.2682V23.8444C26.328 23.9159 26.3417 23.9869 26.3688 24.0532C26.3959 24.1194 26.4358 24.1796 26.4862 24.2304C26.5367 24.2812 26.5967 24.3215 26.6628 24.349C26.7288 24.3765 26.7997 24.3906 26.8713 24.3906Z" stroke="#242527" stroke-width="0.2" mask="url(#path-1-outside-1_439_7706)"/>
<path fill-rule="evenodd" clip-rule="evenodd" d="M29.4531 29.3906H26.875C26.73 29.3906 26.5909 29.333 26.4883 29.2304C26.3857 29.1279 26.3281 28.9888 26.3281 28.8438V26.2656C26.3281 26.1206 26.3857 25.9815 26.4883 25.8789C26.5909 25.7764 26.73 25.7188 26.875 25.7188H29.4531C29.5982 25.7188 29.7373 25.7764 29.8398 25.8789C29.9424 25.9815 30 26.1206 30 26.2656V28.8438C30 28.9888 29.9424 29.1279 29.8398 29.2304C29.7373 29.333 29.5982 29.3906 29.4531 29.3906ZM28.9063 26.8125H27.4219V28.2969H28.9063V26.8125Z" stroke="#242527" stroke-width="0.2" mask="url(#path-1-outside-1_439_7706)"/>
<path d="M27.4436 33.2969H27.4219V31.8125H28.9008C28.9036 31.9563 28.9627 32.0933 29.0653 32.1941C29.168 32.2948 29.306 32.3513 29.4499 32.3515C29.5937 32.3516 29.7319 32.2954 29.8347 32.1948C29.9376 32.0943 29.997 31.9574 30.0001 31.8136V31.2866C29.9995 31.1388 29.9415 30.9969 29.8384 30.891C29.7353 30.785 29.595 30.7233 29.4472 30.7188H26.8711C26.7243 30.7237 26.5853 30.7859 26.4838 30.892C26.3824 30.9982 26.3265 31.1398 26.3282 31.2866V33.8628C26.3281 33.9334 26.3422 34.0033 26.3696 34.0684C26.3971 34.1335 26.4373 34.1924 26.488 34.2416C26.5386 34.2908 26.5986 34.3294 26.6644 34.355C26.7302 34.3806 26.8005 34.3927 26.8711 34.3906H27.4436C27.5886 34.3906 27.7277 34.333 27.8303 34.2305C27.9328 34.1279 27.9904 33.9888 27.9904 33.8438C27.9904 33.6987 27.9328 33.5596 27.8303 33.4571C27.7277 33.3545 27.5886 33.2969 27.4436 33.2969Z" stroke="#242527" stroke-width="0.2" mask="url(#path-1-outside-1_439_7706)"/>
<path d="M29.1046 22.9915L30.7062 21.3899C30.8088 21.2873 30.9481 21.2295 31.0932 21.2295C31.2382 21.2295 31.3773 21.2871 31.4799 21.3897C31.5824 21.4922 31.6401 21.6313 31.6401 21.7764C31.6401 21.9214 31.5824 22.0606 31.4799 22.1631L29.4914 24.1516C29.4407 24.2023 29.3804 24.2426 29.314 24.2701C29.2477 24.2976 29.1765 24.3117 29.1047 24.3117C29.0329 24.3117 28.9618 24.2976 28.8954 24.2701C28.8291 24.2426 28.7688 24.2023 28.718 24.1516L27.844 23.2776C27.7932 23.2269 27.753 23.1666 27.7255 23.1002C27.698 23.0339 27.6838 22.9627 27.6838 22.8909C27.6838 22.8191 27.698 22.748 27.7255 22.6816C27.753 22.6153 27.7932 22.555 27.844 22.5042C27.8948 22.4534 27.9551 22.4131 28.0215 22.3857C28.0878 22.3582 28.1589 22.344 28.2307 22.344C28.3026 22.344 28.3737 22.3582 28.44 22.3857C28.5064 22.4131 28.5667 22.4534 28.6175 22.5042L29.1046 22.9915Z" stroke="#242527" stroke-width="0.2" mask="url(#path-1-outside-1_439_7706)"/>
<path d="M30.7062 31.4876L29.1046 33.0891L28.6175 32.6019C28.5667 32.5511 28.5064 32.5108 28.44 32.4833C28.3737 32.4558 28.3026 32.4417 28.2307 32.4417C28.1589 32.4417 28.0878 32.4558 28.0215 32.4833C27.9551 32.5108 27.8948 32.5511 27.844 32.6019C27.7932 32.6527 27.753 32.7129 27.7255 32.7793C27.698 32.8456 27.6838 32.9168 27.6838 32.9886C27.6838 33.0604 27.698 33.1315 27.7255 33.1979C27.753 33.2642 27.7932 33.3245 27.844 33.3753L28.718 34.2492C28.7688 34.3 28.8291 34.3403 28.8954 34.3678C28.9618 34.3953 29.0329 34.4094 29.1047 34.4094C29.1765 34.4094 29.2477 34.3953 29.314 34.3678C29.3804 34.3403 29.4407 34.3 29.4914 34.2492L31.4799 32.2608C31.5824 32.1582 31.6401 32.0191 31.6401 31.8741C31.6401 31.729 31.5824 31.5899 31.4799 31.4873C31.3773 31.3848 31.2382 31.3271 31.0932 31.3271C30.9481 31.3271 30.8088 31.385 30.7062 31.4876Z" stroke="#242527" stroke-width="0.2" mask="url(#path-1-outside-1_439_7706)"/>
<path d="M32.8818 22.0469H36.3167C36.4617 22.0469 36.6008 22.1045 36.7034 22.2071C36.8059 22.3096 36.8636 22.4487 36.8636 22.5938C36.8636 22.7388 36.8059 22.8779 36.7034 22.9804C36.6008 23.083 36.4617 23.1406 36.3167 23.1406H32.8818C32.7368 23.1406 32.5977 23.083 32.4951 22.9804C32.3926 22.8779 32.335 22.7388 32.335 22.5938C32.335 22.4487 32.3926 22.3096 32.4951 22.2071C32.5977 22.1045 32.7368 22.0469 32.8818 22.0469Z" stroke="#242527" stroke-width="0.2" mask="url(#path-1-outside-1_439_7706)"/>
<path d="M36.3167 27.0469H32.8818C32.7368 27.0469 32.5977 27.1045 32.4951 27.2071C32.3926 27.3096 32.335 27.4487 32.335 27.5938C32.335 27.7388 32.3926 27.8779 32.4951 27.9804C32.5977 28.083 32.7368 28.1406 32.8818 28.1406H36.3167C36.4617 28.1406 36.6008 28.083 36.7034 27.9804C36.8059 27.8779 36.8636 27.7388 36.8636 27.5938C36.8636 27.4487 36.8059 27.3096 36.7034 27.2071C36.6008 27.1045 36.4617 27.0469 36.3167 27.0469Z" stroke="#242527" stroke-width="0.2" mask="url(#path-1-outside-1_439_7706)"/>
<path d="M32.8818 32.0469H36.3167C36.4617 32.0469 36.6008 32.1045 36.7034 32.2071C36.8059 32.3096 36.8636 32.4487 36.8636 32.5938C36.8636 32.7388 36.8059 32.8779 36.7034 32.9804C36.6008 33.083 36.4617 33.1406 36.3167 33.1406H32.8818C32.7368 33.1406 32.5977 33.083 32.4951 32.9804C32.3926 32.8779 32.335 32.7388 32.335 32.5938C32.335 32.4487 32.3926 32.3096 32.4951 32.2071C32.5977 32.1045 32.7368 32.0469 32.8818 32.0469Z" stroke="#242527" stroke-width="0.2" mask="url(#path-1-outside-1_439_7706)"/>
<path fill-rule="evenodd" clip-rule="evenodd" d="M36.9466 16.5003H35.0005C34.8897 16.099 34.6512 15.7447 34.3211 15.491C33.9911 15.2373 33.5874 15.098 33.1711 15.094H31.0938V10.014C31.0961 9.91901 31.0731 9.82506 31.0272 9.74184C30.9812 9.65862 30.914 9.58911 30.8323 9.54044L16.1779 1.07623C16.0953 1.02822 16.0015 1.00293 15.9059 1.00293C15.8104 1.00293 15.7166 1.02822 15.634 1.07623L0.975005 9.54044C0.892061 9.58852 0.823256 9.65762 0.775525 9.74076C0.727794 9.82391 0.702824 9.91817 0.703128 10.014V26.9426C0.703133 27.0385 0.728403 27.1328 0.776401 27.216C0.824399 27.2991 0.893435 27.3681 0.976568 27.4161L15.637 35.8804C15.7202 35.9284 15.8145 35.9536 15.9105 35.9536C16.009 35.9537 16.1058 35.9285 16.1917 35.8804L23.9063 31.4306V34.6473C23.9055 34.9536 23.9654 35.2569 24.0827 35.5399C24.1999 35.8228 24.3721 36.0797 24.5893 36.2956C24.8065 36.5115 25.0643 36.6822 25.3479 36.7978C25.6315 36.9134 25.9352 36.9716 26.2415 36.969H36.9466C37.2536 36.9719 37.5582 36.914 37.8427 36.7987C38.1273 36.6834 38.3863 36.5129 38.6047 36.2971C38.8232 36.0813 38.9968 35.8245 39.1156 35.5414C39.2344 35.2582 39.296 34.9544 39.2969 34.6473V18.8583C39.2965 18.2343 39.049 17.6359 38.6085 17.194C38.1681 16.7521 37.5705 16.5027 36.9466 16.5003ZM33.1905 16.1878C33.4011 16.1878 33.603 16.2714 33.7519 16.4203C33.9007 16.5692 33.9844 16.7711 33.9844 16.9816V17.0346C33.9844 17.2451 33.9007 17.447 33.7519 17.5959C33.603 17.7448 33.4011 17.8284 33.1905 17.8284H30.0126C29.802 17.8284 29.6001 17.7448 29.4513 17.5959C29.3024 17.447 29.2188 17.2451 29.2188 17.0346V16.9816C29.2188 16.7711 29.3024 16.5692 29.4513 16.4203C29.6001 16.2714 29.802 16.1878 30.0126 16.1878H33.1905ZM15.9105 2.1813L22.0022 5.69833L8.43641 13.5305L2.34477 10.0135L15.9105 2.1813ZM15.3906 34.4595L1.79688 26.6268V10.9601L15.3906 18.7928V34.4595ZM15.9105 17.8456L9.53016 14.1619L23.0959 6.32982L29.4766 10.0135L15.9105 17.8456ZM23.9063 18.8583V30.1677L16.4844 34.4595V18.7928L30 10.9601V15.094H30.017C29.6007 15.0979 29.197 15.2373 28.8669 15.491C28.5368 15.7447 28.2983 16.099 28.1875 16.5003H26.2415C25.6191 16.5033 25.0235 16.7534 24.5855 17.1956C24.1476 17.6378 23.9032 18.2359 23.9063 18.8583ZM38.2031 34.6473C38.2024 34.8108 38.1692 34.9725 38.1054 35.123C38.0416 35.2735 37.9486 35.4099 37.8317 35.5241C37.7147 35.6384 37.5763 35.7282 37.4244 35.7885C37.2724 35.8488 37.11 35.8783 36.9466 35.8753H26.2415C26.0788 35.878 25.9173 35.8482 25.7663 35.7877C25.6153 35.7271 25.478 35.637 25.3623 35.5226C25.2467 35.4082 25.155 35.2718 25.0928 35.1215C25.0306 34.9712 24.999 34.81 25 34.6473V18.8583C24.9984 18.6937 25.0292 18.5304 25.0907 18.3778C25.1522 18.2251 25.2433 18.0861 25.3586 17.9687C25.4739 17.8513 25.6112 17.7577 25.7627 17.6934C25.9142 17.6292 26.0769 17.5954 26.2415 17.594H28.2088C28.3261 17.9811 28.5657 18.3198 28.8917 18.5592C29.2177 18.7987 29.6125 18.926 30.017 18.9222H33.1711C33.5756 18.926 33.9704 18.7987 34.2963 18.5592C34.6223 18.3198 34.8619 17.9811 34.9791 17.594H36.9466C37.2805 17.5961 37.6001 17.7303 37.8355 17.9671C38.0709 18.204 38.2031 18.5243 38.2031 18.8583V34.6473Z" stroke="#242527" stroke-width="0.2" mask="url(#path-1-outside-1_439_7706)"/>
</svg>
