<svg width="40" height="40" viewBox="0 0 40 40" fill="none" xmlns="http://www.w3.org/2000/svg">
<path fill-rule="evenodd" clip-rule="evenodd" d="M20 39.5006C19.9056 39.5006 19.811 39.4827 19.7214 39.4469L0.971411 31.9469C0.686718 31.833 0.5 31.5572 0.5 31.2506V10.0116L0.500376 10.0042L0.502685 9.96217L0.505158 9.91998L0.505688 9.91164C0.536141 9.65634 0.695972 9.43151 0.932883 9.32092L19.6827 0.570995C19.8839 0.477195 20.1162 0.477202 20.3173 0.570973L39.0672 9.32093C39.304 9.43148 39.4637 9.65602 39.4943 9.91098L39.4948 9.91968L39.4973 9.96234L39.4996 10.0046L39.5 10.0118V31.2506C39.5 35.7992 35.7986 39.5006 31.25 39.5006C29.1969 39.5006 27.3172 38.7469 25.8712 37.5007L25.6411 37.3024L20.2784 39.447C20.1891 39.4827 20.0946 39.5006 20 39.5006ZM36.8629 9.94761L20 2.07819L12.4684 5.59288L29.5905 12.8566L36.8629 9.94761ZM2 30.7428L19.25 37.6428V18.0083L2 11.1083V30.7428ZM3.13698 9.94761L20 16.6928L27.6135 13.6474L10.6395 6.44646L3.13698 9.94761ZM20.9248 37.573L24.566 36.1168L24.249 35.6096C23.8873 35.0309 23.5952 34.4046 23.3848 33.7422C23.1349 32.9559 23 32.1189 23 31.2506C23 27.0426 26.1677 23.5598 30.2434 23.0617C30.5734 23.0213 30.9093 23.0006 31.25 23.0006C33.5557 23.0006 35.6431 23.9514 37.1427 25.4833L38 26.3591V11.1083L37.8916 11.1517L20.75 18.0083V37.6429L20.9248 37.573ZM24.5359 31.9496C24.8867 35.3447 27.7636 38.0006 31.25 38.0006C34.9724 38.0006 38 34.973 38 31.2506C38 27.5282 34.9724 24.5006 31.25 24.5006C30.4958 24.5006 29.7702 24.6249 29.0924 24.854C26.4251 25.7559 24.5 28.2824 24.5 31.2506C24.5 31.4866 24.5122 31.7198 24.5359 31.9496ZM33.6553 29.9053L32.3107 31.25L33.6553 32.5946C33.9483 32.8875 33.9483 33.3624 33.6553 33.6553C33.5088 33.8018 33.3178 33.875 33.125 33.875C32.9323 33.875 32.7413 33.8018 32.5948 33.6553L31.25 32.3106L29.9053 33.6553C29.7588 33.8018 29.5678 33.875 29.3751 33.875C29.1823 33.875 28.9913 33.8018 28.8448 33.6553C28.5518 33.3624 28.5518 32.8875 28.8448 32.5946L30.1894 31.25L28.8447 29.9052C28.5518 29.6123 28.5518 29.1375 28.8447 28.8445C29.1376 28.5517 29.6125 28.5517 29.9053 28.8445L31.25 30.1893L32.5947 28.8446C32.8876 28.5517 33.3625 28.5517 33.6553 28.8446C33.9483 29.1375 33.9483 29.6124 33.6553 29.9053Z" fill="#242527"/>
</svg>
