<svg width="40" height="40" viewBox="0 0 40 40" fill="none" xmlns="http://www.w3.org/2000/svg">
<path d="M23.6857 34.849L19.6771 36.8541L19.677 36.8541C19.5864 36.8993 19.4868 36.9235 19.3856 36.9249C19.2844 36.9264 19.1842 36.9051 19.0923 36.8626L23.6857 34.849ZM23.6857 34.849C24.1376 35.9046 24.8245 36.8435 25.6942 37.5939C26.5775 38.3559 27.6253 38.9029 28.7555 39.1919C29.8857 39.4809 31.0675 39.504 32.2082 39.2595C33.3488 39.015 34.4173 38.5094 35.3297 37.7825C36.2421 37.0556 36.9736 36.1272 37.4669 35.07C37.9601 34.0129 38.2017 32.8558 38.1726 31.6896C38.1435 30.5234 37.8445 29.3798 37.2991 28.3486C36.7577 27.3249 35.9881 26.4396 35.05 25.7611V8.75C35.05 8.62462 35.0151 8.50173 34.9492 8.39506C34.8834 8.28838 34.7892 8.20212 34.6771 8.14593L34.677 8.1459L19.677 0.6459L19.6769 0.645849C19.5863 0.600802 19.4868 0.57666 19.3856 0.5752C19.2844 0.57374 19.1842 0.595 19.0923 0.637412L2.84242 8.13737L23.6857 34.849ZM2.45 28.75C2.44986 28.8789 2.48676 29.0052 2.55632 29.1139C2.62587 29.2224 2.72514 29.3088 2.84233 29.3626C2.84236 29.3626 2.84239 29.3626 2.84242 29.3626L19.0923 36.8626L2.59843 8.41311C2.53403 8.51366 2.49986 8.63059 2.5 8.75H2.45L2.45 8.75005L2.45 28.75ZM2.45 28.75C2.45 28.75 2.45 28.7499 2.45 28.7499L2.5 28.75M2.45 28.75V28.75H2.5M2.5 28.75C2.49986 28.8694 2.53403 28.9863 2.59843 29.0869C2.66283 29.1874 2.75476 29.2674 2.86328 29.3172L2.5 28.75ZM18.7 35.1953V16.682L13.175 14.132V24.375C13.175 24.554 13.1039 24.7257 12.9773 24.8523C12.8507 24.9789 12.6791 25.05 12.5001 25.05C12.5001 25.05 12.5 25.05 12.5 25.05V25L18.7 35.1953ZM18.7 35.1953L3.8 28.318V9.80471L7.45 11.4898V22.5C7.45006 22.6321 7.48887 22.7612 7.5616 22.8715C7.63434 22.9817 7.73782 23.0682 7.85922 23.1202L12.234 24.9951L18.7 35.1953ZM7.68642 10.1119L4.73572 8.75L19.3632 1.99921L21.3454 2.98994L7.81365 10.0259L7.81354 10.026C7.76805 10.0498 7.72541 10.0786 7.68642 10.1119ZM25.7805 5.20711L12.5248 12.3449L9.21666 10.8184L22.8372 3.73581L25.7805 5.20711ZM8.8 12.1125L11.825 13.5086V23.3515L8.8 22.0545V12.1125ZM19.3632 15.5008L14.058 13.0528L27.2571 5.94539L32.8655 8.74999L19.3632 15.5008ZM23.4789 29.4417C23.0276 30.7655 22.9529 32.1884 23.2628 33.5518L20.05 35.1582V16.6668L33.7 9.84184V24.9804C32.435 24.4167 31.0388 24.2116 29.6642 24.3883C28.2639 24.5682 26.9421 25.1371 25.8488 26.0303C24.7555 26.9235 23.9345 28.1054 23.4789 29.4417ZM30.625 38.075C29.3988 38.075 28.2 37.7114 27.1805 37.0301C26.1609 36.3488 25.3662 35.3805 24.8969 34.2476C24.4277 33.1147 24.3049 31.8681 24.5441 30.6654C24.7834 29.4628 25.3739 28.358 26.2409 27.4909C27.108 26.6238 28.2128 26.0334 29.4154 25.7941C30.6181 25.5549 31.8647 25.6777 32.9976 26.1469C34.1305 26.6162 35.0988 27.4109 35.7801 28.4305C36.4614 29.45 36.825 30.6488 36.825 31.875C36.8231 33.5187 36.1693 35.0946 35.0069 36.2569C33.8446 37.4193 32.2687 38.0731 30.625 38.075Z" fill="#242527" stroke="#242527" stroke-width="0.1"/>
<path d="M33.2727 30.1477L30 33.4205L28.6023 32.0227C28.4757 31.8962 28.304 31.825 28.125 31.825C27.946 31.825 27.7743 31.8962 27.6477 32.0227C27.5211 32.1493 27.45 32.321 27.45 32.5001C27.45 32.6791 27.5211 32.8508 27.6477 32.9774L29.5227 34.8524C29.5854 34.915 29.6598 34.9648 29.7417 34.9987C29.8236 35.0326 29.9114 35.0501 30 35.0501C30.0887 35.0501 30.1764 35.0326 30.2583 34.9987C30.3402 34.9648 30.4146 34.915 30.4773 34.8524L34.2273 31.1024C34.29 31.0397 34.3397 30.9653 34.3737 30.8834C34.4076 30.8015 34.425 30.7137 34.425 30.6251C34.425 30.5364 34.4076 30.4486 34.3737 30.3667C34.3397 30.2848 34.29 30.2104 34.2273 30.1477C34.1646 30.0851 34.0902 30.0353 34.0083 30.0014C33.9264 29.9675 33.8387 29.95 33.75 29.95C33.6614 29.95 33.5736 29.9675 33.4917 30.0014C33.4098 30.0353 33.3354 30.0851 33.2727 30.1477Z" fill="#242527" stroke="#242527" stroke-width="0.1"/>
</svg>
