<svg width="40" height="40" viewBox="0 0 40 40" fill="none" xmlns="http://www.w3.org/2000/svg">
<g clip-path="url(#clip0_460_1804)">
<path fill-rule="evenodd" clip-rule="evenodd" d="M20 0C8.94602 0 0 8.945 0 20C0 31.0538 8.945 40 20 40C31.054 40 40 31.055 40 20C40 8.94602 31.055 0 20 0ZM20 37.2093C10.5108 37.2093 2.7907 29.4893 2.7907 20C2.7907 10.5107 10.5108 2.7907 20 2.7907C29.4893 2.7907 37.2093 10.5107 37.2093 20C37.2093 29.4893 29.4893 37.2093 20 37.2093ZM19.409 25.3066C18.3033 25.3066 17.4082 26.228 17.4082 27.3337C17.4082 28.4131 18.277 29.3609 19.409 29.3609C20.541 29.3609 21.436 28.4131 21.436 27.3337C21.436 26.228 20.5146 25.3066 19.409 25.3066ZM14.5645 13.4863C14.5645 12.0647 16.1966 9.95853 19.7507 9.95853C23.1204 9.95853 25.3581 11.8277 25.3581 14.3023C25.3581 16.7769 23.1204 18.5671 22.4096 19.1199C20.9617 20.252 20.9353 21.0417 20.9353 22.4106C20.9353 22.9109 20.6721 23.4901 19.3821 23.4901C18.3028 23.4901 17.9342 23.0952 17.9342 21.7263C17.9342 19.4622 18.9345 18.3827 19.6981 17.7247C19.856 17.5907 20.0339 17.4541 20.2193 17.3118C21.054 16.6709 22.0411 15.9131 22.0411 14.7499C22.0411 13.5389 20.988 12.9597 19.6717 12.9597C18.1174 12.9597 17.6568 13.6389 17.2689 14.211C16.9866 14.6273 16.7427 14.9869 16.144 14.9869C15.4332 14.9869 14.5645 14.513 14.5645 13.4863Z" fill="#242527"/>
<path d="M22.4096 19.1199L22.1027 18.7253L22.1017 18.726L22.4096 19.1199ZM19.6981 17.7247L19.3746 17.3434L19.3716 17.346L19.6981 17.7247ZM20.2193 17.3118L19.9148 16.9152L19.9148 16.9152L20.2193 17.3118ZM17.2689 14.211L17.6827 14.4916L17.2689 14.211ZM0.5 20C0.5 9.22116 9.22214 0.5 20 0.5V-0.5C8.66989 -0.5 -0.5 8.66884 -0.5 20H0.5ZM20 39.5C9.22116 39.5 0.5 30.7777 0.5 20H-0.5C-0.5 31.33 8.66884 40.5 20 40.5V39.5ZM39.5 20C39.5 30.7788 30.7779 39.5 20 39.5V40.5C31.3301 40.5 40.5 31.3312 40.5 20H39.5ZM20 0.5C30.7788 0.5 39.5 9.22214 39.5 20H40.5C40.5 8.66989 31.3312 -0.5 20 -0.5V0.5ZM2.2907 20C2.2907 29.7654 10.2346 37.7093 20 37.7093V36.7093C10.7869 36.7093 3.2907 29.2132 3.2907 20H2.2907ZM20 2.2907C10.2346 2.2907 2.2907 10.2346 2.2907 20H3.2907C3.2907 10.7868 10.7869 3.2907 20 3.2907V2.2907ZM37.7093 20C37.7093 10.2346 29.7654 2.2907 20 2.2907V3.2907C29.2132 3.2907 36.7093 10.7868 36.7093 20H37.7093ZM20 37.7093C29.7654 37.7093 37.7093 29.7654 37.7093 20H36.7093C36.7093 29.2132 29.2132 36.7093 20 36.7093V37.7093ZM17.9082 27.3337C17.9082 26.4957 18.5879 25.8066 19.409 25.8066V24.8066C18.0187 24.8066 16.9082 25.9604 16.9082 27.3337H17.9082ZM19.409 28.8609C18.5699 28.8609 17.9082 28.1541 17.9082 27.3337H16.9082C16.9082 28.6721 17.984 29.8609 19.409 29.8609V28.8609ZM20.936 27.3337C20.936 28.1455 20.2565 28.8609 19.409 28.8609V29.8609C20.8256 29.8609 21.936 28.6808 21.936 27.3337H20.936ZM19.409 25.8066C20.2385 25.8066 20.936 26.5042 20.936 27.3337H21.936C21.936 25.9519 20.7908 24.8066 19.409 24.8066V25.8066ZM19.7507 9.45853C16.014 9.45853 14.0645 11.7035 14.0645 13.4863H15.0645C15.0645 12.4259 16.3793 10.4585 19.7507 10.4585V9.45853ZM25.8581 14.3023C25.8581 11.4491 23.2815 9.45853 19.7507 9.45853V10.4585C22.9593 10.4585 24.8581 12.2062 24.8581 14.3023H25.8581ZM22.7166 19.5146C23.079 19.2327 23.8562 18.6165 24.5437 17.7405C25.2297 16.8665 25.8581 15.6935 25.8581 14.3023H24.8581C24.8581 15.3856 24.3676 16.3451 23.7571 17.1231C23.1481 17.8991 22.451 18.4543 22.1027 18.7253L22.7166 19.5146ZM21.4353 22.4106C21.4353 21.7107 21.447 21.2617 21.5988 20.849C21.7432 20.4563 22.0368 20.046 22.7176 19.5138L22.1017 18.726C21.3345 19.3258 20.891 19.8765 20.6602 20.5039C20.4368 21.1113 20.4353 21.7417 20.4353 22.4106H21.4353ZM19.3821 23.9901C20.0912 23.9901 20.6237 23.8322 20.9796 23.5072C21.3451 23.1735 21.4353 22.7462 21.4353 22.4106H20.4353C20.4353 22.5754 20.3939 22.6878 20.3053 22.7687C20.2071 22.8584 19.963 22.9901 19.3821 22.9901V23.9901ZM17.4342 21.7263C17.4342 22.4207 17.5195 23.0259 17.8709 23.4434C18.2463 23.8897 18.8053 23.9901 19.3821 23.9901V22.9901C18.8796 22.9901 18.7147 22.8931 18.636 22.7996C18.5333 22.6775 18.4342 22.4007 18.4342 21.7263H17.4342ZM19.3716 17.346C18.968 17.6939 18.4769 18.1742 18.0906 18.8843C17.7026 19.5975 17.4342 20.5163 17.4342 21.7263H18.4342C18.4342 20.6721 18.666 19.9192 18.969 19.3622C19.2738 18.802 19.6646 18.4136 20.0245 18.1034L19.3716 17.346ZM19.9148 16.9152C19.7317 17.0558 19.5436 17.2001 19.3746 17.3434L20.0215 18.106C20.1684 17.9814 20.3361 17.8525 20.5238 17.7084L19.9148 16.9152ZM21.5411 14.7499C21.5411 15.1764 21.3641 15.5462 21.0615 15.9038C20.7511 16.2707 20.3404 16.5885 19.9148 16.9152L20.5238 17.7084C20.933 17.3942 21.4331 17.0127 21.8249 16.5497C22.2246 16.0773 22.5411 15.4867 22.5411 14.7499H21.5411ZM19.6717 13.4597C20.2661 13.4597 20.7478 13.5919 21.0654 13.8118C21.3618 14.017 21.5411 14.3127 21.5411 14.7499H22.5411C22.5411 13.9761 22.1938 13.3767 21.6346 12.9896C21.0967 12.6171 20.3936 12.4597 19.6717 12.4597V13.4597ZM17.6827 14.4916C17.8799 14.2008 18.0444 13.9661 18.3124 13.7854C18.5704 13.6115 18.9708 13.4597 19.6717 13.4597V12.4597C18.8183 12.4597 18.2114 12.6475 17.7534 12.9562C17.3056 13.2582 17.0458 13.6491 16.8551 13.9304L17.6827 14.4916ZM16.144 15.4869C16.5599 15.4869 16.8835 15.3563 17.1443 15.1399C17.3803 14.9441 17.5509 14.6861 17.6827 14.4916L16.8551 13.9304C16.7046 14.1523 16.6121 14.2821 16.5059 14.3702C16.4245 14.4377 16.3268 14.4869 16.144 14.4869V15.4869ZM14.0645 13.4863C14.0645 14.1579 14.3557 14.6736 14.7738 15.0108C15.1782 15.3369 15.6871 15.4869 16.144 15.4869V14.4869C15.8901 14.4869 15.6093 14.3999 15.4016 14.2324C15.2076 14.0759 15.0645 13.8413 15.0645 13.4863H14.0645Z" fill="white"/>
</g>
<defs>
<clipPath id="clip0_460_1804">
<rect width="40" height="40" fill="white"/>
</clipPath>
</defs>
</svg>
