<svg width="40" height="40" viewBox="0 0 40 40" fill="none" xmlns="http://www.w3.org/2000/svg">
<g clip-path="url(#clip0_460_1995)">
<path fill-rule="evenodd" clip-rule="evenodd" d="M35.4166 35C37.9449 35 40 32.9449 40 30.4166V9.58344C40 7.05505 37.9449 5 35.4166 5H4.58344C2.05505 5 0 7.05505 0 9.58344V30.4166C0 32.9449 2.05505 35 4.58344 35H35.4166ZM2.5 9.58344C2.5 8.43506 3.43506 7.5 4.58344 7.5H35.4166C36.5649 7.5 37.5 8.43506 37.5 9.58344V30.4166C37.5 31.5649 36.5649 32.5 35.4166 32.5H4.58344C3.43506 32.5 2.5 31.5649 2.5 30.4166V9.58344ZM8.33203 15.8334C8.33203 18.1299 10.2018 20 12.4986 20C14.7953 20 16.6652 18.1299 16.6652 15.8334C16.6652 13.5367 14.7953 11.6665 12.4986 11.6665C10.2018 11.6665 8.33203 13.5367 8.33203 15.8334ZM10.832 15.8334C10.832 14.9148 11.5803 14.1665 12.4986 14.1665C13.4169 14.1665 14.1652 14.9148 14.1652 15.8334C14.1652 16.7517 13.4169 17.5 12.4986 17.5C11.5803 17.5 10.832 16.7517 10.832 15.8334ZM18.75 28.3334C18.06 28.3334 17.5 27.7734 17.5 27.0834V26.25C17.5 25.1016 16.5649 24.1665 15.4166 24.1665H9.58344C8.43506 24.1665 7.5 25.1016 7.5 26.25V27.0834C7.5 27.7734 6.94 28.3334 6.25 28.3334C5.56 28.3334 5 27.7734 5 27.0834V26.25C5 23.7216 7.05505 21.6665 9.58344 21.6665H15.4166C17.9449 21.6665 20 23.7216 20 26.25V27.0834C20 27.7734 19.44 28.3334 18.75 28.3334ZM24.582 15H33.7486C34.4386 15 34.9986 14.44 34.9986 13.75C34.9986 13.06 34.4386 12.5 33.7486 12.5H24.582C23.892 12.5 23.332 13.06 23.332 13.75C23.332 14.44 23.892 15 24.582 15ZM33.7486 21.6665H24.582C23.892 21.6665 23.332 21.1065 23.332 20.4165C23.332 19.7265 23.892 19.1665 24.582 19.1665H33.7486C34.4386 19.1665 34.9986 19.7265 34.9986 20.4165C34.9986 21.1065 34.4386 21.6665 33.7486 21.6665ZM24.582 28.3335H33.7486C34.4386 28.3335 34.9986 27.7735 34.9986 27.0835C34.9986 26.3935 34.4386 25.8335 33.7486 25.8335H24.582C23.892 25.8335 23.332 26.3935 23.332 27.0835C23.332 27.7735 23.892 28.3335 24.582 28.3335Z" fill="#242527"/>
<path d="M39.5 30.4166C39.5 32.6688 37.6688 34.5 35.4166 34.5V35.5C38.2211 35.5 40.5 33.2211 40.5 30.4166H39.5ZM39.5 9.58344V30.4166H40.5V9.58344H39.5ZM35.4166 5.5C37.6688 5.5 39.5 7.3312 39.5 9.58344H40.5C40.5 6.77891 38.2211 4.5 35.4166 4.5V5.5ZM4.58344 5.5H35.4166V4.5H4.58344V5.5ZM0.5 9.58344C0.5 7.3312 2.3312 5.5 4.58344 5.5V4.5C1.77891 4.5 -0.5 6.77891 -0.5 9.58344H0.5ZM0.5 30.4166V9.58344H-0.5V30.4166H0.5ZM4.58344 34.5C2.3312 34.5 0.5 32.6688 0.5 30.4166H-0.5C-0.5 33.2211 1.77891 35.5 4.58344 35.5V34.5ZM35.4166 34.5H4.58344V35.5H35.4166V34.5ZM4.58344 7C3.15892 7 2 8.15892 2 9.58344H3C3 8.7112 3.7112 8 4.58344 8V7ZM35.4166 7H4.58344V8H35.4166V7ZM38 9.58344C38 8.15892 36.8411 7 35.4166 7V8C36.2888 8 37 8.7112 37 9.58344H38ZM38 30.4166V9.58344H37V30.4166H38ZM35.4166 33C36.8411 33 38 31.8411 38 30.4166H37C37 31.2888 36.2888 32 35.4166 32V33ZM4.58344 33H35.4166V32H4.58344V33ZM2 30.4166C2 31.8411 3.15892 33 4.58344 33V32C3.7112 32 3 31.2888 3 30.4166H2ZM2 9.58344V30.4166H3V9.58344H2ZM12.4986 19.5C10.478 19.5 8.83203 17.8537 8.83203 15.8334H7.83203C7.83203 18.406 9.92568 20.5 12.4986 20.5V19.5ZM16.1652 15.8334C16.1652 17.8537 14.5192 19.5 12.4986 19.5V20.5C15.0715 20.5 17.1652 18.406 17.1652 15.8334H16.1652ZM12.4986 12.1665C14.5192 12.1665 16.1652 13.8127 16.1652 15.8334H17.1652C17.1652 13.2606 15.0715 11.1665 12.4986 11.1665V12.1665ZM8.83203 15.8334C8.83203 13.8127 10.478 12.1665 12.4986 12.1665V11.1665C9.92565 11.1665 7.83203 13.2606 7.83203 15.8334H8.83203ZM12.4986 13.6665C11.3041 13.6665 10.332 14.6387 10.332 15.8334H11.332C11.332 15.1909 11.8565 14.6665 12.4986 14.6665V13.6665ZM14.6652 15.8334C14.6652 14.6387 13.6931 13.6665 12.4986 13.6665V14.6665C13.1407 14.6665 13.6652 15.1909 13.6652 15.8334H14.6652ZM12.4986 18C13.693 18 14.6652 17.0278 14.6652 15.8334H13.6652C13.6652 16.4755 13.1407 17 12.4986 17V18ZM10.332 15.8334C10.332 17.0278 11.3042 18 12.4986 18V17C11.8565 17 11.332 16.4755 11.332 15.8334H10.332ZM17 27.0834C17 28.0495 17.7839 28.8334 18.75 28.8334V27.8334C18.3361 27.8334 18 27.4973 18 27.0834H17ZM17 26.25V27.0834H18V26.25H17ZM15.4166 24.6665C16.2888 24.6665 17 25.3777 17 26.25H18C18 24.8255 16.8411 23.6665 15.4166 23.6665V24.6665ZM9.58344 24.6665H15.4166V23.6665H9.58344V24.6665ZM8 26.25C8 25.3777 8.7112 24.6665 9.58344 24.6665V23.6665C8.15892 23.6665 7 24.8255 7 26.25H8ZM8 27.0834V26.25H7V27.0834H8ZM6.25 28.8334C7.21615 28.8334 8 28.0495 8 27.0834H7C7 27.4973 6.66386 27.8334 6.25 27.8334V28.8334ZM4.5 27.0834C4.5 28.0495 5.28385 28.8334 6.25 28.8334V27.8334C5.83614 27.8334 5.5 27.4973 5.5 27.0834H4.5ZM4.5 26.25V27.0834H5.5V26.25H4.5ZM9.58344 21.1665C6.77891 21.1665 4.5 23.4454 4.5 26.25H5.5C5.5 23.9977 7.3312 22.1665 9.58344 22.1665V21.1665ZM15.4166 21.1665H9.58344V22.1665H15.4166V21.1665ZM20.5 26.25C20.5 23.4454 18.2211 21.1665 15.4166 21.1665V22.1665C17.6688 22.1665 19.5 23.9977 19.5 26.25H20.5ZM20.5 27.0834V26.25H19.5V27.0834H20.5ZM18.75 28.8334C19.7161 28.8334 20.5 28.0495 20.5 27.0834H19.5C19.5 27.4973 19.1639 27.8334 18.75 27.8334V28.8334ZM33.7486 14.5H24.582V15.5H33.7486V14.5ZM34.4986 13.75C34.4986 14.1639 34.1625 14.5 33.7486 14.5V15.5C34.7147 15.5 35.4986 14.7161 35.4986 13.75H34.4986ZM33.7486 13C34.1625 13 34.4986 13.3361 34.4986 13.75H35.4986C35.4986 12.7839 34.7147 12 33.7486 12V13ZM24.582 13H33.7486V12H24.582V13ZM23.832 13.75C23.832 13.3361 24.1682 13 24.582 13V12C23.6159 12 22.832 12.7839 22.832 13.75H23.832ZM24.582 14.5C24.1682 14.5 23.832 14.1639 23.832 13.75H22.832C22.832 14.7161 23.6159 15.5 24.582 15.5V14.5ZM24.582 22.1665H33.7486V21.1665H24.582V22.1665ZM22.832 20.4165C22.832 21.3827 23.6159 22.1665 24.582 22.1665V21.1665C24.1682 21.1665 23.832 20.8304 23.832 20.4165H22.832ZM24.582 18.6665C23.6159 18.6665 22.832 19.4504 22.832 20.4165H23.832C23.832 20.0027 24.1682 19.6665 24.582 19.6665V18.6665ZM33.7486 18.6665H24.582V19.6665H33.7486V18.6665ZM35.4986 20.4165C35.4986 19.4504 34.7147 18.6665 33.7486 18.6665V19.6665C34.1625 19.6665 34.4986 20.0027 34.4986 20.4165H35.4986ZM33.7486 22.1665C34.7147 22.1665 35.4986 21.3827 35.4986 20.4165H34.4986C34.4986 20.8304 34.1625 21.1665 33.7486 21.1665V22.1665ZM33.7486 27.8335H24.582V28.8335H33.7486V27.8335ZM34.4986 27.0835C34.4986 27.4973 34.1625 27.8335 33.7486 27.8335V28.8335C34.7147 28.8335 35.4986 28.0496 35.4986 27.0835H34.4986ZM33.7486 26.3335C34.1625 26.3335 34.4986 26.6696 34.4986 27.0835H35.4986C35.4986 26.1173 34.7147 25.3335 33.7486 25.3335V26.3335ZM24.582 26.3335H33.7486V25.3335H24.582V26.3335ZM23.832 27.0835C23.832 26.6696 24.1682 26.3335 24.582 26.3335V25.3335C23.6159 25.3335 22.832 26.1173 22.832 27.0835H23.832ZM24.582 27.8335C24.1682 27.8335 23.832 27.4973 23.832 27.0835H22.832C22.832 28.0496 23.6159 28.8335 24.582 28.8335V27.8335Z" fill="white"/>
</g>
<defs>
<clipPath id="clip0_460_1995">
<rect width="40" height="40" fill="white"/>
</clipPath>
</defs>
</svg>
