<svg width="40" height="40" viewBox="0 0 40 40" fill="none" xmlns="http://www.w3.org/2000/svg">
<g clip-path="url(#clip0_460_1794)">
<path fill-rule="evenodd" clip-rule="evenodd" d="M19.578 7.10938H36.4844C38.4229 7.10938 40 8.68648 40 10.625V36.4844C40 38.4229 38.4229 40 36.4844 40H17.3816C15.6118 40 14.1121 38.6726 13.893 36.9205L13.3971 32.8906H3.51562C1.57711 32.8906 0 31.3135 0 29.375V3.51562C0 1.57711 1.57711 0 3.51562 0H15.5873C17.3566 0 18.8563 1.32391 19.0757 3.07953L19.578 7.10938ZM2.34375 29.375C2.34375 30.0212 2.86945 30.5469 3.51562 30.5469H20.1378L16.75 3.36984C16.677 2.785 16.177 2.34375 15.5873 2.34375H3.51562C2.86945 2.34375 2.34375 2.86945 2.34375 3.51562V29.375ZM15.7585 32.8906L16.1503 36.0742L18.9026 32.8906H15.7585ZM36.4844 37.6562C37.1305 37.6562 37.6562 37.1305 37.6562 36.4844V10.625C37.6562 9.97883 37.1305 9.45312 36.4844 9.45312H19.8702L22.6255 31.5565C22.6727 31.8963 22.5704 32.2383 22.342 32.4959L17.8808 37.6562H36.4844ZM15.2898 20.9421L12.9461 9.22328C12.8366 8.67555 12.3556 8.28125 11.797 8.28125H9.45329C8.8947 8.28125 8.41369 8.67555 8.30423 9.22328L5.96049 20.9421C5.83354 21.5768 6.24518 22.1941 6.87978 22.321C7.51439 22.4479 8.13181 22.0363 8.25869 21.4017L9.00775 17.6563H12.2426L12.9916 21.4017C13.1186 22.0367 13.7363 22.448 14.3706 22.3211C15.0052 22.1941 15.4168 21.5767 15.2898 20.9421ZM9.4765 15.3125L10.414 10.625H10.8363L11.7738 15.3125H9.4765ZM34.0625 17.6563H30.5469V16.4844C30.5469 15.8372 30.0222 15.3125 29.375 15.3125C28.7278 15.3125 28.2031 15.8372 28.2031 16.4844V17.6563H24.6875C24.0403 17.6563 23.5156 18.1809 23.5156 18.8281C23.5156 19.4753 24.0403 20 24.6875 20H24.9711C25.6388 22.1572 26.6441 23.813 27.7504 25.1399C27.074 25.7585 26.3916 26.2936 25.7499 26.7967L25.7499 26.7967L25.7498 26.7968C25.5373 26.9634 25.3292 27.1266 25.1273 27.2881C24.622 27.6924 24.54 28.4298 24.9444 28.9352C25.3489 29.4408 26.0864 29.5223 26.5915 29.1182C26.7862 28.9624 26.9901 28.8025 27.2012 28.637L27.2016 28.6366L27.2017 28.6366C27.8753 28.1084 28.622 27.523 29.375 26.8319C30.1285 27.5234 30.8762 28.1096 31.5492 28.6373C31.7604 28.8029 31.9642 28.9627 32.1585 29.1182C32.6639 29.5225 33.4014 29.4405 33.8056 28.9352C34.2099 28.4298 34.128 27.6923 33.6227 27.2881C33.4204 27.1262 33.2117 26.9626 32.9984 26.7953L32.9983 26.7953C32.3579 26.2932 31.6757 25.7582 30.9996 25.1399C32.1059 23.813 33.1112 22.1572 33.7789 20H34.0625C34.7097 20 35.2344 19.4753 35.2344 18.8281C35.2344 18.1809 34.7097 17.6563 34.0625 17.6563ZM29.375 23.4176C28.627 22.4785 27.954 21.3577 27.4466 19.9922H31.3033C30.796 21.3577 30.123 22.4785 29.375 23.4176Z" fill="#242527"/>
<path d="M19.578 7.10938L19.0819 7.17122L19.1365 7.60938H19.578V7.10938ZM13.893 36.9205L13.3968 36.9815L13.3969 36.9825L13.893 36.9205ZM13.3971 32.8906L13.8934 32.8296L13.8393 32.3906H13.3971V32.8906ZM19.0757 3.07953L19.5719 3.01768L19.5718 3.01751L19.0757 3.07953ZM20.1378 30.5469V31.0469H20.704L20.634 30.485L20.1378 30.5469ZM16.75 3.36984L17.2462 3.30799L17.2461 3.30787L16.75 3.36984ZM16.1503 36.0742L15.6541 36.1353L15.7917 37.2536L16.5286 36.4012L16.1503 36.0742ZM15.7585 32.8906V32.3906H15.1932L15.2623 32.9517L15.7585 32.8906ZM18.9026 32.8906L19.2808 33.2176L19.9958 32.3906H18.9026V32.8906ZM19.8702 9.45312V8.95312H19.304L19.3741 9.51497L19.8702 9.45312ZM22.6255 31.5565L22.1293 31.6183L22.1303 31.6252L22.6255 31.5565ZM22.342 32.4959L21.9679 32.1641L21.9638 32.1689L22.342 32.4959ZM17.8808 37.6562L17.5025 37.3293L16.7876 38.1562H17.8808V37.6562ZM12.9461 9.22328L12.4558 9.32126L12.4558 9.32134L12.9461 9.22328ZM15.2898 20.9421L14.7996 21.0402L14.7996 21.0402L15.2898 20.9421ZM8.30423 9.22328L8.79453 9.32134L8.79454 9.32126L8.30423 9.22328ZM5.96049 20.9421L6.45078 21.0401L6.45078 21.0401L5.96049 20.9421ZM6.87978 22.321L6.97787 21.8307L6.97781 21.8307L6.87978 22.321ZM8.25869 21.4017L7.7684 21.3036L7.76839 21.3036L8.25869 21.4017ZM9.00775 17.6563V17.1563H8.59784L8.51746 17.5582L9.00775 17.6563ZM12.2426 17.6563L12.7329 17.5582L12.6525 17.1563H12.2426V17.6563ZM12.9916 21.4017L13.4819 21.3037L13.4819 21.3037L12.9916 21.4017ZM14.3706 22.3211L14.2725 21.8308L14.2724 21.8308L14.3706 22.3211ZM10.414 10.625V10.125H10.0041L9.92371 10.5269L10.414 10.625ZM9.4765 15.3125L8.98621 15.2145L8.8666 15.8125H9.4765V15.3125ZM10.8363 10.625L11.3266 10.5269L11.2462 10.125H10.8363V10.625ZM11.7738 15.3125V15.8125H12.3837L12.2641 15.2145L11.7738 15.3125ZM30.5469 17.6563H30.0469V18.1563H30.5469V17.6563ZM28.2031 17.6563V18.1563H28.7031V17.6563H28.2031ZM24.9711 20L25.4487 19.8522L25.3397 19.5H24.9711V20ZM27.7504 25.1399L28.0879 25.5088L28.4402 25.1865L28.1344 24.8197L27.7504 25.1399ZM25.7499 26.7967L26.05 27.1968L26.0584 27.1902L25.7499 26.7967ZM25.7499 26.7967L25.4498 26.3966L25.4401 26.4043L25.7499 26.7967ZM25.7498 26.7968L26.0583 27.1903L26.0596 27.1893L25.7498 26.7968ZM25.1273 27.2881L24.815 26.8976L24.815 26.8976L25.1273 27.2881ZM24.9444 28.9352L25.3348 28.6228L25.3348 28.6228L24.9444 28.9352ZM26.5915 29.1182L26.2791 28.7277L26.2791 28.7278L26.5915 29.1182ZM27.2012 28.637L26.8928 28.2434L26.8927 28.2435L27.2012 28.637ZM27.2016 28.6366L26.8979 28.2394L26.8932 28.2431L27.2016 28.6366ZM27.2017 28.6366L27.5055 29.0338L27.5103 29.03L27.2017 28.6366ZM29.375 26.8319L29.7131 26.4635L29.375 26.1533L29.0369 26.4635L29.375 26.8319ZM31.5492 28.6373L31.8577 28.2438L31.5492 28.6373ZM32.1585 29.1182L32.4709 28.7277L32.4709 28.7277L32.1585 29.1182ZM33.8056 28.9352L33.4152 28.6228L33.4152 28.6229L33.8056 28.9352ZM33.6227 27.2881L33.3103 27.6785L33.3103 27.6785L33.6227 27.2881ZM32.9984 26.7953L32.6783 27.1794L32.684 27.1842L32.6899 27.1888L32.9984 26.7953ZM32.9983 26.7953L33.3184 26.4112L33.3127 26.4064L33.3069 26.4018L32.9983 26.7953ZM30.9996 25.1399L30.6156 24.8197L30.3098 25.1865L30.6622 25.5088L30.9996 25.1399ZM33.7789 20V19.5H33.4103L33.3013 19.8522L33.7789 20ZM27.4466 19.9922V19.4922H26.7275L26.9779 20.1663L27.4466 19.9922ZM29.375 23.4176L28.9839 23.7291L29.375 24.2201L29.7661 23.7291L29.375 23.4176ZM31.3033 19.9922L31.772 20.1663L32.0224 19.4922H31.3033V19.9922ZM36.4844 6.60938H19.578V7.60938H36.4844V6.60938ZM40.5 10.625C40.5 8.41034 38.699 6.60938 36.4844 6.60938V7.60938C38.1467 7.60938 39.5 8.96263 39.5 10.625H40.5ZM40.5 36.4844V10.625H39.5V36.4844H40.5ZM36.4844 40.5C38.699 40.5 40.5 38.699 40.5 36.4844H39.5C39.5 38.1467 38.1467 39.5 36.4844 39.5V40.5ZM17.3816 40.5H36.4844V39.5H17.3816V40.5ZM13.3969 36.9825C13.6472 38.9845 15.3593 40.5 17.3816 40.5V39.5C15.8643 39.5 14.577 38.3607 14.3892 36.8584L13.3969 36.9825ZM12.9009 32.9517L13.3968 36.9815L14.3893 36.8594L13.8934 32.8296L12.9009 32.9517ZM3.51562 33.3906H13.3971V32.3906H3.51562V33.3906ZM-0.5 29.375C-0.5 31.5897 1.30097 33.3906 3.51562 33.3906V32.3906C1.85325 32.3906 0.5 31.0374 0.5 29.375H-0.5ZM-0.5 3.51562V29.375H0.5V3.51562H-0.5ZM3.51562 -0.5C1.30097 -0.5 -0.5 1.30097 -0.5 3.51562H0.5C0.5 1.85325 1.85325 0.5 3.51562 0.5V-0.5ZM15.5873 -0.5H3.51562V0.5H15.5873V-0.5ZM19.5718 3.01751C19.3211 1.01168 17.6087 -0.5 15.5873 -0.5V0.5C17.1044 0.5 18.3914 1.63614 18.5796 3.14155L19.5718 3.01751ZM20.0742 7.04753L19.5719 3.01768L18.5795 3.14138L19.0819 7.17122L20.0742 7.04753ZM3.51562 30.0469C3.1456 30.0469 2.84375 29.745 2.84375 29.375H1.84375C1.84375 30.2973 2.59331 31.0469 3.51562 31.0469V30.0469ZM20.1378 30.0469H3.51562V31.0469H20.1378V30.0469ZM16.2538 3.43169L19.6417 30.6087L20.634 30.485L17.2462 3.30799L16.2538 3.43169ZM15.5873 2.84375C15.925 2.84375 16.2121 3.09737 16.2539 3.43181L17.2461 3.30787C17.1418 2.47263 16.429 1.84375 15.5873 1.84375V2.84375ZM3.51562 2.84375H15.5873V1.84375H3.51562V2.84375ZM2.84375 3.51562C2.84375 3.1456 3.1456 2.84375 3.51562 2.84375V1.84375C2.59331 1.84375 1.84375 2.59331 1.84375 3.51562H2.84375ZM2.84375 29.375V3.51562H1.84375V29.375H2.84375ZM16.6466 36.0131L16.2548 32.8296L15.2623 32.9517L15.6541 36.1353L16.6466 36.0131ZM18.5243 32.5636L15.7721 35.7472L16.5286 36.4012L19.2808 33.2176L18.5243 32.5636ZM15.7585 33.3906H18.9026V32.3906H15.7585V33.3906ZM37.1562 36.4844C37.1562 36.8544 36.8544 37.1562 36.4844 37.1562V38.1562C37.4067 38.1562 38.1562 37.4067 38.1562 36.4844H37.1562ZM37.1562 10.625V36.4844H38.1562V10.625H37.1562ZM36.4844 9.95312C36.8544 9.95312 37.1562 10.255 37.1562 10.625H38.1562C38.1562 9.70269 37.4067 8.95312 36.4844 8.95312V9.95312ZM19.8702 9.95312H36.4844V8.95312H19.8702V9.95312ZM23.1217 31.4946L20.3664 9.39128L19.3741 9.51497L22.1294 31.6183L23.1217 31.4946ZM22.7162 32.8276C23.0421 32.46 23.188 31.9715 23.1208 31.4877L22.1303 31.6252C22.1575 31.8212 22.0987 32.0166 21.9679 32.1642L22.7162 32.8276ZM18.259 37.9832L22.7203 32.8229L21.9638 32.1689L17.5025 37.3293L18.259 37.9832ZM36.4844 37.1562H17.8808V38.1562H36.4844V37.1562ZM12.4558 9.32134L14.7996 21.0402L15.7801 20.8441L13.4364 9.12523L12.4558 9.32134ZM11.797 8.78125C12.1173 8.78125 12.3931 9.00735 12.4558 9.32126L13.4364 9.12531C13.2802 8.34375 12.5939 7.78125 11.797 7.78125V8.78125ZM9.45329 8.78125H11.797V7.78125H9.45329V8.78125ZM8.79454 9.32126C8.85727 9.00735 9.133 8.78125 9.45329 8.78125V7.78125C8.6564 7.78125 7.97011 8.34375 7.81393 9.12531L8.79454 9.32126ZM6.45078 21.0401L8.79453 9.32134L7.81394 9.12523L5.4702 20.844L6.45078 21.0401ZM6.97781 21.8307C6.61399 21.7579 6.37799 21.404 6.45078 21.0401L5.4702 20.844C5.28908 21.7495 5.87636 22.6303 6.78176 22.8113L6.97781 21.8307ZM7.76839 21.3036C7.69566 21.6675 7.34167 21.9035 6.97787 21.8307L6.7817 22.8113C7.68712 22.9924 8.56797 22.4051 8.74899 21.4997L7.76839 21.3036ZM8.51746 17.5582L7.7684 21.3036L8.74898 21.4997L9.49804 17.7543L8.51746 17.5582ZM12.2426 17.1563H9.00775V18.1563H12.2426V17.1563ZM13.4819 21.3037L12.7329 17.5582L11.7523 17.7543L12.5014 21.4998L13.4819 21.3037ZM14.2724 21.8308C13.9088 21.9035 13.5547 21.6677 13.4819 21.3037L12.5014 21.4998C12.6825 22.4056 13.5637 22.9925 14.4687 22.8113L14.2724 21.8308ZM14.7996 21.0402C14.8723 21.404 14.6364 21.758 14.2725 21.8308L14.4686 22.8113C15.3739 22.6302 15.9613 21.7495 15.7801 20.8441L14.7996 21.0402ZM9.92371 10.5269L8.98621 15.2145L9.96679 15.4106L10.9043 10.7231L9.92371 10.5269ZM10.8363 10.125H10.414V11.125H10.8363V10.125ZM12.2641 15.2145L11.3266 10.5269L10.346 10.7231L11.2835 15.4106L12.2641 15.2145ZM9.4765 15.8125H11.7738V14.8125H9.4765V15.8125ZM30.5469 18.1563H34.0625V17.1563H30.5469V18.1563ZM30.0469 16.4844V17.6563H31.0469V16.4844H30.0469ZM29.375 15.8125C29.746 15.8125 30.0469 16.1133 30.0469 16.4844H31.0469C31.0469 15.561 30.2983 14.8125 29.375 14.8125V15.8125ZM28.7031 16.4844C28.7031 16.1133 29.004 15.8125 29.375 15.8125V14.8125C28.4517 14.8125 27.7031 15.561 27.7031 16.4844H28.7031ZM28.7031 17.6563V16.4844H27.7031V17.6563H28.7031ZM24.6875 18.1563H28.2031V17.1563H24.6875V18.1563ZM24.0156 18.8281C24.0156 18.4571 24.3165 18.1563 24.6875 18.1563V17.1563C23.7642 17.1563 23.0156 17.9048 23.0156 18.8281H24.0156ZM24.6875 19.5C24.3165 19.5 24.0156 19.1992 24.0156 18.8281H23.0156C23.0156 19.7515 23.7642 20.5 24.6875 20.5V19.5ZM24.9711 19.5H24.6875V20.5H24.9711V19.5ZM28.1344 24.8197C27.0657 23.5378 26.0949 21.9396 25.4487 19.8522L24.4935 20.1479C25.1828 22.3748 26.2226 24.0881 27.3664 25.46L28.1344 24.8197ZM26.0584 27.1902C26.6985 26.6883 27.3954 26.1422 28.0879 25.5088L27.4129 24.7709C26.7526 25.3749 26.0848 25.8988 25.4414 26.4032L26.0584 27.1902ZM26.0499 27.1967L26.0499 27.1967L25.4499 26.3967L25.4499 26.3967L26.0499 27.1967ZM26.0596 27.1893L26.0597 27.1892L25.4401 26.4043L25.44 26.4044L26.0596 27.1893ZM25.4397 27.6785C25.6393 27.5188 25.8454 27.3572 26.0583 27.1903L25.4413 26.4033C25.2291 26.5697 25.0191 26.7343 24.815 26.8976L25.4397 27.6785ZM25.3348 28.6228C25.103 28.3331 25.1499 27.9103 25.4397 27.6785L24.815 26.8976C24.094 27.4744 23.977 28.5265 24.554 29.2476L25.3348 28.6228ZM26.2791 28.7278C25.9895 28.9594 25.5667 28.9127 25.3348 28.6228L24.554 29.2475C25.1311 29.9689 26.1833 30.0852 26.9039 29.5086L26.2791 28.7278ZM26.8927 28.2435C26.682 28.4087 26.4761 28.5702 26.2791 28.7277L26.9038 29.5086C27.0963 29.3546 27.2982 29.1963 27.5097 29.0304L26.8927 28.2435ZM26.8932 28.2431L26.8928 28.2434L27.5097 29.0305L27.5101 29.0302L26.8932 28.2431ZM26.898 28.2394L26.8979 28.2395L27.5054 29.0338L27.5055 29.0337L26.898 28.2394ZM29.0369 26.4635C28.3002 27.1396 27.5681 27.7139 26.8932 28.2431L27.5103 29.03C28.1826 28.5029 28.9438 27.9063 29.7131 27.2003L29.0369 26.4635ZM31.8577 28.2438C31.1834 27.7151 30.4503 27.14 29.7131 26.4635L29.0369 27.2003C29.8067 27.9067 30.569 28.5041 31.2407 29.0308L31.8577 28.2438ZM32.4709 28.7277C32.2743 28.5704 32.0685 28.4091 31.8577 28.2438L31.2407 29.0308C31.4523 29.1967 31.6541 29.3549 31.8462 29.5086L32.4709 28.7277ZM33.4152 28.6229C33.1834 28.9125 32.7606 28.9596 32.4709 28.7277L31.8461 29.5086C32.5672 30.0855 33.6194 29.9685 34.1961 29.2475L33.4152 28.6229ZM33.3103 27.6785C33.6 27.9102 33.647 28.3331 33.4152 28.6228L34.1961 29.2475C34.7728 28.5265 34.656 27.4744 33.935 26.8976L33.3103 27.6785ZM32.6899 27.1888C32.9036 27.3564 33.1103 27.5184 33.3103 27.6785L33.9351 26.8977C33.7305 26.734 33.5199 26.5688 33.3069 26.4019L32.6899 27.1888ZM32.6783 27.1794L32.6783 27.1794L33.3185 26.4112L33.3184 26.4112L32.6783 27.1794ZM30.6622 25.5088C31.3543 26.1419 32.0511 26.6879 32.6898 27.1888L33.3069 26.4018C32.6648 25.8984 31.9971 25.3746 31.3371 24.7709L30.6622 25.5088ZM33.3013 19.8522C32.6551 21.9396 31.6843 23.5378 30.6156 24.8197L31.3836 25.46C32.5275 24.0881 33.5672 22.3748 34.2565 20.1479L33.3013 19.8522ZM34.0625 19.5H33.7789V20.5H34.0625V19.5ZM34.7344 18.8281C34.7344 19.1992 34.4335 19.5 34.0625 19.5V20.5C34.9858 20.5 35.7344 19.7515 35.7344 18.8281H34.7344ZM34.0625 18.1563C34.4335 18.1563 34.7344 18.4571 34.7344 18.8281H35.7344C35.7344 17.9048 34.9858 17.1563 34.0625 17.1563V18.1563ZM26.9779 20.1663C27.505 21.5849 28.2053 22.7516 28.9839 23.7291L29.7661 23.1061C29.0487 22.2054 28.403 21.1305 27.9153 19.8181L26.9779 20.1663ZM31.3033 19.4922H27.4466V20.4922H31.3033V19.4922ZM29.7661 23.7291C30.5447 22.7516 31.245 21.5849 31.772 20.1663L30.8346 19.8181C30.347 21.1305 29.7013 22.2054 28.9839 23.1061L29.7661 23.7291Z" fill="white"/>
</g>
<defs>
<clipPath id="clip0_460_1794">
<rect width="40" height="40" fill="white"/>
</clipPath>
</defs>
</svg>
