<svg width="40" height="40" viewBox="0 0 40 40" fill="none" xmlns="http://www.w3.org/2000/svg">
<g clip-path="url(#clip0_460_3994)">
<path fill-rule="evenodd" clip-rule="evenodd" d="M39.4707 8.16539L31.252 0.952054C30.6402 0.344891 29.814 0.00291267 28.952 5.38804e-05H19.048C18.2 -0.00486353 17.3848 0.326988 16.7813 0.92272L8.49867 8.19539C8.33995 8.35318 8.21414 8.54092 8.12854 8.74772C8.04293 8.95451 7.99924 9.17624 8 9.40005V11.3334C8 11.687 8.14048 12.0261 8.39052 12.2762C8.64057 12.5262 8.97971 12.6667 9.33333 12.6667H10.1227C10.0313 12.913 9.99021 13.1751 10.0019 13.4375C10.0135 13.6999 10.0777 13.9573 10.1906 14.1945C10.3034 14.4317 10.4627 14.6438 10.659 14.8183C10.8553 14.9929 11.0846 15.1263 11.3333 15.2107V20.0001H3.33333C2.4496 20.0011 1.60237 20.3526 0.97748 20.9775C0.352588 21.6024 0.00105857 22.4497 0 23.3334V36.6667C0.00105857 37.5504 0.352588 38.3977 0.97748 39.0226C1.60237 39.6475 2.4496 39.999 3.33333 40H26C26.8837 39.999 27.731 39.6475 28.3558 39.0226C28.9807 38.3977 29.3323 37.5504 29.3333 36.6667V32H38.6667C39.0203 32 39.3594 31.8596 39.6095 31.6095C39.8595 31.3595 40 31.0203 40 30.6667V30.0001C39.9983 29.5879 39.8693 29.1863 39.6306 28.8503C39.3919 28.5142 39.0553 28.2601 38.6667 28.1227V27.3334C38.6661 26.9964 38.5801 26.6651 38.4169 26.3703C38.2537 26.0755 38.0186 25.8268 37.7333 25.6474C37.88 25.3951 37.9689 25.1135 37.9936 24.8228C38.0183 24.532 37.9782 24.2394 37.8761 23.966C37.7741 23.6927 37.6127 23.4453 37.4036 23.2419C37.1944 23.0384 36.9427 22.8839 36.6667 22.7894V15.2107C36.9154 15.1263 37.1447 14.9929 37.341 14.8183C37.5373 14.6438 37.6965 14.4317 37.8094 14.1945C37.9223 13.9573 37.9865 13.6999 37.9981 13.4375C38.0098 13.1751 37.9687 12.913 37.8773 12.6667H38.6667C39.0203 12.6667 39.3594 12.5262 39.6095 12.2762C39.8595 12.0261 40 11.687 40 11.3334V9.40005C40.0006 9.17653 39.9569 8.9551 39.8714 8.74856C39.7859 8.54202 39.6604 8.35446 39.502 8.19672L39.4707 8.16539ZM17.6907 1.89872C18.051 1.53887 18.5388 1.33571 19.048 1.33339H28.952C29.211 1.33574 29.4671 1.38925 29.7054 1.49084C29.9437 1.59244 30.1596 1.74011 30.3407 1.92539L38.02 8.66672H9.98067L17.6907 1.89872ZM36.6667 24.6667C36.6667 24.8435 36.5964 25.0131 36.4714 25.1381C36.3464 25.2631 36.1768 25.3334 36 25.3334H33.3333C33.1565 25.3334 32.9869 25.2631 32.8619 25.1381C32.7369 25.0131 32.6667 24.8435 32.6667 24.6667C32.6667 24.4899 32.7369 24.3203 32.8619 24.1953C32.9869 24.0703 33.1565 24.0001 33.3333 24.0001H36C36.1768 24.0001 36.3464 24.0703 36.4714 24.1953C36.5964 24.3203 36.6667 24.4899 36.6667 24.6667ZM36.6667 26.6667C36.8435 26.6667 37.013 26.737 37.1381 26.862C37.2631 26.987 37.3333 27.1566 37.3333 27.3334V28.0001H29.3333V26.6667H36.6667ZM35.3333 22.6667H34V15.3334H35.3333V22.6667ZM32.6667 15.2107V22.7894C32.4179 22.8738 32.1886 23.0072 31.9923 23.1818C31.7961 23.3563 31.6368 23.5684 31.5239 23.8056C31.411 24.0428 31.3469 24.3002 31.3352 24.5626C31.3235 24.825 31.3646 25.0871 31.456 25.3334H29.3333V23.3334C29.3323 22.4497 28.9807 21.6024 28.3558 20.9775C27.731 20.3526 26.8837 20.0011 26 20.0001V15.2107C26.2487 15.1263 26.478 14.9929 26.6743 14.8183C26.8706 14.6438 27.0299 14.4317 27.1428 14.1945C27.2556 13.9573 27.3198 13.6999 27.3315 13.4375C27.3431 13.1751 27.302 12.913 27.2107 12.6667H31.456C31.3646 12.913 31.3235 13.1751 31.3352 13.4375C31.3469 13.6999 31.411 13.9573 31.5239 14.1945C31.6368 14.4317 31.7961 14.6438 31.9923 14.8183C32.1886 14.9929 32.4179 15.1263 32.6667 15.2107ZM23.3333 20.0001V15.3334H24.6667V20.0001H23.3333ZM26 13.3334C26 13.5102 25.9298 13.6798 25.8047 13.8048C25.6797 13.9298 25.5101 14.0001 25.3333 14.0001H22.6667C22.4899 14.0001 22.3203 13.9298 22.1953 13.8048C22.0702 13.6798 22 13.5102 22 13.3334C22 13.1566 22.0702 12.987 22.1953 12.862C22.3203 12.737 22.4899 12.6667 22.6667 12.6667H25.3333C25.5101 12.6667 25.6797 12.737 25.8047 12.862C25.9298 12.987 26 13.1566 26 13.3334ZM22 15.2107V20.0001H15.3333V15.2107C15.5821 15.1263 15.8114 14.9929 16.0076 14.8183C16.2039 14.6438 16.3632 14.4317 16.4761 14.1945C16.589 13.9573 16.6531 13.6999 16.6648 13.4375C16.6765 13.1751 16.6354 12.913 16.544 12.6667H20.7893C20.6979 12.913 20.6569 13.1751 20.6685 13.4375C20.6802 13.6999 20.7444 13.9573 20.8572 14.1945C20.9701 14.4317 21.1294 14.6438 21.3257 14.8183C21.522 14.9929 21.7513 15.1263 22 15.2107ZM15.3333 13.3334C15.3333 13.5102 15.2631 13.6798 15.1381 13.8048C15.013 13.9298 14.8435 14.0001 14.6667 14.0001H12C11.8232 14.0001 11.6536 13.9298 11.5286 13.8048C11.4036 13.6798 11.3333 13.5102 11.3333 13.3334C11.3333 13.1566 11.4036 12.987 11.5286 12.862C11.6536 12.737 11.8232 12.6667 12 12.6667H14.6667C14.8435 12.6667 15.013 12.737 15.1381 12.862C15.2631 12.987 15.3333 13.1566 15.3333 13.3334ZM12.6667 15.3334H14V20.0001H12.6667V15.3334ZM28 36.6667C28 37.1972 27.7893 37.7059 27.4142 38.0809C27.0391 38.456 26.5304 38.6667 26 38.6667H3.33333C2.8029 38.6667 2.29419 38.456 1.91912 38.0809C1.54405 37.7059 1.33333 37.1972 1.33333 36.6667V23.3334C1.33333 22.803 1.54405 22.2942 1.91912 21.9192C2.29419 21.5441 2.8029 21.3334 3.33333 21.3334H26C26.5304 21.3334 27.0391 21.5441 27.4142 21.9192C27.7893 22.2942 28 22.803 28 23.3334V36.6667ZM38.6667 30.6667H29.3333V29.3334H38C38.1768 29.3334 38.3464 29.4036 38.4714 29.5286C38.5964 29.6537 38.6667 29.8232 38.6667 30.0001V30.6667ZM36.6667 13.3334C36.6667 13.5102 36.5964 13.6798 36.4714 13.8048C36.3464 13.9298 36.1768 14.0001 36 14.0001H33.3333C33.1565 14.0001 32.9869 13.9298 32.8619 13.8048C32.7369 13.6798 32.6667 13.5102 32.6667 13.3334C32.6667 13.1566 32.7369 12.987 32.8619 12.862C32.9869 12.737 33.1565 12.6667 33.3333 12.6667H36C36.1768 12.6667 36.3464 12.737 36.4714 12.862C36.5964 12.987 36.6667 13.1566 36.6667 13.3334ZM36 11.3334H9.33333V10.0001H38.6667V11.3334H36ZM4.0013 27.3332H6.66797C7.02159 27.3332 7.36073 27.1927 7.61078 26.9426C7.86083 26.6926 8.0013 26.3535 8.0013 25.9998V23.9998C8.0013 23.6462 7.86083 23.3071 7.61078 23.057C7.36073 22.807 7.02159 22.6665 6.66797 22.6665H4.0013C3.64768 22.6665 3.30854 22.807 3.05849 23.057C2.80844 23.3071 2.66797 23.6462 2.66797 23.9998V25.9998C2.66797 26.3535 2.80844 26.6926 3.05849 26.9426C3.30854 27.1927 3.64768 27.3332 4.0013 27.3332ZM4.0013 23.9998H6.66797V25.9998H4.0013V23.9998ZM22.0013 7.33334H15.3346C15.1578 7.33334 14.9883 7.2631 14.8632 7.13807C14.7382 7.01305 14.668 6.84348 14.668 6.66667C14.668 6.48986 14.7382 6.32029 14.8632 6.19526C14.9883 6.07024 15.1578 6 15.3346 6H22.0013C22.1781 6 22.3477 6.07024 22.4727 6.19526C22.5977 6.32029 22.6679 6.48986 22.6679 6.66667C22.6679 6.84348 22.5977 7.01305 22.4727 7.13807C22.3477 7.2631 22.1781 7.33334 22.0013 7.33334ZM25.9987 7.33334H32.6653C32.8421 7.33334 33.0117 7.2631 33.1367 7.13807C33.2618 7.01305 33.332 6.84348 33.332 6.66667C33.332 6.48986 33.2618 6.32029 33.1367 6.19526C33.0117 6.07024 32.8421 6 32.6653 6H25.9987C25.8219 6 25.6523 6.07024 25.5273 6.19526C25.4023 6.32029 25.332 6.48986 25.332 6.66667C25.332 6.84348 25.4023 7.01305 25.5273 7.13807C25.6523 7.2631 25.8219 7.33334 25.9987 7.33334ZM3.33203 29.9998V29.3332C3.33203 29.1564 3.40227 28.9868 3.52729 28.8618C3.65232 28.7367 3.82189 28.6665 3.9987 28.6665C4.17551 28.6665 4.34508 28.7367 4.47011 28.8618C4.59513 28.9868 4.66537 29.1564 4.66537 29.3332V29.9998C4.66537 30.1766 4.59513 30.3462 4.47011 30.4712C4.34508 30.5963 4.17551 30.6665 3.9987 30.6665C3.82189 30.6665 3.65232 30.5963 3.52729 30.4712C3.40227 30.3462 3.33203 30.1766 3.33203 29.9998ZM7.33334 29.9998V29.3332C7.33334 29.1564 7.2631 28.9868 7.13807 28.8618C7.01305 28.7367 6.84348 28.6665 6.66667 28.6665C6.48986 28.6665 6.32029 28.7367 6.19526 28.8618C6.07024 28.9868 6 29.1564 6 29.3332V29.9998C6 30.1766 6.07024 30.3462 6.19526 30.4712C6.32029 30.5963 6.48986 30.6665 6.66667 30.6665C6.84348 30.6665 7.01305 30.5963 7.13807 30.4712C7.2631 30.3462 7.33334 30.1766 7.33334 29.9998ZM8.86323 28.8618C8.98826 28.7367 9.15783 28.6665 9.33464 28.6665C9.51145 28.6665 9.68102 28.7367 9.80604 28.8618C9.93107 28.9868 10.0013 29.1564 10.0013 29.3332V29.9998C10.0013 30.1766 9.93107 30.3462 9.80604 30.4712C9.68102 30.5963 9.51145 30.6665 9.33464 30.6665C9.15783 30.6665 8.98826 30.5963 8.86323 30.4712C8.73821 30.3462 8.66797 30.1766 8.66797 29.9998V29.3332C8.66797 29.1564 8.73821 28.9868 8.86323 28.8618ZM11.9987 30.6665C12.1755 30.6665 12.3451 30.5963 12.4701 30.4712C12.5951 30.3462 12.6654 30.1766 12.6654 29.9998V29.3332C12.6654 29.1564 12.5951 28.9868 12.4701 28.8618C12.3451 28.7367 12.1755 28.6665 11.9987 28.6665C11.8219 28.6665 11.6523 28.7367 11.5273 28.8618C11.4023 28.9868 11.332 29.1564 11.332 29.3332V29.9998C11.332 30.1766 11.4023 30.3462 11.5273 30.4712C11.6523 30.5963 11.8219 30.6665 11.9987 30.6665ZM16.8632 28.8618C16.9883 28.7367 17.1578 28.6665 17.3346 28.6665C17.5114 28.6665 17.681 28.7367 17.806 28.8618C17.9311 28.9868 18.0013 29.1564 18.0013 29.3332V29.9998C18.0013 30.1766 17.9311 30.3462 17.806 30.4712C17.681 30.5963 17.5114 30.6665 17.3346 30.6665C17.1578 30.6665 16.9883 30.5963 16.8632 30.4712C16.7382 30.3462 16.668 30.1766 16.668 29.9998V29.3332C16.668 29.1564 16.7382 28.9868 16.8632 28.8618ZM19.9987 28.6665C19.8219 28.6665 19.6523 28.7367 19.5273 28.8618C19.4023 28.9868 19.332 29.1564 19.332 29.3332V29.9998C19.332 30.1766 19.4023 30.3462 19.5273 30.4712C19.6523 30.5963 19.8219 30.6665 19.9987 30.6665C20.1755 30.6665 20.3451 30.5963 20.4701 30.4712C20.5951 30.3462 20.6653 30.1766 20.6653 29.9998V29.3332C20.6653 29.1564 20.5951 28.9868 20.4701 28.8618C20.3451 28.7367 20.1755 28.6665 19.9987 28.6665ZM22.1953 28.8618C22.3203 28.7367 22.4898 28.6665 22.6667 28.6665C22.8435 28.6665 23.013 28.7367 23.1381 28.8618C23.2631 28.9868 23.3333 29.1564 23.3333 29.3332V29.9998C23.3333 30.1766 23.2631 30.3462 23.1381 30.4712C23.013 30.5963 22.8435 30.6665 22.6667 30.6665C22.4898 30.6665 22.3203 30.5963 22.1953 30.4712C22.0702 30.3462 22 30.1766 22 29.9998V29.3332C22 29.1564 22.0702 28.9868 22.1953 28.8618ZM4.66797 32H3.33464C3.15783 32 2.98826 32.0702 2.86323 32.1953C2.73821 32.3203 2.66797 32.4898 2.66797 32.6667C2.66797 32.8435 2.73821 33.013 2.86323 33.1381C2.98826 33.2631 3.15783 33.3333 3.33464 33.3333H4.66797C4.84479 33.3333 5.01436 33.2631 5.13938 33.1381C5.2644 33.013 5.33464 32.8435 5.33464 32.6667C5.33464 32.4898 5.2644 32.3203 5.13938 32.1953C5.01436 32.0702 4.84479 32 4.66797 32ZM7.33464 32H8.66797C8.84478 32 9.01435 32.0702 9.13938 32.1953C9.2644 32.3203 9.33464 32.4898 9.33464 32.6667C9.33464 32.8435 9.2644 33.013 9.13938 33.1381C9.01435 33.2631 8.84478 33.3333 8.66797 33.3333H7.33464C7.15783 33.3333 6.98826 33.2631 6.86323 33.1381C6.73821 33.013 6.66797 32.8435 6.66797 32.6667C6.66797 32.4898 6.73821 32.3203 6.86323 32.1953C6.98826 32.0702 7.15783 32 7.33464 32ZM4.66797 34.6665H3.33464C3.15783 34.6665 2.98826 34.7367 2.86323 34.8618C2.73821 34.9868 2.66797 35.1563 2.66797 35.3332C2.66797 35.51 2.73821 35.6795 2.86323 35.8046C2.98826 35.9296 3.15783 35.9998 3.33464 35.9998H4.66797C4.84479 35.9998 5.01436 35.9296 5.13938 35.8046C5.2644 35.6795 5.33464 35.51 5.33464 35.3332C5.33464 35.1563 5.2644 34.9868 5.13938 34.8618C5.01436 34.7367 4.84479 34.6665 4.66797 34.6665ZM7.33464 34.6665H8.66797C8.84478 34.6665 9.01435 34.7367 9.13938 34.8618C9.2644 34.9868 9.33464 35.1563 9.33464 35.3332C9.33464 35.51 9.2644 35.6795 9.13938 35.8046C9.01435 35.9296 8.84478 35.9998 8.66797 35.9998H7.33464C7.15783 35.9998 6.98826 35.9296 6.86323 35.8046C6.73821 35.6795 6.66797 35.51 6.66797 35.3332C6.66797 35.1563 6.73821 34.9868 6.86323 34.8618C6.98826 34.7367 7.15783 34.6665 7.33464 34.6665ZM12.668 32H11.3346C11.1578 32 10.9883 32.0702 10.8632 32.1953C10.7382 32.3203 10.668 32.4898 10.668 32.6667C10.668 32.8435 10.7382 33.013 10.8632 33.1381C10.9883 33.2631 11.1578 33.3333 11.3346 33.3333H12.668C12.8448 33.3333 13.0144 33.2631 13.1394 33.1381C13.2644 33.013 13.3346 32.8435 13.3346 32.6667C13.3346 32.4898 13.2644 32.3203 13.1394 32.1953C13.0144 32.0702 12.8448 32 12.668 32ZM15.3346 32H16.668C16.8448 32 17.0144 32.0702 17.1394 32.1953C17.2644 32.3203 17.3346 32.4898 17.3346 32.6667C17.3346 32.8435 17.2644 33.013 17.1394 33.1381C17.0144 33.2631 16.8448 33.3333 16.668 33.3333H15.3346C15.1578 33.3333 14.9883 33.2631 14.8632 33.1381C14.7382 33.013 14.668 32.8435 14.668 32.6667C14.668 32.4898 14.7382 32.3203 14.8632 32.1953C14.9883 32.0702 15.1578 32 15.3346 32Z" fill="#242527"/>
<path d="M31.252 0.952054L31.2167 0.987611L31.219 0.989633L31.252 0.952054ZM39.4707 8.16539L39.5061 8.12996L39.5036 8.12781L39.4707 8.16539ZM28.952 5.38804e-05L28.9522 -0.0499461H28.952V5.38804e-05ZM19.048 5.38804e-05L19.0477 0.0500539H19.048V5.38804e-05ZM16.7813 0.92272L16.8144 0.960356L16.8165 0.958303L16.7813 0.92272ZM8.49867 8.19539L8.46561 8.15774L8.46341 8.15993L8.49867 8.19539ZM8.12854 8.74772L8.08234 8.72859L8.08234 8.72859L8.12854 8.74772ZM8 9.40005H8.05V9.39989L8 9.40005ZM8.39052 12.2762L8.35517 12.3116L8.39052 12.2762ZM10.1227 12.6667L10.1695 12.6841L10.1946 12.6167H10.1227V12.6667ZM10.1906 14.1945L10.2357 14.173L10.1906 14.1945ZM10.659 14.8183L10.6922 14.781L10.659 14.8183ZM11.3333 15.2107H11.3833V15.1749L11.3494 15.1634L11.3333 15.2107ZM11.3333 20.0001V20.0501H11.3833V20.0001H11.3333ZM3.33333 20.0001V19.9501H3.33327L3.33333 20.0001ZM0 23.3334L-0.05 23.3333V23.3334H0ZM0 36.6667H-0.05L-0.05 36.6668L0 36.6667ZM0.97748 39.0226L0.942124 39.0579H0.942125L0.97748 39.0226ZM3.33333 40L3.33327 40.05H3.33333V40ZM26 40V40.05H26.0001L26 40ZM28.3558 39.0226L28.3912 39.0579L28.3558 39.0226ZM29.3333 36.6667L29.3833 36.6668V36.6667H29.3333ZM29.3333 32V31.9501H29.2833V32H29.3333ZM39.6095 31.6095L39.5741 31.5742L39.6095 31.6095ZM40 30.0001H40.05V29.9998L40 30.0001ZM39.6306 28.8503L39.5898 28.8792L39.6306 28.8503ZM38.6667 28.1227H38.6167V28.1581L38.65 28.1699L38.6667 28.1227ZM38.6667 27.3334H38.7167V27.3333L38.6667 27.3334ZM38.4169 26.3703L38.3732 26.3945L38.4169 26.3703ZM37.7333 25.6474L37.6901 25.6223L37.6658 25.664L37.7067 25.6897L37.7333 25.6474ZM37.9936 24.8228L37.9438 24.8185V24.8185L37.9936 24.8228ZM37.8761 23.966L37.8293 23.9835L37.8761 23.966ZM37.4036 23.2419L37.4384 23.206L37.4036 23.2419ZM36.6667 22.7894H36.6167V22.8251L36.6505 22.8367L36.6667 22.7894ZM36.6667 15.2107L36.6506 15.1634L36.6167 15.1749V15.2107H36.6667ZM37.341 14.8183L37.3742 14.8557L37.341 14.8183ZM37.8773 12.6667V12.6167H37.8054L37.8305 12.6841L37.8773 12.6667ZM40 9.40005L39.95 9.39992V9.40005H40ZM39.502 8.19672L39.4666 8.23207L39.4667 8.23215L39.502 8.19672ZM19.048 1.33339V1.28339L19.0478 1.28339L19.048 1.33339ZM17.6907 1.89872L17.7237 1.93637L17.726 1.9341L17.6907 1.89872ZM28.952 1.33339L28.9524 1.28339H28.952V1.33339ZM29.7054 1.49084L29.6858 1.53684L29.7054 1.49084ZM30.3407 1.92539L30.3048 1.96044L30.3077 1.96296L30.3407 1.92539ZM38.02 8.66672V8.71672H38.1527L38.053 8.62914L38.02 8.66672ZM9.98067 8.66672L9.94768 8.62914L9.84791 8.71672H9.98067V8.66672ZM36.4714 25.1381L36.5068 25.1735V25.1735L36.4714 25.1381ZM32.8619 25.1381L32.8266 25.1735L32.8619 25.1381ZM32.8619 24.1953L32.8973 24.2307L32.8619 24.1953ZM36.4714 24.1953L36.5068 24.16V24.16L36.4714 24.1953ZM37.1381 26.862L37.1027 26.8973V26.8973L37.1381 26.862ZM37.3333 28.0001V28.0501H37.3833V28.0001H37.3333ZM29.3333 28.0001H29.2833V28.0501H29.3333V28.0001ZM29.3333 26.6667V26.6167H29.2833V26.6667H29.3333ZM34 22.6667H33.95V22.7167H34V22.6667ZM35.3333 22.6667V22.7167H35.3833V22.6667H35.3333ZM34 15.3334V15.2834H33.95V15.3334H34ZM35.3333 15.3334H35.3833V15.2834H35.3333V15.3334ZM32.6667 22.7894L32.6827 22.8367L32.7167 22.8252V22.7894H32.6667ZM32.6667 15.2107H32.7167V15.1749L32.6827 15.1634L32.6667 15.2107ZM31.9923 23.1818L32.0256 23.2191L31.9923 23.1818ZM31.5239 23.8056L31.5691 23.8271L31.5239 23.8056ZM31.3352 24.5626L31.3852 24.5648L31.3352 24.5626ZM31.456 25.3334V25.3834H31.5279L31.5029 25.316L31.456 25.3334ZM29.3333 25.3334H29.2833V25.3834H29.3333V25.3334ZM29.3333 23.3334H29.3833V23.3333L29.3333 23.3334ZM26 20.0001H25.95V20.05L25.9999 20.0501L26 20.0001ZM26 15.2107L25.9839 15.1634L25.95 15.1749V15.2107H26ZM26.6743 14.8183L26.7075 14.8557L26.6743 14.8183ZM27.1428 14.1945L27.0976 14.173L27.1428 14.1945ZM27.3315 13.4375L27.3814 13.4397L27.3315 13.4375ZM27.2107 12.6667V12.6167H27.1388L27.1638 12.6841L27.2107 12.6667ZM31.456 12.6667L31.5029 12.6841L31.5279 12.6167H31.456V12.6667ZM31.3352 13.4375L31.3852 13.4353L31.3352 13.4375ZM31.5239 14.1945L31.5691 14.173L31.5239 14.1945ZM31.9923 14.8183L32.0256 14.781L31.9923 14.8183ZM23.3333 15.3334V15.2834H23.2833V15.3334H23.3333ZM23.3333 20.0001H23.2833V20.0501H23.3333V20.0001ZM24.6667 15.3334H24.7167V15.2834H24.6667V15.3334ZM24.6667 20.0001V20.0501H24.7167V20.0001H24.6667ZM25.8047 13.8048L25.8401 13.8401L25.8047 13.8048ZM22.1953 13.8048L22.2306 13.7694L22.2306 13.7694L22.1953 13.8048ZM22.1953 12.862L22.2306 12.8973L22.2306 12.8973L22.1953 12.862ZM25.8047 12.862L25.8401 12.8266L25.8047 12.862ZM22 20.0001V20.0501H22.05V20.0001H22ZM22 15.2107H22.05V15.1749L22.0161 15.1634L22 15.2107ZM15.3333 20.0001H15.2833V20.0501H15.3333V20.0001ZM15.3333 15.2107L15.3173 15.1634L15.2833 15.1749V15.2107H15.3333ZM16.0076 14.8183L15.9744 14.781L16.0076 14.8183ZM16.4761 14.1945L16.4309 14.173L16.4761 14.1945ZM16.544 12.6667V12.6167H16.4721L16.4971 12.6841L16.544 12.6667ZM20.7893 12.6667L20.8362 12.6841L20.8612 12.6167H20.7893V12.6667ZM20.6685 13.4375L20.7185 13.4353L20.6685 13.4375ZM20.8572 14.1945L20.8121 14.216L20.8572 14.1945ZM21.3257 14.8183L21.3589 14.781L21.3257 14.8183ZM15.1381 13.8048L15.1027 13.7694L15.1381 13.8048ZM15.1381 12.862L15.1027 12.8973L15.1381 12.862ZM14 15.3334H14.05V15.2834H14V15.3334ZM12.6667 15.3334V15.2834H12.6167V15.3334H12.6667ZM14 20.0001V20.0501H14.05V20.0001H14ZM12.6667 20.0001H12.6167V20.0501H12.6667V20.0001ZM27.4142 38.0809L27.4496 38.1163L27.4142 38.0809ZM27.4142 21.9192L27.4496 21.8838L27.4142 21.9192ZM29.3333 30.6667H29.2833V30.7167H29.3333V30.6667ZM38.6667 30.6667V30.7167H38.7167V30.6667H38.6667ZM29.3333 29.3334V29.2834H29.2833V29.3334H29.3333ZM38.4714 29.5286L38.436 29.564V29.564L38.4714 29.5286ZM36.4714 13.8048L36.5068 13.8401L36.4714 13.8048ZM32.8619 13.8048L32.8973 13.7694V13.7694L32.8619 13.8048ZM32.8619 12.862L32.8973 12.8973V12.8973L32.8619 12.862ZM36.4714 12.862L36.5068 12.8266L36.4714 12.862ZM9.33333 11.3334H9.28333V11.3834H9.33333V11.3334ZM9.33333 10.0001V9.95005H9.28333V10.0001H9.33333ZM38.6667 10.0001H38.7167V9.95005H38.6667V10.0001ZM38.6667 11.3334V11.3834H38.7167V11.3334H38.6667ZM7.61078 26.9426L7.64613 26.978H7.64613L7.61078 26.9426ZM7.61078 23.057L7.57542 23.0924H7.57542L7.61078 23.057ZM3.05849 23.057L3.09385 23.0924L3.05849 23.057ZM3.05849 26.9426L3.02314 26.978L3.05849 26.9426ZM6.66797 23.9998H6.71797V23.9498H6.66797V23.9998ZM4.0013 23.9998V23.9498H3.9513V23.9998H4.0013ZM6.66797 25.9998V26.0498H6.71797V25.9998H6.66797ZM4.0013 25.9998H3.9513V26.0498H4.0013V25.9998ZM14.8632 7.13807L14.8279 7.17343L14.8632 7.13807ZM14.8632 6.19526L14.8986 6.23062L14.8632 6.19526ZM22.4727 6.19526L22.4373 6.23062L22.4373 6.23062L22.4727 6.19526ZM22.4727 7.13807L22.4373 7.10272V7.10272L22.4727 7.13807ZM33.1367 7.13807L33.1721 7.17343L33.1367 7.13807ZM33.1367 6.19526L33.1014 6.23062L33.1367 6.19526ZM25.5273 6.19526L25.5626 6.23062L25.5626 6.23062L25.5273 6.19526ZM25.5273 7.13807L25.5626 7.10272V7.10272L25.5273 7.13807ZM3.52729 28.8618L3.56265 28.8971L3.56265 28.8971L3.52729 28.8618ZM4.47011 28.8618L4.43475 28.8971H4.43475L4.47011 28.8618ZM4.47011 30.4712L4.50546 30.5066L4.50546 30.5066L4.47011 30.4712ZM3.52729 30.4712L3.49194 30.5066L3.49194 30.5066L3.52729 30.4712ZM7.13807 28.8618L7.10272 28.8971H7.10272L7.13807 28.8618ZM6.19526 28.8618L6.23062 28.8971L6.23062 28.8971L6.19526 28.8618ZM6.19526 30.4712L6.15991 30.5066H6.15991L6.19526 30.4712ZM7.13807 30.4712L7.17343 30.5066L7.17343 30.5066L7.13807 30.4712ZM8.86323 28.8618L8.89859 28.8971L8.89859 28.8971L8.86323 28.8618ZM9.80604 28.8618L9.77069 28.8971L9.77069 28.8971L9.80604 28.8618ZM9.80604 30.4712L9.8414 30.5066L9.8414 30.5066L9.80604 30.4712ZM8.86323 30.4712L8.82788 30.5066L8.82788 30.5066L8.86323 30.4712ZM12.4701 30.4712L12.5055 30.5066L12.5055 30.5066L12.4701 30.4712ZM12.4701 28.8618L12.4348 28.8971L12.4701 28.8618ZM11.5273 28.8618L11.5626 28.8971L11.5626 28.8971L11.5273 28.8618ZM11.5273 30.4712L11.4919 30.5066L11.4919 30.5066L11.5273 30.4712ZM16.8632 28.8618L16.8986 28.8971V28.8971L16.8632 28.8618ZM17.806 28.8618L17.7707 28.8971V28.8971L17.806 28.8618ZM17.806 30.4712L17.8414 30.5066V30.5066L17.806 30.4712ZM16.8632 30.4712L16.8279 30.5066V30.5066L16.8632 30.4712ZM19.5273 28.8618L19.4919 28.8264L19.5273 28.8618ZM19.5273 30.4712L19.4919 30.5066H19.4919L19.5273 30.4712ZM20.4701 30.4712L20.5054 30.5066H20.5054L20.4701 30.4712ZM20.4701 28.8618L20.5054 28.8264L20.4701 28.8618ZM22.1953 28.8618L22.1599 28.8264L22.1953 28.8618ZM23.1381 28.8618L23.1734 28.8264L23.1381 28.8618ZM23.1381 30.4712L23.1734 30.5066H23.1734L23.1381 30.4712ZM22.1953 30.4712L22.1599 30.5066H22.1599L22.1953 30.4712ZM2.86323 32.1953L2.89859 32.2306H2.89859L2.86323 32.1953ZM2.86323 33.1381L2.82788 33.1734L2.86323 33.1381ZM5.13938 33.1381L5.10402 33.1027L5.13938 33.1381ZM5.13938 32.1953L5.10402 32.2306H5.10402L5.13938 32.1953ZM9.13938 32.1953L9.10402 32.2306L9.13938 32.1953ZM9.13938 33.1381L9.17473 33.1734H9.17474L9.13938 33.1381ZM6.86323 33.1381L6.89859 33.1027L6.86323 33.1381ZM6.86323 32.1953L6.89859 32.2306H6.89859L6.86323 32.1953ZM2.86323 34.8618L2.89859 34.8971H2.89859L2.86323 34.8618ZM2.86323 35.8046L2.82788 35.8399L2.86323 35.8046ZM5.13938 35.8046L5.10402 35.7692L5.13938 35.8046ZM5.13938 34.8618L5.10402 34.8971H5.10402L5.13938 34.8618ZM9.13938 34.8618L9.10402 34.8971L9.13938 34.8618ZM9.13938 35.8046L9.17473 35.8399H9.17474L9.13938 35.8046ZM6.86323 35.8046L6.89859 35.7692L6.86323 35.8046ZM6.86323 34.8618L6.89859 34.8971H6.89859L6.86323 34.8618ZM10.8632 32.1953L10.8986 32.2306L10.8632 32.1953ZM13.1394 33.1381L13.104 33.1027H13.104L13.1394 33.1381ZM13.1394 32.1953L13.104 32.2306H13.104L13.1394 32.1953ZM17.1394 32.1953L17.104 32.2306L17.1394 32.1953ZM14.8632 32.1953L14.8986 32.2306L14.8632 32.1953ZM31.219 0.989633L39.4377 8.20297L39.5036 8.12781L31.285 0.914475L31.219 0.989633ZM28.9518 0.0500536C29.8007 0.0528688 30.6143 0.389635 31.2168 0.987544L31.2872 0.916563C30.6661 0.300147 29.8273 -0.0470435 28.9522 -0.0499458L28.9518 0.0500536ZM19.048 0.0500539H28.952V-0.0499461H19.048V0.0500539ZM16.8165 0.958303C17.4105 0.371879 18.213 0.0452125 19.0477 0.050053L19.0483 -0.0499453C18.1871 -0.0549395 17.3591 0.282098 16.7462 0.887138L16.8165 0.958303ZM8.53166 8.23296L16.8143 0.960292L16.7483 0.885149L8.46568 8.15781L8.53166 8.23296ZM8.17473 8.76684C8.2578 8.56616 8.37989 8.38397 8.53392 8.23085L8.46341 8.15993C8.3 8.32239 8.17047 8.51568 8.08234 8.72859L8.17473 8.76684ZM8.05 9.39989C8.04927 9.18269 8.09166 8.96752 8.17473 8.76684L8.08234 8.72859C7.9942 8.9415 7.94922 9.16979 7.95 9.40022L8.05 9.39989ZM8.05 11.3334V9.40005H7.95V11.3334H8.05ZM8.42588 12.2408C8.18521 12.0002 8.05 11.6737 8.05 11.3334H7.95C7.95 11.7003 8.09574 12.0521 8.35517 12.3116L8.42588 12.2408ZM9.33333 12.6167C8.99297 12.6167 8.66655 12.4815 8.42588 12.2408L8.35517 12.3116C8.61459 12.571 8.96645 12.7167 9.33333 12.7167V12.6167ZM10.1227 12.6167H9.33333V12.7167H10.1227V12.6167ZM10.0518 13.4353C10.0405 13.1795 10.0805 12.9241 10.1695 12.6841L10.0758 12.6493C9.98208 12.9019 9.93996 13.1706 9.95192 13.4397L10.0518 13.4353ZM10.2357 14.173C10.1257 13.9418 10.0632 13.691 10.0518 13.4353L9.95192 13.4397C9.96388 13.7088 10.0297 13.9727 10.1454 14.216L10.2357 14.173ZM10.6922 14.781C10.501 14.6109 10.3457 14.4041 10.2357 14.173L10.1454 14.216C10.2612 14.4592 10.4245 14.6767 10.6258 14.8557L10.6922 14.781ZM11.3494 15.1634C11.107 15.0811 10.8835 14.9511 10.6922 14.781L10.6258 14.8557C10.8271 15.0347 11.0622 15.1715 11.3173 15.2581L11.3494 15.1634ZM11.3833 20.0001V15.2107H11.2833V20.0001H11.3833ZM3.33333 20.0501H11.3333V19.9501H3.33333V20.0501ZM1.01284 21.0129C1.62836 20.3974 2.4629 20.0511 3.33339 20.0501L3.33327 19.9501C2.4363 19.9511 1.57638 20.3079 0.942124 20.9422L1.01284 21.0129ZM0.05 23.3334C0.0510427 22.463 0.397305 21.6284 1.01284 21.0129L0.942124 20.9422C0.30787 21.5764 -0.0489255 22.4364 -0.05 23.3333L0.05 23.3334ZM0.05 36.6667V23.3334H-0.05V36.6667H0.05ZM1.01284 38.9872C0.397305 38.3717 0.0510427 37.5371 0.05 36.6667L-0.05 36.6668C-0.0489255 37.5638 0.30787 38.4237 0.942124 39.0579L1.01284 38.9872ZM3.33339 39.9501C2.4629 39.949 1.62836 39.6027 1.01284 38.9872L0.942125 39.0579C1.57638 39.6922 2.4363 40.049 3.33327 40.05L3.33339 39.9501ZM26 39.9501H3.33333V40.05H26V39.9501ZM28.3205 38.9872C27.705 39.6027 26.8704 39.949 25.9999 39.9501L26.0001 40.05C26.897 40.049 27.757 39.6922 28.3912 39.0579L28.3205 38.9872ZM29.2833 36.6667C29.2823 37.5371 28.936 38.3717 28.3205 38.9872L28.3912 39.0579C29.0255 38.4237 29.3823 37.5638 29.3833 36.6668L29.2833 36.6667ZM29.2833 32V36.6667H29.3833V32H29.2833ZM38.6667 31.9501H29.3333V32.05H38.6667V31.9501ZM39.5741 31.5742C39.3334 31.8148 39.007 31.9501 38.6667 31.9501V32.05C39.0335 32.05 39.3854 31.9043 39.6448 31.6449L39.5741 31.5742ZM39.95 30.6667C39.95 31.0071 39.8148 31.3335 39.5741 31.5742L39.6448 31.6449C39.9043 31.3855 40.05 31.0336 40.05 30.6667H39.95ZM39.95 30.0001V30.6667H40.05V30.0001H39.95ZM39.5898 28.8792C39.8225 29.2068 39.9483 29.5984 39.95 30.0003L40.05 29.9998C40.0482 29.5774 39.916 29.1657 39.6714 28.8213L39.5898 28.8792ZM38.65 28.1699C39.0289 28.3038 39.3571 28.5516 39.5898 28.8792L39.6714 28.8213C39.4267 28.4769 39.0816 28.2164 38.6833 28.0756L38.65 28.1699ZM38.6167 27.3334V28.1227H38.7167V27.3334H38.6167ZM38.3732 26.3945C38.5323 26.6819 38.6161 27.005 38.6167 27.3335L38.7167 27.3333C38.716 26.9879 38.628 26.6483 38.4607 26.3461L38.3732 26.3945ZM37.7067 25.6897C37.9848 25.8646 38.2141 26.1071 38.3732 26.3945L38.4607 26.3461C38.2934 26.0439 38.0523 25.789 37.7599 25.6051L37.7067 25.6897ZM37.9438 24.8185C37.9197 25.1019 37.8331 25.3764 37.6901 25.6223L37.7766 25.6725C37.9269 25.4139 38.0181 25.1251 38.0434 24.827L37.9438 24.8185ZM37.8293 23.9835C37.9287 24.25 37.9678 24.5351 37.9438 24.8185L38.0434 24.827C38.0687 24.5289 38.0276 24.2289 37.923 23.9486L37.8293 23.9835ZM37.3687 23.2777C37.5725 23.476 37.7298 23.7171 37.8293 23.9835L37.923 23.9486C37.8184 23.6683 37.6529 23.4146 37.4384 23.206L37.3687 23.2777ZM36.6505 22.8367C36.9195 22.9288 37.1648 23.0794 37.3687 23.2777L37.4384 23.206C37.224 22.9974 36.9659 22.8389 36.6828 22.7421L36.6505 22.8367ZM36.6167 15.2107V22.7894H36.7167V15.2107H36.6167ZM37.3078 14.781C37.1165 14.9511 36.893 15.0811 36.6506 15.1634L36.6827 15.2581C36.9378 15.1715 37.1729 15.0347 37.3742 14.8557L37.3078 14.781ZM37.7643 14.173C37.6543 14.4041 37.499 14.6109 37.3078 14.781L37.3742 14.8557C37.5755 14.6767 37.7388 14.4592 37.8546 14.216L37.7643 14.173ZM37.9482 13.4353C37.9368 13.691 37.8743 13.9418 37.7643 14.173L37.8546 14.216C37.9703 13.9727 38.0361 13.7088 38.0481 13.4397L37.9482 13.4353ZM37.8305 12.6841C37.9195 12.9241 37.9595 13.1795 37.9482 13.4353L38.0481 13.4397C38.06 13.1706 38.0179 12.9019 37.9242 12.6493L37.8305 12.6841ZM38.6667 12.6167H37.8773V12.7167H38.6667V12.6167ZM39.5741 12.2408C39.3334 12.4815 39.007 12.6167 38.6667 12.6167V12.7167C39.0335 12.7167 39.3854 12.571 39.6448 12.3116L39.5741 12.2408ZM39.95 11.3334C39.95 11.6737 39.8148 12.0002 39.5741 12.2408L39.6448 12.3116C39.9043 12.0521 40.05 11.7003 40.05 11.3334H39.95ZM39.95 9.40005V11.3334H40.05V9.40005H39.95ZM39.8252 8.76767C39.9082 8.96811 39.9506 9.183 39.95 9.39992L40.05 9.40019C40.0506 9.17005 40.0056 8.94208 39.9176 8.72944L39.8252 8.76767ZM39.4667 8.23215C39.6204 8.38522 39.7423 8.56724 39.8252 8.76767L39.9176 8.72944C39.8296 8.51679 39.7003 8.32369 39.5373 8.16129L39.4667 8.23215ZM39.4353 8.20074L39.4666 8.23207L39.5373 8.16137L39.506 8.13003L39.4353 8.20074ZM19.0478 1.28339C18.5254 1.28577 18.025 1.49418 17.6553 1.86334L17.726 1.9341C18.077 1.58355 18.5522 1.38565 19.0482 1.38339L19.0478 1.28339ZM28.952 1.28339H19.048V1.38339H28.952V1.28339ZM29.725 1.44485C29.4806 1.34067 29.2181 1.2858 28.9524 1.28339L28.9515 1.38339C29.204 1.38568 29.4535 1.43783 29.6858 1.53684L29.725 1.44485ZM30.3764 1.89044C30.1907 1.70045 29.9694 1.54902 29.725 1.44485L29.6858 1.53684C29.918 1.63585 30.1284 1.77977 30.3049 1.96033L30.3764 1.89044ZM38.053 8.62914L30.3736 1.88781L30.3077 1.96296L37.987 8.7043L38.053 8.62914ZM9.98067 8.71672H38.02V8.61672H9.98067V8.71672ZM17.6577 1.86114L9.94768 8.62914L10.0137 8.7043L17.7236 1.9363L17.6577 1.86114ZM36.5068 25.1735C36.6412 25.0391 36.7167 24.8568 36.7167 24.6667H36.6167C36.6167 24.8303 36.5517 24.9871 36.436 25.1028L36.5068 25.1735ZM36 25.3834C36.1901 25.3834 36.3724 25.3079 36.5068 25.1735L36.436 25.1028C36.3204 25.2184 36.1635 25.2834 36 25.2834V25.3834ZM33.3333 25.3834H36V25.2834H33.3333V25.3834ZM32.8266 25.1735C32.961 25.3079 33.1433 25.3834 33.3333 25.3834V25.2834C33.1698 25.2834 33.0129 25.2184 32.8973 25.1028L32.8266 25.1735ZM32.6167 24.6667C32.6167 24.8568 32.6922 25.0391 32.8266 25.1735L32.8973 25.1028C32.7816 24.9871 32.7167 24.8303 32.7167 24.6667H32.6167ZM32.8266 24.16C32.6922 24.2944 32.6167 24.4766 32.6167 24.6667H32.7167C32.7167 24.5032 32.7816 24.3463 32.8973 24.2307L32.8266 24.16ZM33.3333 23.9501C33.1433 23.9501 32.961 24.0256 32.8266 24.16L32.8973 24.2307C33.0129 24.115 33.1698 24.0501 33.3333 24.0501V23.9501ZM36 23.9501H33.3333V24.0501H36V23.9501ZM36.5068 24.16C36.3724 24.0256 36.1901 23.9501 36 23.9501V24.0501C36.1635 24.0501 36.3204 24.115 36.436 24.2307L36.5068 24.16ZM36.7167 24.6667C36.7167 24.4766 36.6412 24.2944 36.5068 24.16L36.436 24.2307C36.5517 24.3463 36.6167 24.5032 36.6167 24.6667H36.7167ZM37.1734 26.8266C37.039 26.6922 36.8567 26.6167 36.6667 26.6167V26.7167C36.8302 26.7167 36.9871 26.7817 37.1027 26.8973L37.1734 26.8266ZM37.3833 27.3334C37.3833 27.1433 37.3078 26.961 37.1734 26.8266L37.1027 26.8973C37.2184 27.013 37.2833 27.1698 37.2833 27.3334H37.3833ZM37.3833 28.0001V27.3334H37.2833V28.0001H37.3833ZM29.3333 28.0501H37.3333V27.9501H29.3333V28.0501ZM29.2833 26.6667V28.0001H29.3833V26.6667H29.2833ZM36.6667 26.6167H29.3333V26.7167H36.6667V26.6167ZM34 22.7167H35.3333V22.6167H34V22.7167ZM33.95 15.3334V22.6667H34.05V15.3334H33.95ZM35.3333 15.2834H34V15.3834H35.3333V15.2834ZM35.3833 22.6667V15.3334H35.2833V22.6667H35.3833ZM32.7167 22.7894V15.2107H32.6167V22.7894H32.7167ZM32.0256 23.2191C32.2169 23.049 32.4403 22.919 32.6827 22.8367L32.6506 22.742C32.3955 22.8286 32.1604 22.9654 31.9591 23.1444L32.0256 23.2191ZM31.5691 23.8271C31.6791 23.596 31.8343 23.3892 32.0256 23.2191L31.9591 23.1444C31.7578 23.3234 31.5945 23.5409 31.4788 23.7841L31.5691 23.8271ZM31.3852 24.5648C31.3965 24.3091 31.4591 24.0583 31.5691 23.8271L31.4788 23.7841C31.363 24.0274 31.2972 24.2913 31.2853 24.5604L31.3852 24.5648ZM31.5029 25.316C31.4138 25.076 31.3738 24.8206 31.3852 24.5648L31.2853 24.5604C31.2733 24.8295 31.3154 25.0983 31.4091 25.3508L31.5029 25.316ZM29.3333 25.3834H31.456V25.2834H29.3333V25.3834ZM29.2833 23.3334V25.3334H29.3833V23.3334H29.2833ZM28.3205 21.0129C28.936 21.6284 29.2823 22.463 29.2833 23.3334L29.3833 23.3333C29.3823 22.4364 29.0255 21.5764 28.3912 20.9422L28.3205 21.0129ZM25.9999 20.0501C26.8704 20.0511 27.705 20.3974 28.3205 21.0129L28.3912 20.9422C27.757 20.3079 26.897 19.9511 26.0001 19.9501L25.9999 20.0501ZM25.95 15.2107V20.0001H26.05V15.2107H25.95ZM26.6411 14.781C26.4498 14.9511 26.2263 15.0811 25.9839 15.1634L26.0161 15.2581C26.2711 15.1715 26.5063 15.0347 26.7075 14.8557L26.6411 14.781ZM27.0976 14.173C26.9876 14.4041 26.8324 14.6109 26.6411 14.781L26.7075 14.8557C26.9088 14.6767 27.0722 14.4592 27.1879 14.216L27.0976 14.173ZM27.2815 13.4353C27.2701 13.691 27.2076 13.9418 27.0976 14.173L27.1879 14.216C27.3036 13.9727 27.3694 13.7088 27.3814 13.4397L27.2815 13.4353ZM27.1638 12.6841C27.2528 12.9241 27.2929 13.1795 27.2815 13.4353L27.3814 13.4397C27.3934 13.1706 27.3512 12.9019 27.2575 12.6493L27.1638 12.6841ZM31.456 12.6167H27.2107V12.7167H31.456V12.6167ZM31.3852 13.4353C31.3738 13.1795 31.4138 12.9241 31.5029 12.6841L31.4091 12.6493C31.3154 12.9019 31.2733 13.1706 31.2853 13.4397L31.3852 13.4353ZM31.5691 14.173C31.4591 13.9418 31.3965 13.691 31.3852 13.4353L31.2853 13.4397C31.2972 13.7088 31.363 13.9727 31.4788 14.216L31.5691 14.173ZM32.0256 14.781C31.8343 14.6109 31.6791 14.4041 31.5691 14.173L31.4788 14.216C31.5945 14.4592 31.7578 14.6767 31.9591 14.8557L32.0256 14.781ZM32.6827 15.1634C32.4403 15.0811 32.2169 14.9511 32.0256 14.781L31.9591 14.8557C32.1604 15.0347 32.3955 15.1715 32.6506 15.2581L32.6827 15.1634ZM23.2833 15.3334V20.0001H23.3833V15.3334H23.2833ZM24.6667 15.2834H23.3333V15.3834H24.6667V15.2834ZM24.7167 20.0001V15.3334H24.6167V20.0001H24.7167ZM23.3333 20.0501H24.6667V19.9501H23.3333V20.0501ZM25.8401 13.8401C25.9745 13.7057 26.05 13.5235 26.05 13.3334H25.95C25.95 13.4969 25.885 13.6538 25.7694 13.7694L25.8401 13.8401ZM25.3333 14.0501C25.5234 14.0501 25.7057 13.9745 25.8401 13.8401L25.7694 13.7694C25.6537 13.8851 25.4969 13.9501 25.3333 13.9501V14.0501ZM22.6667 14.0501H25.3333V13.9501H22.6667V14.0501ZM22.1599 13.8401C22.2943 13.9745 22.4766 14.0501 22.6667 14.0501V13.9501C22.5031 13.9501 22.3463 13.8851 22.2306 13.7694L22.1599 13.8401ZM21.95 13.3334C21.95 13.5235 22.0255 13.7057 22.1599 13.8401L22.2306 13.7694C22.115 13.6538 22.05 13.4969 22.05 13.3334H21.95ZM22.1599 12.8266C22.0255 12.961 21.95 13.1433 21.95 13.3334H22.05C22.05 13.1698 22.115 13.013 22.2306 12.8973L22.1599 12.8266ZM22.6667 12.6167C22.4766 12.6167 22.2943 12.6922 22.1599 12.8266L22.2306 12.8973C22.3463 12.7817 22.5031 12.7167 22.6667 12.7167V12.6167ZM25.3333 12.6167H22.6667V12.7167H25.3333V12.6167ZM25.8401 12.8266C25.7057 12.6922 25.5234 12.6167 25.3333 12.6167V12.7167C25.4969 12.7167 25.6537 12.7817 25.7694 12.8973L25.8401 12.8266ZM26.05 13.3334C26.05 13.1433 25.9745 12.961 25.8401 12.8266L25.7694 12.8973C25.885 13.013 25.95 13.1698 25.95 13.3334H26.05ZM22.05 20.0001V15.2107H21.95V20.0001H22.05ZM15.3333 20.0501H22V19.9501H15.3333V20.0501ZM15.2833 15.2107V20.0001H15.3833V15.2107H15.2833ZM15.9744 14.781C15.7831 14.9511 15.5597 15.0811 15.3173 15.1634L15.3494 15.2581C15.6045 15.1715 15.8396 15.0347 16.0409 14.8557L15.9744 14.781ZM16.4309 14.173C16.3209 14.4041 16.1657 14.6109 15.9744 14.781L16.0409 14.8557C16.2421 14.6767 16.4055 14.4592 16.5212 14.216L16.4309 14.173ZM16.6148 13.4353C16.6035 13.691 16.5409 13.9418 16.4309 14.173L16.5212 14.216C16.637 13.9727 16.7028 13.7088 16.7147 13.4397L16.6148 13.4353ZM16.4971 12.6841C16.5862 12.9241 16.6262 13.1795 16.6148 13.4353L16.7147 13.4397C16.7267 13.1706 16.6846 12.9019 16.5909 12.6493L16.4971 12.6841ZM20.7893 12.6167H16.544V12.7167H20.7893V12.6167ZM20.7185 13.4353C20.7071 13.1795 20.7471 12.9241 20.8362 12.6841L20.7425 12.6493C20.6487 12.9019 20.6066 13.1706 20.6186 13.4397L20.7185 13.4353ZM20.9024 14.173C20.7924 13.9418 20.7299 13.691 20.7185 13.4353L20.6186 13.4397C20.6305 13.7088 20.6963 13.9727 20.8121 14.216L20.9024 14.173ZM21.3589 14.781C21.1676 14.6109 21.0124 14.4041 20.9024 14.173L20.8121 14.216C20.9278 14.4592 21.0912 14.6767 21.2925 14.8557L21.3589 14.781ZM22.0161 15.1634C21.7737 15.0811 21.5502 14.9511 21.3589 14.781L21.2925 14.8557C21.4937 15.0347 21.7289 15.1715 21.9839 15.2581L22.0161 15.1634ZM15.1734 13.8401C15.3078 13.7057 15.3833 13.5235 15.3833 13.3334H15.2833C15.2833 13.4969 15.2184 13.6538 15.1027 13.7694L15.1734 13.8401ZM14.6667 14.0501C14.8567 14.0501 15.039 13.9745 15.1734 13.8401L15.1027 13.7694C14.9871 13.8851 14.8302 13.9501 14.6667 13.9501V14.0501ZM12 14.0501H14.6667V13.9501H12V14.0501ZM11.4932 13.8401C11.6276 13.9745 11.8099 14.0501 12 14.0501V13.9501C11.8364 13.9501 11.6796 13.8851 11.5639 13.7694L11.4932 13.8401ZM11.2833 13.3334C11.2833 13.5235 11.3588 13.7057 11.4932 13.8401L11.5639 13.7694C11.4483 13.6538 11.3833 13.4969 11.3833 13.3334H11.2833ZM11.4932 12.8266C11.3588 12.961 11.2833 13.1433 11.2833 13.3334H11.3833C11.3833 13.1698 11.4483 13.013 11.5639 12.8973L11.4932 12.8266ZM12 12.6167C11.8099 12.6167 11.6276 12.6922 11.4932 12.8266L11.5639 12.8973C11.6796 12.7817 11.8364 12.7167 12 12.7167V12.6167ZM14.6667 12.6167H12V12.7167H14.6667V12.6167ZM15.1734 12.8266C15.039 12.6922 14.8567 12.6167 14.6667 12.6167V12.7167C14.8302 12.7167 14.9871 12.7817 15.1027 12.8973L15.1734 12.8266ZM15.3833 13.3334C15.3833 13.1433 15.3078 12.961 15.1734 12.8266L15.1027 12.8973C15.2184 13.013 15.2833 13.1698 15.2833 13.3334H15.3833ZM14 15.2834H12.6667V15.3834H14V15.2834ZM14.05 20.0001V15.3334H13.95V20.0001H14.05ZM12.6667 20.0501H14V19.9501H12.6667V20.0501ZM12.6167 15.3334V20.0001H12.7167V15.3334H12.6167ZM27.4496 38.1163C27.834 37.7318 28.05 37.2104 28.05 36.6667H27.95C27.95 37.1839 27.7446 37.6799 27.3789 38.0456L27.4496 38.1163ZM26 38.7167C26.5437 38.7167 27.0651 38.5007 27.4496 38.1163L27.3789 38.0456C27.0132 38.4113 26.5172 38.6167 26 38.6167V38.7167ZM3.33333 38.7167H26V38.6167H3.33333V38.7167ZM1.88376 38.1163C2.26821 38.5007 2.78964 38.7167 3.33333 38.7167V38.6167C2.81616 38.6167 2.32017 38.4113 1.95447 38.0456L1.88376 38.1163ZM1.28333 36.6667C1.28333 37.2104 1.49931 37.7318 1.88376 38.1163L1.95447 38.0456C1.58878 37.6799 1.38333 37.1839 1.38333 36.6667H1.28333ZM1.28333 23.3334V36.6667H1.38333V23.3334H1.28333ZM1.88376 21.8838C1.49931 22.2683 1.28333 22.7897 1.28333 23.3334H1.38333C1.38333 22.8162 1.58878 22.3202 1.95447 21.9545L1.88376 21.8838ZM3.33333 21.2834C2.78964 21.2834 2.26821 21.4994 1.88376 21.8838L1.95447 21.9545C2.32017 21.5888 2.81616 21.3834 3.33333 21.3834V21.2834ZM26 21.2834H3.33333V21.3834H26V21.2834ZM27.4496 21.8838C27.0651 21.4994 26.5437 21.2834 26 21.2834V21.3834C26.5172 21.3834 27.0132 21.5888 27.3789 21.9545L27.4496 21.8838ZM28.05 23.3334C28.05 22.7897 27.834 22.2683 27.4496 21.8838L27.3789 21.9545C27.7445 22.3202 27.95 22.8162 27.95 23.3334H28.05ZM28.05 36.6667V23.3334H27.95V36.6667H28.05ZM29.3333 30.7167H38.6667V30.6167H29.3333V30.7167ZM29.2833 29.3334V30.6667H29.3833V29.3334H29.2833ZM38 29.2834H29.3333V29.3834H38V29.2834ZM38.5068 29.4933C38.3724 29.3589 38.1901 29.2834 38 29.2834V29.3834C38.1635 29.3834 38.3204 29.4484 38.436 29.564L38.5068 29.4933ZM38.7167 30.0001C38.7167 29.81 38.6412 29.6277 38.5068 29.4933L38.436 29.564C38.5517 29.6796 38.6167 29.8365 38.6167 30.0001H38.7167ZM38.7167 30.6667V30.0001H38.6167V30.6667H38.7167ZM36.5068 13.8401C36.6412 13.7057 36.7167 13.5235 36.7167 13.3334H36.6167C36.6167 13.4969 36.5517 13.6538 36.436 13.7694L36.5068 13.8401ZM36 14.0501C36.1901 14.0501 36.3724 13.9745 36.5068 13.8401L36.436 13.7694C36.3204 13.8851 36.1635 13.9501 36 13.9501V14.0501ZM33.3333 14.0501H36V13.9501H33.3333V14.0501ZM32.8266 13.8401C32.961 13.9745 33.1433 14.0501 33.3333 14.0501V13.9501C33.1698 13.9501 33.0129 13.8851 32.8973 13.7694L32.8266 13.8401ZM32.6167 13.3334C32.6167 13.5235 32.6922 13.7057 32.8266 13.8401L32.8973 13.7694C32.7816 13.6538 32.7167 13.4969 32.7167 13.3334H32.6167ZM32.8266 12.8266C32.6922 12.961 32.6167 13.1433 32.6167 13.3334H32.7167C32.7167 13.1698 32.7816 13.013 32.8973 12.8973L32.8266 12.8266ZM33.3333 12.6167C33.1433 12.6167 32.961 12.6922 32.8266 12.8266L32.8973 12.8973C33.0129 12.7817 33.1698 12.7167 33.3333 12.7167V12.6167ZM36 12.6167H33.3333V12.7167H36V12.6167ZM36.5068 12.8266C36.3724 12.6922 36.1901 12.6167 36 12.6167V12.7167C36.1635 12.7167 36.3204 12.7817 36.436 12.8973L36.5068 12.8266ZM36.7167 13.3334C36.7167 13.1433 36.6412 12.961 36.5068 12.8266L36.436 12.8973C36.5517 13.013 36.6167 13.1698 36.6167 13.3334H36.7167ZM9.33333 11.3834H36V11.2834H9.33333V11.3834ZM9.28333 10.0001V11.3334H9.38333V10.0001H9.28333ZM38.6667 9.95005H9.33333V10.0501H38.6667V9.95005ZM38.7167 11.3334V10.0001H38.6167V11.3334H38.7167ZM36 11.3834H38.6667V11.2834H36V11.3834ZM6.66797 27.2832H4.0013V27.3832H6.66797V27.2832ZM7.57542 26.9073C7.33475 27.148 7.00833 27.2832 6.66797 27.2832V27.3832C7.03485 27.3832 7.38671 27.2374 7.64613 26.978L7.57542 26.9073ZM7.9513 25.9998C7.9513 26.3402 7.81609 26.6666 7.57542 26.9073L7.64613 26.978C7.90556 26.7186 8.0513 26.3667 8.0513 25.9998H7.9513ZM7.9513 23.9998V25.9998H8.0513V23.9998H7.9513ZM7.57542 23.0924C7.81609 23.3331 7.9513 23.6595 7.9513 23.9998H8.0513C8.0513 23.633 7.90556 23.2811 7.64613 23.0217L7.57542 23.0924ZM6.66797 22.7165C7.00833 22.7165 7.33475 22.8517 7.57542 23.0924L7.64613 23.0217C7.38671 22.7622 7.03485 22.6165 6.66797 22.6165V22.7165ZM4.0013 22.7165H6.66797V22.6165H4.0013V22.7165ZM3.09385 23.0924C3.33452 22.8517 3.66094 22.7165 4.0013 22.7165V22.6165C3.63442 22.6165 3.28256 22.7622 3.02314 23.0217L3.09385 23.0924ZM2.71797 23.9998C2.71797 23.6595 2.85318 23.3331 3.09385 23.0924L3.02314 23.0217C2.76371 23.2811 2.61797 23.633 2.61797 23.9998H2.71797ZM2.71797 25.9998V23.9998H2.61797V25.9998H2.71797ZM3.09385 26.9073C2.85318 26.6666 2.71797 26.3402 2.71797 25.9998H2.61797C2.61797 26.3667 2.76371 26.7186 3.02314 26.978L3.09385 26.9073ZM4.0013 27.2832C3.66094 27.2832 3.33452 27.148 3.09385 26.9073L3.02314 26.978C3.28256 27.2374 3.63442 27.3832 4.0013 27.3832V27.2832ZM6.66797 23.9498H4.0013V24.0498H6.66797V23.9498ZM6.71797 25.9998V23.9998H6.61797V25.9998H6.71797ZM4.0013 26.0498H6.66797V25.9498H4.0013V26.0498ZM3.9513 23.9998V25.9998H4.0513V23.9998H3.9513ZM15.3346 7.38334H22.0013V7.28334H15.3346V7.38334ZM14.8279 7.17343C14.9623 7.30783 15.1446 7.38334 15.3346 7.38334V7.28334C15.1711 7.28334 15.0142 7.21837 14.8986 7.10272L14.8279 7.17343ZM14.618 6.66667C14.618 6.85674 14.6935 7.03903 14.8279 7.17343L14.8986 7.10272C14.7829 6.98707 14.718 6.83022 14.718 6.66667H14.618ZM14.8279 6.15991C14.6935 6.29431 14.618 6.4766 14.618 6.66667H14.718C14.718 6.50312 14.7829 6.34627 14.8986 6.23062L14.8279 6.15991ZM15.3346 5.95C15.1446 5.95 14.9623 6.02551 14.8279 6.15991L14.8986 6.23062C15.0142 6.11497 15.1711 6.05 15.3346 6.05V5.95ZM22.0013 5.95H15.3346V6.05H22.0013V5.95ZM22.508 6.15991C22.3736 6.02551 22.1913 5.95 22.0013 5.95V6.05C22.1648 6.05 22.3217 6.11497 22.4373 6.23062L22.508 6.15991ZM22.7179 6.66667C22.7179 6.4766 22.6424 6.29431 22.508 6.15991L22.4373 6.23062C22.553 6.34627 22.6179 6.50312 22.6179 6.66667H22.7179ZM22.508 7.17343C22.6424 7.03903 22.7179 6.85674 22.7179 6.66667H22.6179C22.6179 6.83022 22.553 6.98707 22.4373 7.10272L22.508 7.17343ZM22.0013 7.38334C22.1913 7.38334 22.3736 7.30783 22.508 7.17343L22.4373 7.10272C22.3217 7.21837 22.1648 7.28334 22.0013 7.28334V7.38334ZM32.6653 7.28334H25.9987V7.38334H32.6653V7.28334ZM33.1014 7.10272C32.9857 7.21837 32.8289 7.28334 32.6653 7.28334V7.38334C32.8554 7.38334 33.0377 7.30783 33.1721 7.17343L33.1014 7.10272ZM33.282 6.66667C33.282 6.83022 33.217 6.98707 33.1014 7.10272L33.1721 7.17343C33.3065 7.03903 33.382 6.85674 33.382 6.66667H33.282ZM33.1014 6.23062C33.217 6.34627 33.282 6.50312 33.282 6.66667H33.382C33.382 6.4766 33.3065 6.29431 33.1721 6.15991L33.1014 6.23062ZM32.6653 6.05C32.8289 6.05 32.9857 6.11497 33.1014 6.23062L33.1721 6.15991C33.0377 6.02551 32.8554 5.95 32.6653 5.95V6.05ZM25.9987 6.05H32.6653V5.95H25.9987V6.05ZM25.5626 6.23062C25.6783 6.11497 25.8351 6.05 25.9987 6.05V5.95C25.8086 5.95 25.6263 6.02551 25.4919 6.15991L25.5626 6.23062ZM25.382 6.66667C25.382 6.50312 25.447 6.34627 25.5626 6.23062L25.4919 6.15991C25.3575 6.29431 25.282 6.4766 25.282 6.66667H25.382ZM25.5626 7.10272C25.447 6.98707 25.382 6.83022 25.382 6.66667H25.282C25.282 6.85674 25.3575 7.03903 25.4919 7.17343L25.5626 7.10272ZM25.9987 7.28334C25.8351 7.28334 25.6783 7.21837 25.5626 7.10272L25.4919 7.17343C25.6263 7.30783 25.8086 7.38334 25.9987 7.38334V7.28334ZM3.28203 29.3332V29.9998H3.38203V29.3332H3.28203ZM3.49194 28.8264C3.35754 28.9608 3.28203 29.1431 3.28203 29.3332H3.38203C3.38203 29.1696 3.447 29.0128 3.56265 28.8971L3.49194 28.8264ZM3.9987 28.6165C3.80863 28.6165 3.62634 28.692 3.49194 28.8264L3.56265 28.8971C3.6783 28.7815 3.83515 28.7165 3.9987 28.7165V28.6165ZM4.50546 28.8264C4.37106 28.692 4.18877 28.6165 3.9987 28.6165V28.7165C4.16225 28.7165 4.3191 28.7815 4.43475 28.8971L4.50546 28.8264ZM4.71537 29.3332C4.71537 29.1431 4.63986 28.9608 4.50546 28.8264L4.43475 28.8971C4.5504 29.0128 4.61537 29.1696 4.61537 29.3332H4.71537ZM4.71537 29.9998V29.3332H4.61537V29.9998H4.71537ZM4.50546 30.5066C4.63986 30.3722 4.71537 30.1899 4.71537 29.9998H4.61537C4.61537 30.1634 4.5504 30.3202 4.43475 30.4359L4.50546 30.5066ZM3.9987 30.7165C4.18877 30.7165 4.37106 30.641 4.50546 30.5066L4.43475 30.4359C4.3191 30.5515 4.16225 30.6165 3.9987 30.6165V30.7165ZM3.49194 30.5066C3.62634 30.641 3.80863 30.7165 3.9987 30.7165V30.6165C3.83515 30.6165 3.6783 30.5515 3.56265 30.4359L3.49194 30.5066ZM3.28203 29.9998C3.28203 30.1899 3.35754 30.3722 3.49194 30.5066L3.56265 30.4359C3.447 30.3202 3.38203 30.1634 3.38203 29.9998H3.28203ZM7.28334 29.3332V29.9998H7.38334V29.3332H7.28334ZM7.10272 28.8971C7.21837 29.0128 7.28334 29.1696 7.28334 29.3332H7.38334C7.38334 29.1431 7.30783 28.9608 7.17343 28.8264L7.10272 28.8971ZM6.66667 28.7165C6.83022 28.7165 6.98707 28.7815 7.10272 28.8971L7.17343 28.8264C7.03903 28.692 6.85674 28.6165 6.66667 28.6165V28.7165ZM6.23062 28.8971C6.34627 28.7815 6.50312 28.7165 6.66667 28.7165V28.6165C6.4766 28.6165 6.29431 28.692 6.15991 28.8264L6.23062 28.8971ZM6.05 29.3332C6.05 29.1696 6.11497 29.0128 6.23062 28.8971L6.15991 28.8264C6.02551 28.9608 5.95 29.1431 5.95 29.3332H6.05ZM6.05 29.9998V29.3332H5.95V29.9998H6.05ZM6.23062 30.4359C6.11497 30.3202 6.05 30.1634 6.05 29.9998H5.95C5.95 30.1899 6.02551 30.3722 6.15991 30.5066L6.23062 30.4359ZM6.66667 30.6165C6.50312 30.6165 6.34627 30.5515 6.23062 30.4359L6.15991 30.5066C6.29431 30.641 6.4766 30.7165 6.66667 30.7165V30.6165ZM7.10272 30.4359C6.98707 30.5515 6.83022 30.6165 6.66667 30.6165V30.7165C6.85674 30.7165 7.03903 30.641 7.17343 30.5066L7.10272 30.4359ZM7.28334 29.9998C7.28334 30.1634 7.21837 30.3202 7.10272 30.4359L7.17343 30.5066C7.30783 30.3722 7.38334 30.1899 7.38334 29.9998H7.28334ZM9.33464 28.6165C9.14456 28.6165 8.96228 28.692 8.82788 28.8264L8.89859 28.8971C9.01423 28.7815 9.17109 28.7165 9.33464 28.7165V28.6165ZM9.8414 28.8264C9.707 28.692 9.52471 28.6165 9.33464 28.6165V28.7165C9.49819 28.7165 9.65504 28.7815 9.77069 28.8971L9.8414 28.8264ZM10.0513 29.3332C10.0513 29.1431 9.9758 28.9608 9.8414 28.8264L9.77069 28.8971C9.88634 29.0128 9.95131 29.1696 9.95131 29.3332H10.0513ZM10.0513 29.9998V29.3332H9.95131V29.9998H10.0513ZM9.8414 30.5066C9.9758 30.3722 10.0513 30.1899 10.0513 29.9998H9.95131C9.95131 30.1634 9.88634 30.3202 9.77069 30.4359L9.8414 30.5066ZM9.33464 30.7165C9.52471 30.7165 9.707 30.641 9.8414 30.5066L9.77069 30.4359C9.65504 30.5515 9.49819 30.6165 9.33464 30.6165V30.7165ZM8.82788 30.5066C8.96228 30.641 9.14456 30.7165 9.33464 30.7165V30.6165C9.17109 30.6165 9.01423 30.5515 8.89859 30.4359L8.82788 30.5066ZM8.61797 29.9998C8.61797 30.1899 8.69347 30.3722 8.82788 30.5066L8.89859 30.4359C8.78294 30.3202 8.71797 30.1634 8.71797 29.9998H8.61797ZM8.61797 29.3332V29.9998H8.71797V29.3332H8.61797ZM8.82788 28.8264C8.69347 28.9608 8.61797 29.1431 8.61797 29.3332H8.71797C8.71797 29.1696 8.78294 29.0128 8.89859 28.8971L8.82788 28.8264ZM12.4348 30.4359C12.3191 30.5515 12.1623 30.6165 11.9987 30.6165V30.7165C12.1888 30.7165 12.3711 30.641 12.5055 30.5066L12.4348 30.4359ZM12.6154 29.9998C12.6154 30.1634 12.5504 30.3202 12.4348 30.4359L12.5055 30.5066C12.6399 30.3722 12.7154 30.1899 12.7154 29.9998H12.6154ZM12.6154 29.3332V29.9998H12.7154V29.3332H12.6154ZM12.4348 28.8971C12.5504 29.0128 12.6154 29.1696 12.6154 29.3332H12.7154C12.7154 29.1431 12.6399 28.9608 12.5055 28.8264L12.4348 28.8971ZM11.9987 28.7165C12.1623 28.7165 12.3191 28.7815 12.4348 28.8971L12.5055 28.8264C12.3711 28.692 12.1888 28.6165 11.9987 28.6165V28.7165ZM11.5626 28.8971C11.6783 28.7815 11.8351 28.7165 11.9987 28.7165V28.6165C11.8086 28.6165 11.6263 28.692 11.4919 28.8264L11.5626 28.8971ZM11.382 29.3332C11.382 29.1696 11.447 29.0128 11.5626 28.8971L11.4919 28.8264C11.3575 28.9608 11.282 29.1431 11.282 29.3332H11.382ZM11.382 29.9998V29.3332H11.282V29.9998H11.382ZM11.5626 30.4359C11.447 30.3202 11.382 30.1634 11.382 29.9998H11.282C11.282 30.1899 11.3575 30.3722 11.4919 30.5066L11.5626 30.4359ZM11.9987 30.6165C11.8351 30.6165 11.6783 30.5515 11.5626 30.4359L11.4919 30.5066C11.6263 30.641 11.8086 30.7165 11.9987 30.7165V30.6165ZM17.3346 28.6165C17.1446 28.6165 16.9623 28.692 16.8279 28.8264L16.8986 28.8971C17.0142 28.7815 17.1711 28.7165 17.3346 28.7165V28.6165ZM17.8414 28.8264C17.707 28.692 17.5247 28.6165 17.3346 28.6165V28.7165C17.4982 28.7165 17.655 28.7815 17.7707 28.8971L17.8414 28.8264ZM18.0513 29.3332C18.0513 29.1431 17.9758 28.9608 17.8414 28.8264L17.7707 28.8971C17.8863 29.0128 17.9513 29.1696 17.9513 29.3332H18.0513ZM18.0513 29.9998V29.3332H17.9513V29.9998H18.0513ZM17.8414 30.5066C17.9758 30.3722 18.0513 30.1899 18.0513 29.9998H17.9513C17.9513 30.1634 17.8863 30.3202 17.7707 30.4359L17.8414 30.5066ZM17.3346 30.7165C17.5247 30.7165 17.707 30.641 17.8414 30.5066L17.7707 30.4359C17.655 30.5515 17.4982 30.6165 17.3346 30.6165V30.7165ZM16.8279 30.5066C16.9623 30.641 17.1446 30.7165 17.3346 30.7165V30.6165C17.1711 30.6165 17.0142 30.5515 16.8986 30.4359L16.8279 30.5066ZM16.618 29.9998C16.618 30.1899 16.6935 30.3722 16.8279 30.5066L16.8986 30.4359C16.7829 30.3202 16.718 30.1634 16.718 29.9998H16.618ZM16.618 29.3332V29.9998H16.718V29.3332H16.618ZM16.8279 28.8264C16.6935 28.9608 16.618 29.1431 16.618 29.3332H16.718C16.718 29.1696 16.7829 29.0128 16.8986 28.8971L16.8279 28.8264ZM19.5626 28.8971C19.6783 28.7815 19.8351 28.7165 19.9987 28.7165V28.6165C19.8086 28.6165 19.6263 28.692 19.4919 28.8264L19.5626 28.8971ZM19.382 29.3332C19.382 29.1696 19.447 29.0128 19.5626 28.8971L19.4919 28.8264C19.3575 28.9608 19.282 29.1431 19.282 29.3332H19.382ZM19.382 29.9998V29.3332H19.282V29.9998H19.382ZM19.5626 30.4359C19.447 30.3202 19.382 30.1634 19.382 29.9998H19.282C19.282 30.1899 19.3575 30.3722 19.4919 30.5066L19.5626 30.4359ZM19.9987 30.6165C19.8351 30.6165 19.6783 30.5515 19.5626 30.4359L19.4919 30.5066C19.6263 30.641 19.8086 30.7165 19.9987 30.7165V30.6165ZM20.4347 30.4359C20.3191 30.5515 20.1622 30.6165 19.9987 30.6165V30.7165C20.1888 30.7165 20.371 30.641 20.5054 30.5066L20.4347 30.4359ZM20.6153 29.9998C20.6153 30.1634 20.5504 30.3202 20.4347 30.4359L20.5054 30.5066C20.6398 30.3722 20.7153 30.1899 20.7153 29.9998H20.6153ZM20.6153 29.3332V29.9998H20.7153V29.3332H20.6153ZM20.4347 28.8971C20.5504 29.0128 20.6153 29.1696 20.6153 29.3332H20.7153C20.7153 29.1431 20.6398 28.9608 20.5054 28.8264L20.4347 28.8971ZM19.9987 28.7165C20.1622 28.7165 20.3191 28.7815 20.4347 28.8971L20.5054 28.8264C20.371 28.692 20.1888 28.6165 19.9987 28.6165V28.7165ZM22.6667 28.6165C22.4766 28.6165 22.2943 28.692 22.1599 28.8264L22.2306 28.8971C22.3463 28.7815 22.5031 28.7165 22.6667 28.7165V28.6165ZM23.1734 28.8264C23.039 28.692 22.8567 28.6165 22.6667 28.6165V28.7165C22.8302 28.7165 22.987 28.7815 23.1027 28.8971L23.1734 28.8264ZM23.3833 29.3332C23.3833 29.1431 23.3078 28.9608 23.1734 28.8264L23.1027 28.8971C23.2183 29.0128 23.2833 29.1696 23.2833 29.3332H23.3833ZM23.3833 29.9998V29.3332H23.2833V29.9998H23.3833ZM23.1734 30.5066C23.3078 30.3722 23.3833 30.1899 23.3833 29.9998H23.2833C23.2833 30.1634 23.2183 30.3202 23.1027 30.4359L23.1734 30.5066ZM22.6667 30.7165C22.8567 30.7165 23.039 30.641 23.1734 30.5066L23.1027 30.4359C22.987 30.5515 22.8302 30.6165 22.6667 30.6165V30.7165ZM22.1599 30.5066C22.2943 30.641 22.4766 30.7165 22.6667 30.7165V30.6165C22.5031 30.6165 22.3463 30.5515 22.2306 30.4359L22.1599 30.5066ZM21.95 29.9998C21.95 30.1899 22.0255 30.3722 22.1599 30.5066L22.2306 30.4359C22.115 30.3202 22.05 30.1634 22.05 29.9998H21.95ZM21.95 29.3332V29.9998H22.05V29.3332H21.95ZM22.1599 28.8264C22.0255 28.9608 21.95 29.1431 21.95 29.3332H22.05C22.05 29.1696 22.115 29.0128 22.2306 28.8971L22.1599 28.8264ZM3.33464 32.05H4.66797V31.95H3.33464V32.05ZM2.89859 32.2306C3.01423 32.115 3.17109 32.05 3.33464 32.05V31.95C3.14457 31.95 2.96228 32.0255 2.82788 32.1599L2.89859 32.2306ZM2.71797 32.6667C2.71797 32.5031 2.78294 32.3463 2.89859 32.2306L2.82788 32.1599C2.69347 32.2943 2.61797 32.4766 2.61797 32.6667H2.71797ZM2.89859 33.1027C2.78294 32.987 2.71797 32.8302 2.71797 32.6667H2.61797C2.61797 32.8567 2.69348 33.039 2.82788 33.1734L2.89859 33.1027ZM3.33464 33.2833C3.17109 33.2833 3.01423 33.2183 2.89859 33.1027L2.82788 33.1734C2.96228 33.3078 3.14457 33.3833 3.33464 33.3833V33.2833ZM4.66797 33.2833H3.33464V33.3833H4.66797V33.2833ZM5.10402 33.1027C4.98838 33.2183 4.83153 33.2833 4.66797 33.2833V33.3833C4.85805 33.3833 5.04033 33.3078 5.17473 33.1734L5.10402 33.1027ZM5.28464 32.6667C5.28464 32.8302 5.21967 32.987 5.10402 33.1027L5.17473 33.1734C5.30914 33.039 5.38464 32.8567 5.38464 32.6667H5.28464ZM5.10402 32.2306C5.21967 32.3463 5.28464 32.5031 5.28464 32.6667H5.38464C5.38464 32.4766 5.30914 32.2943 5.17473 32.1599L5.10402 32.2306ZM4.66797 32.05C4.83153 32.05 4.98838 32.115 5.10402 32.2306L5.17473 32.1599C5.04033 32.0255 4.85805 31.95 4.66797 31.95V32.05ZM8.66797 31.95H7.33464V32.05H8.66797V31.95ZM9.17473 32.1599C9.04033 32.0255 8.85805 31.95 8.66797 31.95V32.05C8.83152 32.05 8.98838 32.115 9.10402 32.2306L9.17473 32.1599ZM9.38464 32.6667C9.38464 32.4766 9.30914 32.2943 9.17473 32.1599L9.10402 32.2306C9.21967 32.3463 9.28464 32.5031 9.28464 32.6667H9.38464ZM9.17474 33.1734C9.30914 33.039 9.38464 32.8567 9.38464 32.6667H9.28464C9.28464 32.8302 9.21967 32.987 9.10402 33.1027L9.17474 33.1734ZM8.66797 33.3833C8.85805 33.3833 9.04033 33.3078 9.17473 33.1734L9.10402 33.1027C8.98838 33.2183 8.83152 33.2833 8.66797 33.2833V33.3833ZM7.33464 33.3833H8.66797V33.2833H7.33464V33.3833ZM6.82788 33.1734C6.96228 33.3078 7.14457 33.3833 7.33464 33.3833V33.2833C7.17109 33.2833 7.01423 33.2183 6.89859 33.1027L6.82788 33.1734ZM6.61797 32.6667C6.61797 32.8567 6.69348 33.039 6.82788 33.1734L6.89859 33.1027C6.78294 32.987 6.71797 32.8302 6.71797 32.6667H6.61797ZM6.82788 32.1599C6.69347 32.2943 6.61797 32.4766 6.61797 32.6667H6.71797C6.71797 32.5031 6.78294 32.3463 6.89859 32.2306L6.82788 32.1599ZM7.33464 31.95C7.14457 31.95 6.96228 32.0255 6.82788 32.1599L6.89859 32.2306C7.01423 32.115 7.17109 32.05 7.33464 32.05V31.95ZM3.33464 34.7165H4.66797V34.6165H3.33464V34.7165ZM2.89859 34.8971C3.01423 34.7815 3.17109 34.7165 3.33464 34.7165V34.6165C3.14457 34.6165 2.96228 34.692 2.82788 34.8264L2.89859 34.8971ZM2.71797 35.3332C2.71797 35.1696 2.78294 35.0128 2.89859 34.8971L2.82788 34.8264C2.69347 34.9608 2.61797 35.1431 2.61797 35.3332H2.71797ZM2.89859 35.7692C2.78294 35.6536 2.71797 35.4967 2.71797 35.3332H2.61797C2.61797 35.5232 2.69348 35.7055 2.82788 35.8399L2.89859 35.7692ZM3.33464 35.9498C3.17109 35.9498 3.01423 35.8848 2.89859 35.7692L2.82788 35.8399C2.96228 35.9743 3.14457 36.0498 3.33464 36.0498V35.9498ZM4.66797 35.9498H3.33464V36.0498H4.66797V35.9498ZM5.10402 35.7692C4.98838 35.8848 4.83153 35.9498 4.66797 35.9498V36.0498C4.85805 36.0498 5.04033 35.9743 5.17473 35.8399L5.10402 35.7692ZM5.28464 35.3332C5.28464 35.4967 5.21967 35.6536 5.10402 35.7692L5.17473 35.8399C5.30914 35.7055 5.38464 35.5232 5.38464 35.3332H5.28464ZM5.10402 34.8971C5.21967 35.0128 5.28464 35.1696 5.28464 35.3332H5.38464C5.38464 35.1431 5.30914 34.9608 5.17473 34.8264L5.10402 34.8971ZM4.66797 34.7165C4.83153 34.7165 4.98838 34.7815 5.10402 34.8971L5.17473 34.8264C5.04033 34.692 4.85805 34.6165 4.66797 34.6165V34.7165ZM8.66797 34.6165H7.33464V34.7165H8.66797V34.6165ZM9.17473 34.8264C9.04033 34.692 8.85805 34.6165 8.66797 34.6165V34.7165C8.83152 34.7165 8.98838 34.7815 9.10402 34.8971L9.17473 34.8264ZM9.38464 35.3332C9.38464 35.1431 9.30914 34.9608 9.17473 34.8264L9.10402 34.8971C9.21967 35.0128 9.28464 35.1696 9.28464 35.3332H9.38464ZM9.17474 35.8399C9.30914 35.7055 9.38464 35.5232 9.38464 35.3332H9.28464C9.28464 35.4967 9.21967 35.6536 9.10402 35.7692L9.17474 35.8399ZM8.66797 36.0498C8.85805 36.0498 9.04033 35.9743 9.17473 35.8399L9.10402 35.7692C8.98838 35.8848 8.83152 35.9498 8.66797 35.9498V36.0498ZM7.33464 36.0498H8.66797V35.9498H7.33464V36.0498ZM6.82788 35.8399C6.96228 35.9743 7.14457 36.0498 7.33464 36.0498V35.9498C7.17109 35.9498 7.01423 35.8848 6.89859 35.7692L6.82788 35.8399ZM6.61797 35.3332C6.61797 35.5232 6.69348 35.7055 6.82788 35.8399L6.89859 35.7692C6.78294 35.6536 6.71797 35.4967 6.71797 35.3332H6.61797ZM6.82788 34.8264C6.69347 34.9608 6.61797 35.1431 6.61797 35.3332H6.71797C6.71797 35.1696 6.78294 35.0128 6.89859 34.8971L6.82788 34.8264ZM7.33464 34.6165C7.14457 34.6165 6.96228 34.692 6.82788 34.8264L6.89859 34.8971C7.01423 34.7815 7.17109 34.7165 7.33464 34.7165V34.6165ZM11.3346 32.05H12.668V31.95H11.3346V32.05ZM10.8986 32.2306C11.0142 32.115 11.1711 32.05 11.3346 32.05V31.95C11.1446 31.95 10.9623 32.0255 10.8279 32.1599L10.8986 32.2306ZM10.718 32.6667C10.718 32.5031 10.7829 32.3463 10.8986 32.2306L10.8279 32.1599C10.6935 32.2943 10.618 32.4766 10.618 32.6667H10.718ZM10.8986 33.1027C10.7829 32.987 10.718 32.8302 10.718 32.6667H10.618C10.618 32.8567 10.6935 33.039 10.8279 33.1734L10.8986 33.1027ZM11.3346 33.2833C11.1711 33.2833 11.0142 33.2183 10.8986 33.1027L10.8279 33.1734C10.9623 33.3078 11.1446 33.3833 11.3346 33.3833V33.2833ZM12.668 33.2833H11.3346V33.3833H12.668V33.2833ZM13.104 33.1027C12.9884 33.2183 12.8315 33.2833 12.668 33.2833V33.3833C12.858 33.3833 13.0403 33.3078 13.1747 33.1734L13.104 33.1027ZM13.2846 32.6667C13.2846 32.8302 13.2197 32.987 13.104 33.1027L13.1747 33.1734C13.3091 33.039 13.3846 32.8567 13.3846 32.6667H13.2846ZM13.104 32.2306C13.2197 32.3463 13.2846 32.5031 13.2846 32.6667H13.3846C13.3846 32.4766 13.3091 32.2943 13.1747 32.1599L13.104 32.2306ZM12.668 32.05C12.8315 32.05 12.9884 32.115 13.104 32.2306L13.1747 32.1599C13.0403 32.0255 12.858 31.95 12.668 31.95V32.05ZM16.668 31.95H15.3346V32.05H16.668V31.95ZM17.1747 32.1599C17.0403 32.0255 16.858 31.95 16.668 31.95V32.05C16.8315 32.05 16.9884 32.115 17.104 32.2306L17.1747 32.1599ZM17.3846 32.6667C17.3846 32.4766 17.3091 32.2943 17.1747 32.1599L17.104 32.2306C17.2197 32.3463 17.2846 32.5031 17.2846 32.6667H17.3846ZM17.1747 33.1734C17.3091 33.039 17.3846 32.8567 17.3846 32.6667H17.2846C17.2846 32.8302 17.2197 32.987 17.104 33.1027L17.1747 33.1734ZM16.668 33.3833C16.858 33.3833 17.0403 33.3078 17.1747 33.1734L17.104 33.1027C16.9884 33.2183 16.8315 33.2833 16.668 33.2833V33.3833ZM15.3346 33.3833H16.668V33.2833H15.3346V33.3833ZM14.8279 33.1734C14.9623 33.3078 15.1446 33.3833 15.3346 33.3833V33.2833C15.1711 33.2833 15.0142 33.2183 14.8986 33.1027L14.8279 33.1734ZM14.618 32.6667C14.618 32.8567 14.6935 33.039 14.8279 33.1734L14.8986 33.1027C14.7829 32.987 14.718 32.8302 14.718 32.6667H14.618ZM14.8279 32.1599C14.6935 32.2943 14.618 32.4766 14.618 32.6667H14.718C14.718 32.5031 14.7829 32.3463 14.8986 32.2306L14.8279 32.1599ZM15.3346 31.95C15.1446 31.95 14.9623 32.0255 14.8279 32.1599L14.8986 32.2306C15.0142 32.115 15.1711 32.05 15.3346 32.05V31.95Z" fill="white"/>
</g>
<defs>
<clipPath id="clip0_460_3994">
<rect width="40" height="40" fill="white"/>
</clipPath>
</defs>
</svg>
