<svg width="40" height="40" viewBox="0 0 40 40" fill="none" xmlns="http://www.w3.org/2000/svg">
<path fill-rule="evenodd" clip-rule="evenodd" d="M32.0928 4.43665V17.5374L32.4291 17.6539C36.5409 19.0779 39.5 22.989 39.5 27.5763C39.5 33.364 34.7907 38.0733 29.003 38.0733C25.5359 38.0733 22.4557 36.3834 20.542 33.7809L20.3921 33.5771H2.95227C1.60057 33.5771 0.5 32.4768 0.5 31.1249V4.43665C0.5 3.08498 1.60061 1.98438 2.95227 1.98438H29.6405C30.9922 1.98438 32.0928 3.08498 32.0928 4.43665ZM19.6956 3.38763H12.8972V11.2594L16.0357 10.0055C16.2031 9.93873 16.3897 9.93873 16.5571 10.0055L19.6956 11.2594V3.38763ZM11.4943 12.2955V3.38763H2.95227C2.37339 3.38763 1.90326 3.85777 1.90326 4.43665V31.1249C1.90326 31.7038 2.37339 32.1739 2.95227 32.1739H19.5388L19.262 31.487C18.7749 30.2781 18.506 28.9587 18.506 27.5763C18.506 21.7886 23.2153 17.0793 29.003 17.0793C29.3857 17.0793 29.7636 17.1003 30.1358 17.1405L30.6895 17.2003V4.43665C30.6895 3.85777 30.2194 3.38763 29.6405 3.38763H21.0988V12.2955C21.0988 12.528 20.9835 12.7455 20.7909 12.8763C20.6725 12.9562 20.535 12.997 20.397 12.997C20.3094 12.997 20.221 12.9805 20.1368 12.9469L16.2964 11.4126L12.456 12.947C12.2401 13.0333 11.9952 13.0069 11.8021 12.8763C11.6095 12.7455 11.4943 12.5279 11.4943 12.2955ZM19.9092 27.5763C19.9092 32.5909 23.9881 36.67 29.003 36.67C34.0176 36.67 38.0967 32.5909 38.0967 27.5763C38.0967 22.5614 34.0176 18.4825 29.003 18.4825C23.9881 18.4825 19.9092 22.5614 19.9092 27.5763Z" fill="#242527"/>
<path fill-rule="evenodd" clip-rule="evenodd" d="M29.624 23.201V26.9548H33.3777C33.7654 26.9548 34.0795 27.2689 34.0795 27.6566C34.0795 28.0438 33.7654 28.358 33.3777 28.358H28.9222C28.5349 28.358 28.2207 28.0439 28.2207 27.6566V23.201C28.2207 22.8133 28.535 22.4992 28.9222 22.4992C29.3098 22.4992 29.624 22.8134 29.624 23.201Z" fill="#242527"/>
</svg>
