<svg width="40" height="40" viewBox="0 0 40 40" fill="none" xmlns="http://www.w3.org/2000/svg">
<path fill-rule="evenodd" clip-rule="evenodd" d="M1.51627 6.52785C1.08571 6.64334 0.643157 6.38782 0.527686 5.95704C0.412349 5.52635 0.667893 5.08366 1.0985 4.96828L4.88681 3.95321C6.71431 3.46372 8.58822 4.5459 9.07777 6.37293L14.6222 27.0645L15.1175 26.9127C15.5552 26.7786 16.0194 26.7059 16.5009 26.7059C16.9244 26.7059 17.3347 26.7627 17.7258 26.8677L18.5627 27.0925L13.4241 7.91506C13.3088 7.48466 13.5647 7.0417 13.995 6.9264L24.0975 4.21946C24.5271 4.1041 24.9705 4.35991 25.086 4.79043L27.5838 14.1129L31.8553 12.9682C32.2854 12.8528 32.7285 13.1088 32.8439 13.5392L36.0184 25.387L38.4834 24.7265C38.9134 24.6111 39.3565 24.8666 39.472 25.2974C39.5874 25.728 39.3318 26.1707 38.901 26.2862L21.2263 31.0221L21.2293 31.4088L21.2296 31.4278L21.23 31.439C21.2279 34.0445 19.1068 36.1644 16.5008 36.1644C13.8936 36.1644 11.7716 34.0424 11.7716 31.4352C11.7716 30.202 12.2461 29.0783 13.0234 28.2345L13.2098 28.0321L7.51822 6.79075C7.25974 5.82603 6.26933 5.25411 5.30467 5.51277L1.51627 6.52785ZM15.1927 8.27707L17.4817 16.8196L26.0242 14.5307L23.7353 5.9881L15.1927 8.27707ZM17.8996 18.3792L20.8653 29.4473L34.4587 25.8048L31.4932 14.7368L17.8996 18.3792ZM13.3862 31.4352C13.3862 33.153 14.7829 34.5498 16.5008 34.5498C18.2187 34.5498 19.6154 33.153 19.6154 31.4352C19.6154 29.7173 18.2187 28.3205 16.5008 28.3205C14.7829 28.3205 13.3862 29.7173 13.3862 31.4352Z" fill="#242527"/>
</svg>
