<svg width="40" height="40" viewBox="0 0 40 40" fill="none" xmlns="http://www.w3.org/2000/svg">
<g clip-path="url(#clip0_460_2112)">
<path fill-rule="evenodd" clip-rule="evenodd" d="M33.75 16.9223L39.2396 18.9809C39.697 19.1523 40 19.5897 40 20.0781V25.9031C40 28.1128 39.3347 30.2408 38.0761 32.057C36.8175 33.8732 35.0586 35.2433 32.9896 36.0191C32.857 36.0689 32.7176 36.0938 32.5781 36.0938C32.4387 36.0938 32.2993 36.0689 32.1666 36.0191C31.6395 35.8215 31.1329 35.5848 30.6492 35.3125H28.9062V38.8281C28.9062 39.4753 28.3816 40 27.7344 40H1.17188C0.524687 40 0 39.4753 0 38.8281V5.85938C0 5.21219 0.524687 4.6875 1.17188 4.6875H4.84375V1.17188C4.84375 0.524687 5.36844 0 6.01562 0H32.5781C33.2253 0 33.75 0.524687 33.75 1.17188V16.9223ZM2.34375 37.6562H26.5625V35.3125H6.01562C5.36844 35.3125 4.84375 34.7878 4.84375 34.1406V7.03125H2.34375V37.6562ZM7.1875 2.34375V32.9688H27.7875C27.5373 32.6787 27.3006 32.3752 27.0802 32.057C26.7623 31.5984 26.4826 31.1197 26.2416 30.625H20.0781C19.4309 30.625 18.9062 30.1003 18.9062 29.4531C18.9062 28.8059 19.4309 28.2812 20.0781 28.2812H25.4202C25.2485 27.5179 25.1594 26.7331 25.1569 25.9375H20.0781C19.4309 25.9375 18.9062 25.4128 18.9062 24.7656C18.9062 24.1184 19.4309 23.5938 20.0781 23.5938H25.1562V21.25H20.0781C19.4309 21.25 18.9062 20.7253 18.9062 20.0781C18.9062 19.4309 19.4309 18.9062 20.0781 18.9062H26.1156L31.4062 16.9223V2.34375H7.1875ZM32.5781 33.6577C35.6332 32.323 37.6562 29.2614 37.6562 25.9031V20.8902L32.5781 18.9859L27.5 20.8902V25.9031C27.5 29.2615 29.523 32.323 32.5781 33.6577ZM10.7031 4.84375H15.3906C16.0378 4.84375 16.5625 5.36844 16.5625 6.01562V10.7031C16.5625 11.3503 16.0378 11.875 15.3906 11.875H10.7031C10.0559 11.875 9.53125 11.3503 9.53125 10.7031V6.01562C9.53125 5.36844 10.0559 4.84375 10.7031 4.84375ZM11.875 9.53125H14.2188V7.1875H11.875V9.53125ZM24.7656 11.875H20.0781C19.4309 11.875 18.9062 11.3503 18.9062 10.7031C18.9062 10.0559 19.4309 9.53125 20.0781 9.53125H24.7656C25.4128 9.53125 25.9375 10.0559 25.9375 10.7031C25.9375 11.3503 25.4128 11.875 24.7656 11.875ZM20.0781 7.1875H27.8906C28.5378 7.1875 29.0625 6.66281 29.0625 6.01562C29.0625 5.36844 28.5378 4.84375 27.8906 4.84375H20.0781C19.4309 4.84375 18.9062 5.36844 18.9062 6.01562C18.9062 6.66281 19.4309 7.1875 20.0781 7.1875ZM10.7031 14.2188H15.3906C16.0378 14.2188 16.5625 14.7434 16.5625 15.3906V20.0781C16.5625 20.7253 16.0378 21.25 15.3906 21.25H10.7031C10.0559 21.25 9.53125 20.7253 9.53125 20.0781V15.3906C9.53125 14.7434 10.0559 14.2188 10.7031 14.2188ZM11.875 18.9062H14.2188V16.5625H11.875V18.9062ZM20.0781 16.5625H27.8906C28.5378 16.5625 29.0625 16.0378 29.0625 15.3906C29.0625 14.7434 28.5378 14.2188 27.8906 14.2188H20.0781C19.4309 14.2188 18.9062 14.7434 18.9062 15.3906C18.9062 16.0378 19.4309 16.5625 20.0781 16.5625ZM10.7031 23.5938H15.3906C16.0378 23.5938 16.5625 24.1184 16.5625 24.7656V29.4531C16.5625 30.1003 16.0378 30.625 15.3906 30.625H10.7031C10.0559 30.625 9.53125 30.1003 9.53125 29.4531V24.7656C9.53125 24.1184 10.0559 23.5938 10.7031 23.5938ZM11.875 28.2812H14.2188V25.9375H11.875V28.2812ZM30.9458 24.7418C30.4996 24.2956 29.7728 24.2546 29.3062 24.6792C28.8079 25.1326 28.7941 25.9048 29.2651 26.3756L30.9224 28.0329C31.3801 28.4905 32.122 28.4905 32.5797 28.0329L35.8942 24.7183C36.3652 24.2474 36.3515 23.4754 35.8532 23.0219C35.3865 22.5972 34.6597 22.6383 34.2135 23.0845L31.7511 25.547L30.9458 24.7418Z" fill="#242527"/>
<path d="M39.2396 18.9809L39.064 19.449L39.0641 19.449L39.2396 18.9809ZM33.75 16.9223H33.25V17.2688L33.5744 17.3904L33.75 16.9223ZM38.0761 32.057L37.6651 31.7722L37.6651 31.7722L38.0761 32.057ZM32.9896 36.0191L32.814 35.551L32.814 35.551L32.9896 36.0191ZM32.1666 36.0191L32.3423 35.551L32.3422 35.551L32.1666 36.0191ZM30.6492 35.3125L30.8945 34.8768L30.7803 34.8125H30.6492V35.3125ZM28.9062 35.3125V34.8125H28.4062V35.3125H28.9062ZM4.84375 4.6875V5.1875H5.34375V4.6875H4.84375ZM26.5625 37.6562V38.1562H27.0625V37.6562H26.5625ZM2.34375 37.6562H1.84375V38.1562H2.34375V37.6562ZM26.5625 35.3125H27.0625V34.8125H26.5625V35.3125ZM4.84375 7.03125H5.34375V6.53125H4.84375V7.03125ZM2.34375 7.03125V6.53125H1.84375V7.03125H2.34375ZM7.1875 32.9688H6.6875V33.4688H7.1875V32.9688ZM7.1875 2.34375V1.84375H6.6875V2.34375H7.1875ZM27.7875 32.9688V33.4688H28.8791L28.1661 32.6422L27.7875 32.9688ZM27.0802 32.057L27.4911 31.7722L27.4911 31.7721L27.0802 32.057ZM26.2416 30.625L26.6911 30.406L26.5541 30.125H26.2416V30.625ZM25.4202 28.2812V28.7812H26.0451L25.908 28.1716L25.4202 28.2812ZM25.1569 25.9375L25.6569 25.9359L25.6553 25.4375H25.1569V25.9375ZM25.1562 23.5938V24.0938H25.6562V23.5938H25.1562ZM25.1562 21.25H25.6562V20.75H25.1562V21.25ZM26.1156 18.9062V19.4062H26.2063L26.2912 19.3744L26.1156 18.9062ZM31.4062 16.9223L31.5818 17.3904L31.9062 17.2688V16.9223H31.4062ZM31.4062 2.34375H31.9062V1.84375H31.4062V2.34375ZM32.5781 33.6577L32.378 34.1159L32.5781 34.2034L32.7783 34.1159L32.5781 33.6577ZM37.6562 20.8902H38.1562V20.5437L37.8318 20.4221L37.6562 20.8902ZM32.5781 18.9859L32.7537 18.5178L32.5781 18.4519L32.4026 18.5178L32.5781 18.9859ZM27.5 20.8902L27.3244 20.4221L27 20.5437V20.8902H27.5ZM14.2188 9.53125V10.0312H14.7188V9.53125H14.2188ZM11.875 9.53125H11.375V10.0312H11.875V9.53125ZM14.2188 7.1875H14.7188V6.6875H14.2188V7.1875ZM11.875 7.1875V6.6875H11.375V7.1875H11.875ZM14.2188 18.9062V19.4062H14.7188V18.9062H14.2188ZM11.875 18.9062H11.375V19.4062H11.875V18.9062ZM14.2188 16.5625H14.7188V16.0625H14.2188V16.5625ZM11.875 16.5625V16.0625H11.375V16.5625H11.875ZM14.2188 28.2812V28.7812H14.7188V28.2812H14.2188ZM11.875 28.2812H11.375V28.7812H11.875V28.2812ZM14.2188 25.9375H14.7188V25.4375H14.2188V25.9375ZM11.875 25.9375V25.4375H11.375V25.9375H11.875ZM29.3062 24.6792L28.9697 24.3094L28.9696 24.3094L29.3062 24.6792ZM30.9458 24.7418L30.5922 25.0953L30.5922 25.0954L30.9458 24.7418ZM29.2651 26.3756L29.6187 26.0221L29.6186 26.022L29.2651 26.3756ZM30.9224 28.0329L30.5689 28.3864L30.9224 28.0329ZM35.8532 23.0219L36.1897 22.6521L36.1897 22.6521L35.8532 23.0219ZM34.2135 23.0845L33.86 22.731L33.86 22.731L34.2135 23.0845ZM31.7511 25.547L31.3976 25.9006L31.7511 26.2541L32.1046 25.9006L31.7511 25.547ZM39.4152 18.5127L33.9256 16.4541L33.5744 17.3904L39.064 19.449L39.4152 18.5127ZM40.5 20.0781C40.5 19.3813 40.0678 18.7574 39.4151 18.5127L39.0641 19.449C39.3263 19.5473 39.5 19.798 39.5 20.0781H40.5ZM40.5 25.9031V20.0781H39.5V25.9031H40.5ZM38.4871 32.3417C39.8036 30.4419 40.5 28.2146 40.5 25.9031H39.5C39.5 28.011 38.8658 30.0396 37.6651 31.7722L38.4871 32.3417ZM33.1652 36.4873C35.3295 35.6757 37.1705 34.2417 38.4871 32.3417L37.6651 31.7722C36.4645 33.5047 34.7877 34.8109 32.814 35.551L33.1652 36.4873ZM32.5781 36.5938C32.777 36.5938 32.9759 36.5583 33.1652 36.4873L32.814 35.551C32.738 35.5795 32.6582 35.5938 32.5781 35.5938V36.5938ZM31.991 36.4873C32.1804 36.5583 32.3793 36.5938 32.5781 36.5938V35.5938C32.4981 35.5938 32.4182 35.5795 32.3423 35.551L31.991 36.4873ZM30.4039 35.7482C30.9098 36.033 31.4397 36.2806 31.9911 36.4873L32.3422 35.551C31.8393 35.3624 31.356 35.1367 30.8945 34.8768L30.4039 35.7482ZM28.9062 35.8125H30.6492V34.8125H28.9062V35.8125ZM29.4062 38.8281V35.3125H28.4062V38.8281H29.4062ZM27.7344 40.5C28.6577 40.5 29.4062 39.7515 29.4062 38.8281H28.4062C28.4062 39.1992 28.1054 39.5 27.7344 39.5V40.5ZM1.17188 40.5H27.7344V39.5H1.17188V40.5ZM-0.5 38.8281C-0.5 39.7515 0.248545 40.5 1.17188 40.5V39.5C0.80083 39.5 0.5 39.1992 0.5 38.8281H-0.5ZM-0.5 5.85938V38.8281H0.5V5.85938H-0.5ZM1.17188 4.1875C0.248545 4.1875 -0.5 4.93604 -0.5 5.85938H0.5C0.5 5.48833 0.80083 5.1875 1.17188 5.1875V4.1875ZM4.84375 4.1875H1.17188V5.1875H4.84375V4.1875ZM4.34375 1.17188V4.6875H5.34375V1.17188H4.34375ZM6.01562 -0.5C5.09229 -0.5 4.34375 0.248545 4.34375 1.17188H5.34375C5.34375 0.80083 5.64458 0.5 6.01562 0.5V-0.5ZM32.5781 -0.5H6.01562V0.5H32.5781V-0.5ZM34.25 1.17188C34.25 0.248545 33.5015 -0.5 32.5781 -0.5V0.5C32.9492 0.5 33.25 0.80083 33.25 1.17188H34.25ZM34.25 16.9223V1.17188H33.25V16.9223H34.25ZM26.5625 37.1562H2.34375V38.1562H26.5625V37.1562ZM26.0625 35.3125V37.6562H27.0625V35.3125H26.0625ZM6.01562 35.8125H26.5625V34.8125H6.01562V35.8125ZM4.34375 34.1406C4.34375 35.064 5.09229 35.8125 6.01562 35.8125V34.8125C5.64458 34.8125 5.34375 34.5117 5.34375 34.1406H4.34375ZM4.34375 7.03125V34.1406H5.34375V7.03125H4.34375ZM2.34375 7.53125H4.84375V6.53125H2.34375V7.53125ZM2.84375 37.6562V7.03125H1.84375V37.6562H2.84375ZM7.6875 32.9688V2.34375H6.6875V32.9688H7.6875ZM27.7875 32.4688H7.1875V33.4688H27.7875V32.4688ZM26.6692 32.3417C26.9003 32.6753 27.1479 32.9928 27.4089 33.2953L28.1661 32.6422C27.9268 32.3647 27.701 32.075 27.4911 31.7722L26.6692 32.3417ZM25.7921 30.844C26.0442 31.3615 26.3367 31.8622 26.6692 32.3418L27.4911 31.7721C27.1878 31.3346 26.921 30.8779 26.6911 30.406L25.7921 30.844ZM20.0781 31.125H26.2416V30.125H20.0781V31.125ZM18.4062 29.4531C18.4062 30.3765 19.1548 31.125 20.0781 31.125V30.125C19.7071 30.125 19.4062 29.8242 19.4062 29.4531H18.4062ZM20.0781 27.7812C19.1548 27.7812 18.4062 28.5298 18.4062 29.4531H19.4062C19.4062 29.0821 19.7071 28.7812 20.0781 28.7812V27.7812ZM25.4202 27.7812H20.0781V28.7812H25.4202V27.7812ZM24.6569 25.9391C24.6595 26.7711 24.7527 27.5921 24.9323 28.3909L25.908 28.1716C25.7443 27.4437 25.6593 26.6952 25.6569 25.9359L24.6569 25.9391ZM20.0781 26.4375H25.1569V25.4375H20.0781V26.4375ZM18.4062 24.7656C18.4062 25.689 19.1548 26.4375 20.0781 26.4375V25.4375C19.7071 25.4375 19.4062 25.1367 19.4062 24.7656H18.4062ZM20.0781 23.0938C19.1548 23.0938 18.4062 23.8423 18.4062 24.7656H19.4062C19.4062 24.3946 19.7071 24.0938 20.0781 24.0938V23.0938ZM25.1562 23.0938H20.0781V24.0938H25.1562V23.0938ZM24.6562 21.25V23.5938H25.6562V21.25H24.6562ZM20.0781 21.75H25.1562V20.75H20.0781V21.75ZM18.4062 20.0781C18.4062 21.0015 19.1548 21.75 20.0781 21.75V20.75C19.7071 20.75 19.4062 20.4492 19.4062 20.0781H18.4062ZM20.0781 18.4062C19.1548 18.4062 18.4062 19.1548 18.4062 20.0781H19.4062C19.4062 19.7071 19.7071 19.4062 20.0781 19.4062V18.4062ZM26.1156 18.4062H20.0781V19.4062H26.1156V18.4062ZM31.2307 16.4541L25.9401 18.4381L26.2912 19.3744L31.5818 17.3904L31.2307 16.4541ZM30.9062 2.34375V16.9223H31.9062V2.34375H30.9062ZM7.1875 2.84375H31.4062V1.84375H7.1875V2.84375ZM37.1562 25.9031C37.1562 29.0615 35.252 31.944 32.378 33.1996L32.7783 34.1159C36.0144 32.7021 38.1562 29.4613 38.1562 25.9031H37.1562ZM37.1562 20.8902V25.9031H38.1562V20.8902H37.1562ZM32.4026 19.4541L37.4807 21.3584L37.8318 20.4221L32.7537 18.5178L32.4026 19.4541ZM27.6756 21.3584L32.7537 19.4541L32.4026 18.5178L27.3244 20.4221L27.6756 21.3584ZM28 25.9031V20.8902H27V25.9031H28ZM32.7783 33.1996C29.9042 31.944 28 29.0615 28 25.9031H27C27 29.4614 29.1418 32.7021 32.378 34.1159L32.7783 33.1996ZM15.3906 4.34375H10.7031V5.34375H15.3906V4.34375ZM17.0625 6.01562C17.0625 5.0923 16.314 4.34375 15.3906 4.34375V5.34375C15.7617 5.34375 16.0625 5.64458 16.0625 6.01562H17.0625ZM17.0625 10.7031V6.01562H16.0625V10.7031H17.0625ZM15.3906 12.375C16.314 12.375 17.0625 11.6265 17.0625 10.7031H16.0625C16.0625 11.0742 15.7617 11.375 15.3906 11.375V12.375ZM10.7031 12.375H15.3906V11.375H10.7031V12.375ZM9.03125 10.7031C9.03125 11.6265 9.7798 12.375 10.7031 12.375V11.375C10.3321 11.375 10.0312 11.0742 10.0312 10.7031H9.03125ZM9.03125 6.01562V10.7031H10.0312V6.01562H9.03125ZM10.7031 4.34375C9.7798 4.34375 9.03125 5.09229 9.03125 6.01562H10.0312C10.0312 5.64458 10.3321 5.34375 10.7031 5.34375V4.34375ZM14.2188 9.03125H11.875V10.0312H14.2188V9.03125ZM13.7188 7.1875V9.53125H14.7188V7.1875H13.7188ZM11.875 7.6875H14.2188V6.6875H11.875V7.6875ZM12.375 9.53125V7.1875H11.375V9.53125H12.375ZM20.0781 12.375H24.7656V11.375H20.0781V12.375ZM18.4062 10.7031C18.4062 11.6265 19.1548 12.375 20.0781 12.375V11.375C19.7071 11.375 19.4062 11.0742 19.4062 10.7031H18.4062ZM20.0781 9.03125C19.1548 9.03125 18.4062 9.7798 18.4062 10.7031H19.4062C19.4062 10.3321 19.7071 10.0312 20.0781 10.0312V9.03125ZM24.7656 9.03125H20.0781V10.0312H24.7656V9.03125ZM26.4375 10.7031C26.4375 9.7798 25.689 9.03125 24.7656 9.03125V10.0312C25.1367 10.0312 25.4375 10.3321 25.4375 10.7031H26.4375ZM24.7656 12.375C25.689 12.375 26.4375 11.6265 26.4375 10.7031H25.4375C25.4375 11.0742 25.1367 11.375 24.7656 11.375V12.375ZM27.8906 6.6875H20.0781V7.6875H27.8906V6.6875ZM28.5625 6.01562C28.5625 6.38667 28.2617 6.6875 27.8906 6.6875V7.6875C28.814 7.6875 29.5625 6.93895 29.5625 6.01562H28.5625ZM27.8906 5.34375C28.2617 5.34375 28.5625 5.64458 28.5625 6.01562H29.5625C29.5625 5.0923 28.814 4.34375 27.8906 4.34375V5.34375ZM20.0781 5.34375H27.8906V4.34375H20.0781V5.34375ZM19.4062 6.01562C19.4062 5.64458 19.7071 5.34375 20.0781 5.34375V4.34375C19.1548 4.34375 18.4062 5.0923 18.4062 6.01562H19.4062ZM20.0781 6.6875C19.7071 6.6875 19.4062 6.38667 19.4062 6.01562H18.4062C18.4062 6.93895 19.1548 7.6875 20.0781 7.6875V6.6875ZM15.3906 13.7188H10.7031V14.7188H15.3906V13.7188ZM17.0625 15.3906C17.0625 14.4673 16.314 13.7188 15.3906 13.7188V14.7188C15.7617 14.7188 16.0625 15.0196 16.0625 15.3906H17.0625ZM17.0625 20.0781V15.3906H16.0625V20.0781H17.0625ZM15.3906 21.75C16.314 21.75 17.0625 21.0015 17.0625 20.0781H16.0625C16.0625 20.4492 15.7617 20.75 15.3906 20.75V21.75ZM10.7031 21.75H15.3906V20.75H10.7031V21.75ZM9.03125 20.0781C9.03125 21.0015 9.7798 21.75 10.7031 21.75V20.75C10.3321 20.75 10.0312 20.4492 10.0312 20.0781H9.03125ZM9.03125 15.3906V20.0781H10.0312V15.3906H9.03125ZM10.7031 13.7188C9.7798 13.7188 9.03125 14.4673 9.03125 15.3906H10.0312C10.0312 15.0196 10.3321 14.7188 10.7031 14.7188V13.7188ZM14.2188 18.4062H11.875V19.4062H14.2188V18.4062ZM13.7188 16.5625V18.9062H14.7188V16.5625H13.7188ZM11.875 17.0625H14.2188V16.0625H11.875V17.0625ZM12.375 18.9062V16.5625H11.375V18.9062H12.375ZM27.8906 16.0625H20.0781V17.0625H27.8906V16.0625ZM28.5625 15.3906C28.5625 15.7617 28.2617 16.0625 27.8906 16.0625V17.0625C28.814 17.0625 29.5625 16.314 29.5625 15.3906H28.5625ZM27.8906 14.7188C28.2617 14.7188 28.5625 15.0196 28.5625 15.3906H29.5625C29.5625 14.4673 28.814 13.7188 27.8906 13.7188V14.7188ZM20.0781 14.7188H27.8906V13.7188H20.0781V14.7188ZM19.4062 15.3906C19.4062 15.0196 19.7071 14.7188 20.0781 14.7188V13.7188C19.1548 13.7188 18.4062 14.4673 18.4062 15.3906H19.4062ZM20.0781 16.0625C19.7071 16.0625 19.4062 15.7617 19.4062 15.3906H18.4062C18.4062 16.314 19.1548 17.0625 20.0781 17.0625V16.0625ZM15.3906 23.0938H10.7031V24.0938H15.3906V23.0938ZM17.0625 24.7656C17.0625 23.8423 16.314 23.0938 15.3906 23.0938V24.0938C15.7617 24.0938 16.0625 24.3946 16.0625 24.7656H17.0625ZM17.0625 29.4531V24.7656H16.0625V29.4531H17.0625ZM15.3906 31.125C16.314 31.125 17.0625 30.3765 17.0625 29.4531H16.0625C16.0625 29.8242 15.7617 30.125 15.3906 30.125V31.125ZM10.7031 31.125H15.3906V30.125H10.7031V31.125ZM9.03125 29.4531C9.03125 30.3765 9.7798 31.125 10.7031 31.125V30.125C10.3321 30.125 10.0312 29.8242 10.0312 29.4531H9.03125ZM9.03125 24.7656V29.4531H10.0312V24.7656H9.03125ZM10.7031 23.0938C9.7798 23.0938 9.03125 23.8423 9.03125 24.7656H10.0312C10.0312 24.3946 10.3321 24.0938 10.7031 24.0938V23.0938ZM14.2188 27.7812H11.875V28.7812H14.2188V27.7812ZM13.7188 25.9375V28.2812H14.7188V25.9375H13.7188ZM11.875 26.4375H14.2188V25.4375H11.875V26.4375ZM12.375 28.2812V25.9375H11.375V28.2812H12.375ZM29.6427 25.049C29.8982 24.8165 30.3215 24.8247 30.5922 25.0953L31.2993 24.3882C30.6777 23.7666 29.6474 23.6927 28.9697 24.3094L29.6427 25.049ZM29.6186 26.022C29.3486 25.7521 29.3564 25.3095 29.6427 25.049L28.9696 24.3094C28.2593 24.9558 28.2397 26.0575 28.9116 26.7292L29.6186 26.022ZM31.276 27.6793L29.6187 26.0221L28.9116 26.7292L30.5689 28.3864L31.276 27.6793ZM32.2261 27.6793C31.9637 27.9417 31.5384 27.9417 31.276 27.6793L30.5689 28.3864C31.2218 29.0394 32.2803 29.0394 32.9332 28.3864L32.2261 27.6793ZM35.5407 24.3648L32.2261 27.6793L32.9332 28.3864L36.2478 25.0719L35.5407 24.3648ZM35.5167 23.3917C35.8029 23.6522 35.8108 24.0947 35.5407 24.3648L36.2478 25.0719C36.9196 24.4001 36.9001 23.2985 36.1897 22.6521L35.5167 23.3917ZM34.5671 23.4381C34.8378 23.1674 35.2611 23.1592 35.5167 23.3917L36.1897 22.6521C35.5119 22.0353 34.4816 22.1093 33.86 22.731L34.5671 23.4381ZM32.1046 25.9006L34.5671 23.4381L33.86 22.731L31.3975 25.1935L32.1046 25.9006ZM30.5922 25.0954L31.3976 25.9006L32.1046 25.1934L31.2993 24.3882L30.5922 25.0954Z" fill="white"/>
</g>
<defs>
<clipPath id="clip0_460_2112">
<rect width="40" height="40" fill="white"/>
</clipPath>
</defs>
</svg>
