<svg width="40" height="40" viewBox="0 0 40 40" fill="none" xmlns="http://www.w3.org/2000/svg">
<g clip-path="url(#clip0_441_7839)">
<path d="M10.4737 5.72614L10.4742 5.72621L10.4744 5.72524C10.4756 5.61697 10.5037 5.5075 10.5635 5.4077L10.4737 5.72614ZM10.4737 5.72614V5.73328V19.3722L0.259518 28.7363L0.293307 28.7731L0.259512 28.7363C0.0652632 28.9144 -0.0473886 29.1678 -0.0499649 29.4315L-0.0499654 29.4316C-0.0522202 29.6951 0.0559522 29.9503 0.24725 30.1323L0.24727 30.1323L10.1093 39.5024C10.1093 39.5024 10.1093 39.5024 10.1093 39.5024C10.2903 39.6747 10.5267 39.7652 10.7666 39.7652C10.8936 39.7652 11.0217 39.7398 11.1434 39.6876L11.1434 39.6876C11.4944 39.5369 11.7215 39.1926 11.7215 38.8104V34.4179C14.0638 34.0255 16.1547 33.2944 17.9808 32.2313H38.5068C39.3578 32.2313 40.05 31.5391 40.05 30.6881V5.73328H40.0502L40.0499 5.72972L40.0497 5.72704C40.0488 5.61842 40.0206 5.50861 39.9609 5.40833L37.3001 0.925354C37.0573 0.51651 36.6113 0.262447 36.1359 0.262447H14.3988C13.9241 0.262447 13.4784 0.515534 13.2356 0.923449C13.2356 0.923456 13.2356 0.923463 13.2356 0.923471L10.5635 5.40761L10.4737 5.72614ZM38.2975 5.09735L36.2068 1.5746L38.2975 5.09735ZM38.2975 5.09735H36.9422C36.5907 5.09735 36.3062 5.3822 36.3062 5.73328C36.3062 6.08469 36.5908 6.36922 36.9422 6.36922H38.7782V30.6881C38.7782 30.8378 38.6565 30.9595 38.5068 30.9595H19.8409C20.7142 30.2643 21.5105 29.4763 22.2269 28.5944C24.3224 26.015 25.7575 22.6724 26.6161 18.3789L26.6161 18.3789C26.6748 18.0851 26.5204 17.79 26.2452 17.6707C26.2452 17.6707 26.2452 17.6707 26.2452 17.6707L26.2253 17.7166C25.972 17.6068 25.6763 17.6889 25.5155 17.9138C22.9206 21.5475 20.0367 23.5513 16.1652 24.4107L38.2975 5.09735ZM24.7049 20.8545C22.3722 23.3715 19.737 24.8691 16.43 25.6032C16.0865 25.6801 15.7473 25.4631 15.6714 25.1203L24.7049 20.8545ZM24.7049 20.8545C23.8839 23.6604 22.7402 25.9456 21.2396 27.7925C18.8088 30.7846 15.3636 32.6195 10.9955 33.2433L10.9954 33.2433C10.6821 33.2883 10.4496 33.5566 10.4496 33.8729V38.0713L1.3697 29.4443L10.4496 21.1198V25.4959C10.4496 25.8473 10.7341 26.1318 11.0855 26.1318H11.106H11.1097H11.1142H11.1143C12.0953 26.1309 13.0372 26.0866 13.9146 25.9994C14.264 25.9646 14.5194 25.6533 14.4846 25.3038M24.7049 20.8545L36.2067 1.57454C36.1919 1.54977 36.1647 1.53432 36.1359 1.53432H28.6923L29.3148 5.09735H34.4034C34.7545 5.09735 35.0393 5.38218 35.0393 5.73328C35.0393 6.08471 34.7545 6.36922 34.4034 6.36922H29.4162V15.3042C29.4162 15.5446 29.2804 15.7649 29.0655 15.8725C28.9753 15.918 28.8776 15.9401 28.7802 15.9401C28.6458 15.9401 28.5123 15.8978 28.4003 15.8143C28.4003 15.8143 28.4003 15.8143 28.4003 15.8143L25.4645 13.6271L22.5287 15.8143L22.5287 15.8143C22.3359 15.9577 22.0783 15.9806 21.8635 15.8726C21.6486 15.7649 21.5128 15.5446 21.5128 15.3042V6.36922H11.7456V24.8528M14.4846 25.3038C14.4846 25.3039 14.4846 25.3039 14.4846 25.3039L14.4348 25.3088L14.4846 25.3038ZM14.4846 25.3038C14.4501 24.9542 14.1388 24.6984 13.7889 24.7338M13.7889 24.7338C13.1427 24.7978 12.4576 24.8376 11.7456 24.8528M13.7889 24.7338L13.794 24.7836M13.7889 24.7338C13.789 24.7338 13.789 24.7338 13.7891 24.7338L13.794 24.7836M11.7456 24.8528C11.7289 24.8531 11.7123 24.8535 11.6956 24.8538L13.794 24.7836M11.7456 24.8528V24.9028C12.4592 24.8876 13.146 24.8477 13.794 24.7836M25.0846 12.3237L22.7847 14.0373V6.36922H28.1443V14.0373L25.8444 12.3237L25.8443 12.3237C25.7315 12.24 25.598 12.1979 25.4645 12.1979C25.3307 12.1979 25.1972 12.2399 25.0846 12.3237L25.0846 12.3237ZM14.328 1.57461L14.328 1.5746C14.3427 1.54979 14.37 1.53432 14.3988 1.53432H22.1663L21.6049 5.09735H12.2288L14.328 1.57461ZM27.4012 1.53432L28.0234 5.09704H22.8927L23.4537 1.53432H27.4012Z" fill="#242527" stroke="#242527" stroke-width="0.1"/>
</g>
<defs>
<clipPath id="clip0_441_7839">
<rect width="40" height="40" fill="white"/>
</clipPath>
</defs>
</svg>
