<svg width="21" height="25" viewBox="0 0 21 25" fill="none" xmlns="http://www.w3.org/2000/svg">
<path d="M20.4999 18.0885V6.91136C20.4999 6.85515 20.4851 6.79994 20.4569 6.75129C20.4288 6.70263 20.3883 6.66226 20.3396 6.63424L10.6598 1.04565C10.6112 1.01751 10.5561 1.00269 10.5 1.00269C10.4439 1.00269 10.3887 1.01751 10.3402 1.04565L0.662221 6.63424C0.6135 6.66226 0.573029 6.70263 0.544891 6.75129C0.516753 6.79994 0.501942 6.85515 0.501953 6.91136V18.0885C0.501942 18.1447 0.516753 18.2 0.544891 18.2486C0.573029 18.2973 0.6135 18.3376 0.662221 18.3657L10.3402 23.9542C10.3887 23.9824 10.4439 23.9972 10.5 23.9972C10.5561 23.9972 10.6112 23.9824 10.6598 23.9542L20.3378 18.3657C20.3868 18.3379 20.4277 18.2976 20.4561 18.2489C20.4846 18.2003 20.4997 18.1449 20.4999 18.0885V18.0885Z" stroke="#242527" stroke-miterlimit="10" stroke-linejoin="round"/>
<path fill-rule="evenodd" clip-rule="evenodd" d="M10.5009 8.41916C8.24703 8.41916 6.41992 10.2463 6.41992 12.5001C6.41992 14.754 8.24703 16.5811 10.5009 16.5811C12.7547 16.5811 14.5818 14.754 14.5818 12.5001C14.5818 10.2463 12.7547 8.41916 10.5009 8.41916ZM5.16992 12.5001C5.16992 9.55591 7.55667 7.16916 10.5009 7.16916C13.4451 7.16916 15.8318 9.55591 15.8318 12.5001C15.8318 15.4443 13.4451 17.8311 10.5009 17.8311C7.55667 17.8311 5.16992 15.4443 5.16992 12.5001Z" fill="#242527"/>
</svg>
