<svg width="40" height="40" viewBox="0 0 40 40" fill="none" xmlns="http://www.w3.org/2000/svg">
<g clip-path="url(#clip0_441_7790)">
<mask id="path-1-outside-1_441_7790" maskUnits="userSpaceOnUse" x="-1" y="6.34863" width="42" height="27" fill="black">
<rect fill="white" x="-1" y="6.34863" width="42" height="27"/>
<path fill-rule="evenodd" clip-rule="evenodd" d="M36.164 13.9319L37.1998 18.0753C38.783 18.3163 40 19.6867 39.9999 21.3361V28.0166C39.9999 28.3625 39.7195 28.6429 39.3736 28.6429H37.3265C37.3266 28.6568 37.3276 28.6706 37.3276 28.6847C37.3276 30.8718 35.5481 32.6512 33.361 32.6512C31.1739 32.6512 29.3945 30.8718 29.3945 28.6847C29.3945 28.6707 29.3954 28.6568 29.3955 28.6429H15.2807C15.2808 28.6492 15.281 28.6555 15.2812 28.6618V28.6618V28.6618C15.2814 28.6661 15.2816 28.6705 15.2817 28.6748C15.2817 28.6781 15.2818 28.6813 15.2818 28.6847C15.2818 30.8718 13.5023 32.6512 11.3152 32.6512C9.12813 32.6512 7.34867 30.8718 7.34867 28.6847C7.34867 28.677 7.34895 28.6694 7.34923 28.6618C7.34946 28.6555 7.3497 28.6492 7.34977 28.6429H3.96664C3.25289 28.6429 2.67227 28.0623 2.67227 27.3486V25.9707H0.626328C0.280391 25.9707 0 25.6903 0 25.3443C0 24.9984 0.280469 24.718 0.626328 24.718H6.63883C6.98477 24.718 7.26516 24.9984 7.26516 25.3443C7.26516 25.6903 6.98469 25.9707 6.63883 25.9707H3.92484V27.3486C3.92484 27.3716 3.94352 27.3903 3.96656 27.3903H7.56664C8.10453 25.8369 9.58125 24.718 11.3152 24.718C13.0492 24.718 14.5259 25.8369 15.0638 27.3903H28.0582V22.6722C28.0582 22.3263 28.3387 22.0459 28.6845 22.0459C29.0305 22.0459 29.3109 22.3264 29.3109 22.6722V27.3904H29.6124C30.1503 25.8371 31.627 24.7182 33.361 24.7182C35.095 24.7182 36.5716 25.8371 37.1096 27.3904H38.7473V24.6347H38.0374C36.9553 24.6347 36.075 23.7544 36.075 22.6723V21.3362C36.075 20.9903 36.3555 20.7099 36.7013 20.7099H38.6488C38.3837 19.8876 37.6117 19.2909 36.7026 19.2903L36.7009 19.2904L36.6992 19.2902H29.311V20.0002C29.311 20.3461 29.0305 20.6265 28.6847 20.6265C28.3388 20.6265 28.0584 20.3461 28.0584 20.0002V8.64301C28.0584 8.61996 28.0397 8.60129 28.0166 8.60129H3.96656C3.94352 8.60129 3.92484 8.61996 3.92484 8.64301V20C3.92484 20.346 3.64438 20.6264 3.29852 20.6264C2.95258 20.6264 2.67219 20.3459 2.67219 20V8.64301C2.67219 7.92926 3.25281 7.34863 3.96656 7.34863H28.0167C28.7305 7.34863 29.3111 7.92926 29.3111 8.64301V10.021H34.0292C35.4796 10.021 36.6597 11.201 36.6597 12.6514V13.3195C36.6597 13.6205 36.4472 13.8718 36.164 13.9319ZM34.0292 11.2736H29.3111V12.6932H35.4071V12.6514C35.4071 11.8917 34.789 11.2736 34.0292 11.2736ZM29.3111 13.9457V18.0376H35.8993L34.8763 13.9457H29.3111ZM8.60125 28.6848C8.60125 30.1814 9.81875 31.3988 11.3152 31.3988C12.8117 31.3988 14.0292 30.1814 14.0292 28.6848C14.0292 27.1882 12.8117 25.9708 11.3152 25.9708C9.81875 25.9708 8.60125 27.1882 8.60125 28.6848ZM30.6472 28.6848C30.6472 30.1814 31.8647 31.3988 33.3612 31.3988C34.8577 31.3988 36.0752 30.1814 36.0752 28.6848C36.0752 27.1882 34.8577 25.9708 33.3612 25.9708C31.8647 25.9708 30.6472 27.1882 30.6472 28.6848ZM38.0376 23.3821H38.7473V21.9624H37.3277V22.6722C37.3277 23.0636 37.6462 23.3821 38.0376 23.3821ZM10.0203 28.685C10.0203 27.9713 10.6009 27.3906 11.3146 27.3906C12.0284 27.3906 12.609 27.9713 12.609 28.685C12.609 29.3988 12.0284 29.9794 11.3146 29.9794C10.6009 29.9794 10.0203 29.3988 10.0203 28.685ZM33.3609 27.3906C32.6472 27.3906 32.0665 27.9713 32.0665 28.685C32.0665 29.3988 32.6472 29.9794 33.3609 29.9794C34.0747 29.9794 34.6553 29.3988 34.6553 28.685C34.6553 27.9713 34.0747 27.3906 33.3609 27.3906ZM16.6586 24.7183H26.0113C26.3573 24.7183 26.6377 24.9987 26.6377 25.3446C26.6377 25.6905 26.3572 25.9709 26.0113 25.9709H16.6586C16.3126 25.9709 16.0322 25.6905 16.0322 25.3446C16.0322 24.9987 16.3127 24.7183 16.6586 24.7183ZM9.97897 22.0459H1.96226C1.61641 22.0459 1.33594 22.3263 1.33594 22.6722C1.33594 23.0182 1.61633 23.2986 1.96226 23.2986H9.97897C10.3248 23.2986 10.6053 23.0182 10.6053 22.6722C10.6053 22.3263 10.3248 22.0459 9.97897 22.0459ZM20.8925 13.5443C21.137 13.2997 21.5337 13.2997 21.7782 13.5442C22.0227 13.7888 22.0227 14.1853 21.7781 14.43L15.7656 20.4425C15.6434 20.5648 15.483 20.6259 15.3228 20.6259C15.1626 20.6259 15.0022 20.5648 14.88 20.4425L11.5397 17.1022C11.295 16.8576 11.295 16.4611 11.5397 16.2165C11.7842 15.9719 12.1808 15.9719 12.4254 16.2165L15.3228 19.1139L20.8925 13.5443Z"/>
</mask>
<path fill-rule="evenodd" clip-rule="evenodd" d="M36.164 13.9319L37.1998 18.0753C38.783 18.3163 40 19.6867 39.9999 21.3361V28.0166C39.9999 28.3625 39.7195 28.6429 39.3736 28.6429H37.3265C37.3266 28.6568 37.3276 28.6706 37.3276 28.6847C37.3276 30.8718 35.5481 32.6512 33.361 32.6512C31.1739 32.6512 29.3945 30.8718 29.3945 28.6847C29.3945 28.6707 29.3954 28.6568 29.3955 28.6429H15.2807C15.2808 28.6492 15.281 28.6555 15.2812 28.6618V28.6618V28.6618C15.2814 28.6661 15.2816 28.6705 15.2817 28.6748C15.2817 28.6781 15.2818 28.6813 15.2818 28.6847C15.2818 30.8718 13.5023 32.6512 11.3152 32.6512C9.12813 32.6512 7.34867 30.8718 7.34867 28.6847C7.34867 28.677 7.34895 28.6694 7.34923 28.6618C7.34946 28.6555 7.3497 28.6492 7.34977 28.6429H3.96664C3.25289 28.6429 2.67227 28.0623 2.67227 27.3486V25.9707H0.626328C0.280391 25.9707 0 25.6903 0 25.3443C0 24.9984 0.280469 24.718 0.626328 24.718H6.63883C6.98477 24.718 7.26516 24.9984 7.26516 25.3443C7.26516 25.6903 6.98469 25.9707 6.63883 25.9707H3.92484V27.3486C3.92484 27.3716 3.94352 27.3903 3.96656 27.3903H7.56664C8.10453 25.8369 9.58125 24.718 11.3152 24.718C13.0492 24.718 14.5259 25.8369 15.0638 27.3903H28.0582V22.6722C28.0582 22.3263 28.3387 22.0459 28.6845 22.0459C29.0305 22.0459 29.3109 22.3264 29.3109 22.6722V27.3904H29.6124C30.1503 25.8371 31.627 24.7182 33.361 24.7182C35.095 24.7182 36.5716 25.8371 37.1096 27.3904H38.7473V24.6347H38.0374C36.9553 24.6347 36.075 23.7544 36.075 22.6723V21.3362C36.075 20.9903 36.3555 20.7099 36.7013 20.7099H38.6488C38.3837 19.8876 37.6117 19.2909 36.7026 19.2903L36.7009 19.2904L36.6992 19.2902H29.311V20.0002C29.311 20.3461 29.0305 20.6265 28.6847 20.6265C28.3388 20.6265 28.0584 20.3461 28.0584 20.0002V8.64301C28.0584 8.61996 28.0397 8.60129 28.0166 8.60129H3.96656C3.94352 8.60129 3.92484 8.61996 3.92484 8.64301V20C3.92484 20.346 3.64438 20.6264 3.29852 20.6264C2.95258 20.6264 2.67219 20.3459 2.67219 20V8.64301C2.67219 7.92926 3.25281 7.34863 3.96656 7.34863H28.0167C28.7305 7.34863 29.3111 7.92926 29.3111 8.64301V10.021H34.0292C35.4796 10.021 36.6597 11.201 36.6597 12.6514V13.3195C36.6597 13.6205 36.4472 13.8718 36.164 13.9319ZM34.0292 11.2736H29.3111V12.6932H35.4071V12.6514C35.4071 11.8917 34.789 11.2736 34.0292 11.2736ZM29.3111 13.9457V18.0376H35.8993L34.8763 13.9457H29.3111ZM8.60125 28.6848C8.60125 30.1814 9.81875 31.3988 11.3152 31.3988C12.8117 31.3988 14.0292 30.1814 14.0292 28.6848C14.0292 27.1882 12.8117 25.9708 11.3152 25.9708C9.81875 25.9708 8.60125 27.1882 8.60125 28.6848ZM30.6472 28.6848C30.6472 30.1814 31.8647 31.3988 33.3612 31.3988C34.8577 31.3988 36.0752 30.1814 36.0752 28.6848C36.0752 27.1882 34.8577 25.9708 33.3612 25.9708C31.8647 25.9708 30.6472 27.1882 30.6472 28.6848ZM38.0376 23.3821H38.7473V21.9624H37.3277V22.6722C37.3277 23.0636 37.6462 23.3821 38.0376 23.3821ZM10.0203 28.685C10.0203 27.9713 10.6009 27.3906 11.3146 27.3906C12.0284 27.3906 12.609 27.9713 12.609 28.685C12.609 29.3988 12.0284 29.9794 11.3146 29.9794C10.6009 29.9794 10.0203 29.3988 10.0203 28.685ZM33.3609 27.3906C32.6472 27.3906 32.0665 27.9713 32.0665 28.685C32.0665 29.3988 32.6472 29.9794 33.3609 29.9794C34.0747 29.9794 34.6553 29.3988 34.6553 28.685C34.6553 27.9713 34.0747 27.3906 33.3609 27.3906ZM16.6586 24.7183H26.0113C26.3573 24.7183 26.6377 24.9987 26.6377 25.3446C26.6377 25.6905 26.3572 25.9709 26.0113 25.9709H16.6586C16.3126 25.9709 16.0322 25.6905 16.0322 25.3446C16.0322 24.9987 16.3127 24.7183 16.6586 24.7183ZM9.97897 22.0459H1.96226C1.61641 22.0459 1.33594 22.3263 1.33594 22.6722C1.33594 23.0182 1.61633 23.2986 1.96226 23.2986H9.97897C10.3248 23.2986 10.6053 23.0182 10.6053 22.6722C10.6053 22.3263 10.3248 22.0459 9.97897 22.0459ZM20.8925 13.5443C21.137 13.2997 21.5337 13.2997 21.7782 13.5442C22.0227 13.7888 22.0227 14.1853 21.7781 14.43L15.7656 20.4425C15.6434 20.5648 15.483 20.6259 15.3228 20.6259C15.1626 20.6259 15.0022 20.5648 14.88 20.4425L11.5397 17.1022C11.295 16.8576 11.295 16.4611 11.5397 16.2165C11.7842 15.9719 12.1808 15.9719 12.4254 16.2165L15.3228 19.1139L20.8925 13.5443Z" fill="#242527"/>
<path d="M37.1998 18.0753L37.1028 18.0995L37.119 18.1641L37.1848 18.1741L37.1998 18.0753ZM36.164 13.9319L36.1432 13.8341L36.0418 13.8556L36.067 13.9562L36.164 13.9319ZM39.9999 21.3361L39.8999 21.3361V21.3361H39.9999ZM37.3265 28.6429V28.5429H37.2254L37.2265 28.6441L37.3265 28.6429ZM29.3955 28.6429L29.4955 28.644L29.4967 28.5429H29.3955V28.6429ZM15.2807 28.6429V28.5429H15.1796L15.1807 28.6441L15.2807 28.6429ZM15.2812 28.6618H15.3813L15.3812 28.6581L15.2812 28.6618ZM15.2812 28.6618H15.1812L15.1813 28.6655L15.2812 28.6618ZM15.2817 28.6748L15.3816 28.6723L15.3816 28.6723L15.2817 28.6748ZM7.34923 28.6618L7.44916 28.6655V28.6655L7.34923 28.6618ZM7.34977 28.6429L7.44976 28.644L7.45089 28.5429H7.34977V28.6429ZM2.67227 25.9707H2.77227V25.8707H2.67227V25.9707ZM3.92484 25.9707V25.8707H3.82484V25.9707H3.92484ZM7.56664 27.3903V27.4903H7.63784L7.66114 27.423L7.56664 27.3903ZM15.0638 27.3903L14.9693 27.423L14.9926 27.4903H15.0638V27.3903ZM28.0582 27.3903V27.4903H28.1582V27.3903H28.0582ZM29.3109 27.3904H29.2109V27.4904H29.3109V27.3904ZM29.6124 27.3904V27.4904H29.6836L29.7069 27.4231L29.6124 27.3904ZM37.1096 27.3904L37.0151 27.4232L37.0384 27.4904H37.1096V27.3904ZM38.7473 27.3904V27.4904H38.8473V27.3904H38.7473ZM38.7473 24.6347H38.8473V24.5347H38.7473V24.6347ZM38.6488 20.7099V20.8099H38.7861L38.744 20.6792L38.6488 20.7099ZM36.7026 19.2903L36.7026 19.1902L36.698 19.1904L36.7026 19.2903ZM36.7009 19.2904L36.6913 19.3909L36.7054 19.3902L36.7009 19.2904ZM36.6992 19.2902L36.7088 19.1902H36.6992V19.2902ZM29.311 19.2902V19.1902H29.211V19.2902H29.311ZM29.3111 10.021H29.2111V10.121H29.3111V10.021ZM29.3111 11.2736V11.1736H29.2111V11.2736H29.3111ZM29.3111 12.6932H29.2111V12.7932H29.3111V12.6932ZM35.4071 12.6932V12.7932H35.5071V12.6932H35.4071ZM29.3111 18.0376H29.2111V18.1376H29.3111V18.0376ZM29.3111 13.9457V13.8457H29.2111V13.9457H29.3111ZM35.8993 18.0376V18.1376H36.0274L35.9963 18.0134L35.8993 18.0376ZM34.8763 13.9457L34.9733 13.9215L34.9544 13.8457H34.8763V13.9457ZM38.7473 23.3821V23.4821H38.8473V23.3821H38.7473ZM38.7473 21.9624H38.8473V21.8624H38.7473V21.9624ZM37.3277 21.9624V21.8624H37.2277V21.9624H37.3277ZM21.7782 13.5442L21.8489 13.4735L21.8489 13.4735L21.7782 13.5442ZM20.8925 13.5443L20.9632 13.615L20.9632 13.615L20.8925 13.5443ZM21.7781 14.43L21.8488 14.5007L21.8488 14.5007L21.7781 14.43ZM15.7656 20.4425L15.6949 20.3718L15.6949 20.3718L15.7656 20.4425ZM14.88 20.4425L14.9507 20.3718L14.9507 20.3718L14.88 20.4425ZM11.5397 17.1022L11.4689 17.1729L11.5397 17.1022ZM11.5397 16.2165L11.6104 16.2872L11.6104 16.2872L11.5397 16.2165ZM12.4254 16.2165L12.3547 16.2872L12.4254 16.2165ZM15.3228 19.1139L15.2521 19.1846L15.3228 19.2553L15.3935 19.1846L15.3228 19.1139ZM37.2969 18.051L36.261 13.9077L36.067 13.9562L37.1028 18.0995L37.2969 18.051ZM40.0999 21.3361C40.1 19.6364 38.8461 18.2247 37.2149 17.9764L37.1848 18.1741C38.72 18.4078 39.9 19.7369 39.8999 21.3361L40.0999 21.3361ZM40.0999 28.0166V21.3361H39.8999V28.0166H40.0999ZM39.3736 28.7429C39.7747 28.7429 40.0999 28.4178 40.0999 28.0166H39.8999C39.8999 28.3073 39.6642 28.5429 39.3736 28.5429V28.7429ZM37.3265 28.7429H39.3736V28.5429H37.3265V28.7429ZM37.4276 28.6847C37.4276 28.6756 37.4273 28.667 37.427 28.6601C37.4268 28.6526 37.4265 28.6472 37.4265 28.6418L37.2265 28.6441C37.2266 28.6526 37.2269 28.661 37.2272 28.6674C37.2274 28.6743 37.2276 28.6796 37.2276 28.6847H37.4276ZM33.361 32.7512C35.6034 32.7512 37.4276 30.9271 37.4276 28.6847H37.2276C37.2276 30.8166 35.4929 32.5512 33.361 32.5512V32.7512ZM29.2945 28.6847C29.2945 30.9271 31.1187 32.7512 33.361 32.7512V32.5512C31.2291 32.5512 29.4945 30.8166 29.4945 28.6847H29.2945ZM29.2956 28.6418C29.2955 28.6472 29.2953 28.6527 29.295 28.6601C29.2948 28.667 29.2945 28.6756 29.2945 28.6847H29.4945C29.4945 28.6797 29.4946 28.6744 29.4949 28.6674C29.4951 28.661 29.4954 28.6526 29.4955 28.644L29.2956 28.6418ZM15.2807 28.7429H29.3955V28.5429H15.2807V28.7429ZM15.3812 28.6581C15.3809 28.6516 15.3808 28.6466 15.3807 28.6418L15.1807 28.6441C15.1808 28.6518 15.1811 28.6594 15.1813 28.6655L15.3812 28.6581ZM15.3812 28.6618V28.6618H15.1812V28.6618H15.3812ZM15.3812 28.6618V28.6618H15.1812V28.6618H15.3812ZM15.3816 28.6723C15.3815 28.6673 15.3813 28.6623 15.3812 28.6581L15.1813 28.6655C15.1815 28.6699 15.1816 28.6736 15.1817 28.6773L15.3816 28.6723ZM15.3818 28.6847C15.3818 28.6803 15.3817 28.6762 15.3816 28.6723L15.1817 28.6773C15.1818 28.68 15.1818 28.6824 15.1818 28.6847H15.3818ZM11.3152 32.7512C13.5576 32.7512 15.3818 30.9271 15.3818 28.6847H15.1818C15.1818 30.8166 13.4471 32.5512 11.3152 32.5512V32.7512ZM7.24867 28.6847C7.24867 30.9271 9.0729 32.7512 11.3152 32.7512V32.5512C9.18335 32.5512 7.44867 30.8166 7.44867 28.6847H7.24867ZM7.2493 28.6582C7.24903 28.6654 7.24867 28.6749 7.24867 28.6847H7.44867C7.44867 28.6792 7.44887 28.6734 7.44916 28.6655L7.2493 28.6582ZM7.24977 28.6418C7.24972 28.6466 7.24954 28.6516 7.2493 28.6582L7.44916 28.6655C7.44939 28.6594 7.44967 28.6519 7.44976 28.644L7.24977 28.6418ZM3.96664 28.7429H7.34977V28.5429H3.96664V28.7429ZM2.57227 27.3486C2.57227 28.1175 3.19766 28.7429 3.96664 28.7429V28.5429C3.30812 28.5429 2.77227 28.0071 2.77227 27.3486H2.57227ZM2.57227 25.9707V27.3486H2.77227V25.9707H2.57227ZM0.626328 26.0707H2.67227V25.8707H0.626328V26.0707ZM-0.1 25.3443C-0.1 25.7455 0.225162 26.0707 0.626328 26.0707V25.8707C0.335619 25.8707 0.1 25.635 0.1 25.3443H-0.1ZM0.626328 24.618C0.225249 24.618 -0.1 24.9432 -0.1 25.3443H0.1C0.1 25.0536 0.335689 24.818 0.626328 24.818V24.618ZM6.63883 24.618H0.626328V24.818H6.63883V24.618ZM7.36516 25.3443C7.36516 24.9432 7.03999 24.618 6.63883 24.618V24.818C6.92954 24.818 7.16516 25.0536 7.16516 25.3443H7.36516ZM6.63883 26.0707C7.03991 26.0707 7.36516 25.7455 7.36516 25.3443H7.16516C7.16516 25.635 6.92947 25.8707 6.63883 25.8707V26.0707ZM3.92484 26.0707H6.63883V25.8707H3.92484V26.0707ZM4.02484 27.3486V25.9707H3.82484V27.3486H4.02484ZM3.96656 27.2903C3.99874 27.2903 4.02484 27.3164 4.02484 27.3486H3.82484C3.82484 27.4268 3.88829 27.4903 3.96656 27.4903V27.2903ZM7.56664 27.2903H3.96656V27.4903H7.56664V27.2903ZM11.3152 24.618C9.53718 24.618 8.0235 25.7653 7.47215 27.3576L7.66114 27.423C8.18556 25.9085 9.62532 24.818 11.3152 24.818V24.618ZM15.1583 27.3575C14.6069 25.7653 13.0933 24.618 11.3152 24.618V24.818C13.0051 24.818 14.4448 25.9085 14.9693 27.423L15.1583 27.3575ZM28.0582 27.2903H15.0638V27.4903H28.0582V27.2903ZM27.9582 22.6722V27.3903H28.1582V22.6722H27.9582ZM28.6845 21.9459C28.2835 21.9459 27.9582 22.2711 27.9582 22.6722H28.1582C28.1582 22.3815 28.3939 22.1459 28.6845 22.1459V21.9459ZM29.4109 22.6722C29.4109 22.2711 29.0857 21.9459 28.6845 21.9459V22.1459C28.9752 22.1459 29.2109 22.3816 29.2109 22.6722H29.4109ZM29.4109 27.3904V22.6722H29.2109V27.3904H29.4109ZM29.6124 27.2904H29.3109V27.4904H29.6124V27.2904ZM33.361 24.6182C31.583 24.6182 30.0693 25.7655 29.5179 27.3577L29.7069 27.4231C30.2313 25.9087 31.6711 24.8182 33.361 24.8182V24.6182ZM37.2041 27.3577C36.6527 25.7655 35.1391 24.6182 33.361 24.6182V24.8182C35.0509 24.8182 36.4906 25.9087 37.0151 27.4232L37.2041 27.3577ZM38.7473 27.2904H37.1096V27.4904H38.7473V27.2904ZM38.6473 24.6347V27.3904H38.8473V24.6347H38.6473ZM38.0374 24.7347H38.7473V24.5347H38.0374V24.7347ZM35.975 22.6723C35.975 23.8096 36.9001 24.7347 38.0374 24.7347V24.5347C37.0105 24.5347 36.175 23.6992 36.175 22.6723H35.975ZM35.975 21.3362V22.6723H36.175V21.3362H35.975ZM36.7013 20.6099C36.3002 20.6099 35.975 20.935 35.975 21.3362H36.175C36.175 21.0455 36.4107 20.8099 36.7013 20.8099V20.6099ZM38.6488 20.6099H36.7013V20.8099H38.6488V20.6099ZM36.7025 19.3903C37.5669 19.3909 38.3014 19.9583 38.5537 20.7406L38.744 20.6792C38.466 19.817 37.6566 19.1909 36.7026 19.1903L36.7025 19.3903ZM36.7054 19.3902L36.7071 19.3902L36.698 19.1904L36.6963 19.1905L36.7054 19.3902ZM36.6897 19.3897L36.6914 19.3899L36.7104 19.1908L36.7087 19.1906L36.6897 19.3897ZM29.311 19.3902H36.6992V19.1902H29.311V19.3902ZM29.411 20.0002V19.2902H29.211V20.0002H29.411ZM28.6847 20.7265C29.0858 20.7265 29.411 20.4014 29.411 20.0002H29.211C29.211 20.2909 28.9753 20.5265 28.6847 20.5265V20.7265ZM27.9584 20.0002C27.9584 20.4013 28.2835 20.7265 28.6847 20.7265V20.5265C28.394 20.5265 28.1584 20.2908 28.1584 20.0002H27.9584ZM27.9584 8.64301V20.0002H28.1584V8.64301H27.9584ZM28.0166 8.70129C27.9845 8.70129 27.9584 8.67519 27.9584 8.64301H28.1584C28.1584 8.56473 28.0949 8.50129 28.0166 8.50129V8.70129ZM3.96656 8.70129H28.0166V8.50129H3.96656V8.70129ZM4.02484 8.64301C4.02484 8.67519 3.99874 8.70129 3.96656 8.70129V8.50129C3.88829 8.50129 3.82484 8.56473 3.82484 8.64301H4.02484ZM4.02484 20V8.64301H3.82484V20H4.02484ZM3.29852 20.7264C3.6996 20.7264 4.02484 20.4012 4.02484 20H3.82484C3.82484 20.2907 3.58915 20.5264 3.29852 20.5264V20.7264ZM2.57219 20C2.57219 20.4011 2.89734 20.7264 3.29852 20.7264V20.5264C3.00781 20.5264 2.77219 20.2907 2.77219 20H2.57219ZM2.57219 8.64301V20H2.77219V8.64301H2.57219ZM3.96656 7.24863C3.19758 7.24863 2.57219 7.87403 2.57219 8.64301H2.77219C2.77219 7.98449 3.30804 7.44863 3.96656 7.44863V7.24863ZM28.0167 7.24863H3.96656V7.44863H28.0167V7.24863ZM29.4111 8.64301C29.4111 7.87403 28.7857 7.24863 28.0167 7.24863V7.44863C28.6752 7.44863 29.2111 7.98449 29.2111 8.64301H29.4111ZM29.4111 10.021V8.64301H29.2111V10.021H29.4111ZM34.0292 9.92098H29.3111V10.121H34.0292V9.92098ZM36.7597 12.6514C36.7597 11.1457 35.5348 9.92098 34.0292 9.92098V10.121C35.4244 10.121 36.5597 11.2562 36.5597 12.6514H36.7597ZM36.7597 13.3195V12.6514H36.5597V13.3195H36.7597ZM36.1848 14.0297C36.5131 13.96 36.7597 13.6688 36.7597 13.3195H36.5597C36.5597 13.5723 36.3812 13.7835 36.1432 13.8341L36.1848 14.0297ZM29.3111 11.3736H34.0292V11.1736H29.3111V11.3736ZM29.4111 12.6932V11.2736H29.2111V12.6932H29.4111ZM35.4071 12.5932H29.3111V12.7932H35.4071V12.5932ZM35.3071 12.6514V12.6932H35.5071V12.6514H35.3071ZM34.0292 11.3736C34.7338 11.3736 35.3071 11.9469 35.3071 12.6514H35.5071C35.5071 11.8365 34.8442 11.1736 34.0292 11.1736V11.3736ZM29.4111 18.0376V13.9457H29.2111V18.0376H29.4111ZM35.8993 17.9376H29.3111V18.1376H35.8993V17.9376ZM34.7793 13.97L35.8023 18.0619L35.9963 18.0134L34.9733 13.9215L34.7793 13.97ZM29.3111 14.0457H34.8763V13.8457H29.3111V14.0457ZM11.3152 31.2988C9.87398 31.2988 8.70125 30.1261 8.70125 28.6848H8.50125C8.50125 30.2366 9.76352 31.4988 11.3152 31.4988V31.2988ZM13.9292 28.6848C13.9292 30.1261 12.7565 31.2988 11.3152 31.2988V31.4988C12.8669 31.4988 14.1292 30.2366 14.1292 28.6848H13.9292ZM11.3152 26.0708C12.7565 26.0708 13.9292 27.2435 13.9292 28.6848H14.1292C14.1292 27.133 12.8669 25.8708 11.3152 25.8708V26.0708ZM8.70125 28.6848C8.70125 27.2435 9.87398 26.0708 11.3152 26.0708V25.8708C9.76352 25.8708 8.50125 27.133 8.50125 28.6848H8.70125ZM33.3612 31.2988C31.9199 31.2988 30.7472 30.1261 30.7472 28.6848H30.5472C30.5472 30.2366 31.8095 31.4988 33.3612 31.4988V31.2988ZM35.9752 28.6848C35.9752 30.1261 34.8024 31.2988 33.3612 31.2988V31.4988C34.9129 31.4988 36.1752 30.2366 36.1752 28.6848H35.9752ZM33.3612 26.0708C34.8024 26.0708 35.9752 27.2435 35.9752 28.6848H36.1752C36.1752 27.133 34.9129 25.8708 33.3612 25.8708V26.0708ZM30.7472 28.6848C30.7472 27.2435 31.9199 26.0708 33.3612 26.0708V25.8708C31.8095 25.8708 30.5472 27.133 30.5472 28.6848H30.7472ZM38.7473 23.2821H38.0376V23.4821H38.7473V23.2821ZM38.6473 21.9624V23.3821H38.8473V21.9624H38.6473ZM37.3277 22.0624H38.7473V21.8624H37.3277V22.0624ZM37.4277 22.6722V21.9624H37.2277V22.6722H37.4277ZM38.0376 23.2821C37.7014 23.2821 37.4277 23.0084 37.4277 22.6722H37.2277C37.2277 23.1189 37.5909 23.4821 38.0376 23.4821V23.2821ZM11.3146 27.2906C10.5457 27.2906 9.92026 27.916 9.92026 28.685H10.1203C10.1203 28.0265 10.6561 27.4906 11.3146 27.4906V27.2906ZM12.709 28.685C12.709 27.916 12.0836 27.2906 11.3146 27.2906V27.4906C11.9732 27.4906 12.509 28.0265 12.509 28.685H12.709ZM11.3146 30.0794C12.0836 30.0794 12.709 29.454 12.709 28.685H12.509C12.509 29.3435 11.9732 29.8794 11.3146 29.8794V30.0794ZM9.92026 28.685C9.92026 29.454 10.5457 30.0794 11.3146 30.0794V29.8794C10.6561 29.8794 10.1203 29.3435 10.1203 28.685H9.92026ZM32.1665 28.685C32.1665 28.0265 32.7024 27.4906 33.3609 27.4906V27.2906C32.5919 27.2906 31.9665 27.916 31.9665 28.685H32.1665ZM33.3609 29.8794C32.7024 29.8794 32.1665 29.3435 32.1665 28.685H31.9665C31.9665 29.454 32.5919 30.0794 33.3609 30.0794V29.8794ZM34.5553 28.685C34.5553 29.3435 34.0194 29.8794 33.3609 29.8794V30.0794C34.1299 30.0794 34.7553 29.454 34.7553 28.685H34.5553ZM33.3609 27.4906C34.0194 27.4906 34.5553 28.0265 34.5553 28.685H34.7553C34.7553 27.916 34.1299 27.2906 33.3609 27.2906V27.4906ZM26.0113 24.6183H16.6586V24.8183H26.0113V24.6183ZM26.7377 25.3446C26.7377 24.9434 26.4125 24.6183 26.0113 24.6183V24.8183C26.302 24.8183 26.5377 25.0539 26.5377 25.3446H26.7377ZM26.0113 26.0709C26.4124 26.0709 26.7377 25.7458 26.7377 25.3446H26.5377C26.5377 25.6353 26.302 25.8709 26.0113 25.8709V26.0709ZM16.6586 26.0709H26.0113V25.8709H16.6586V26.0709ZM15.9322 25.3446C15.9322 25.7458 16.2574 26.0709 16.6586 26.0709V25.8709C16.3678 25.8709 16.1322 25.6353 16.1322 25.3446H15.9322ZM16.6586 24.6183C16.2575 24.6183 15.9322 24.9434 15.9322 25.3446H16.1322C16.1322 25.0539 16.3679 24.8183 16.6586 24.8183V24.6183ZM1.96226 22.1459H9.97897V21.9459H1.96226V22.1459ZM1.43594 22.6722C1.43594 22.3815 1.67163 22.1459 1.96226 22.1459V21.9459C1.56119 21.9459 1.23594 22.2711 1.23594 22.6722H1.43594ZM1.96226 23.1986C1.67156 23.1986 1.43594 22.9629 1.43594 22.6722H1.23594C1.23594 23.0734 1.5611 23.3986 1.96226 23.3986V23.1986ZM9.97897 23.1986H1.96226V23.3986H9.97897V23.1986ZM10.5053 22.6722C10.5053 22.9629 10.2696 23.1986 9.97897 23.1986V23.3986C10.38 23.3986 10.7053 23.0734 10.7053 22.6722H10.5053ZM9.97897 22.1459C10.2696 22.1459 10.5053 22.3815 10.5053 22.6722H10.7053C10.7053 22.2711 10.38 21.9459 9.97897 21.9459V22.1459ZM21.8489 13.4735C21.5653 13.1899 21.1054 13.1899 20.8218 13.4736L20.9632 13.615C21.1687 13.4095 21.502 13.4095 21.7075 13.6149L21.8489 13.4735ZM21.8488 14.5007C22.1325 14.217 22.1325 13.7572 21.8489 13.4735L21.7075 13.6149C21.913 13.8205 21.913 14.1537 21.7074 14.3593L21.8488 14.5007ZM15.8363 20.5132L21.8488 14.5007L21.7074 14.3593L15.6949 20.3718L15.8363 20.5132ZM15.3228 20.7259C15.5084 20.7259 15.6946 20.6551 15.8364 20.5132L15.6949 20.3718C15.5922 20.4746 15.4576 20.5259 15.3228 20.5259V20.7259ZM14.8092 20.5132C14.951 20.6551 15.1371 20.7259 15.3228 20.7259V20.5259C15.188 20.5259 15.0534 20.4746 14.9507 20.3718L14.8092 20.5132ZM11.4689 17.1729L14.8093 20.5132L14.9507 20.3718L11.6104 17.0315L11.4689 17.1729ZM11.4689 16.1458C11.1853 16.4294 11.1853 16.8892 11.4689 17.1729L11.6104 17.0315C11.4048 16.8259 11.4048 16.4928 11.6104 16.2872L11.4689 16.1458ZM12.4961 16.1458C12.2124 15.8621 11.7525 15.8621 11.4689 16.1458L11.6104 16.2872C11.8159 16.0817 12.1491 16.0816 12.3547 16.2872L12.4961 16.1458ZM15.3935 19.0432L12.4961 16.1458L12.3547 16.2872L15.2521 19.1846L15.3935 19.0432ZM20.8218 13.4736L15.2521 19.0432L15.3935 19.1846L20.9632 13.615L20.8218 13.4736Z" fill="#242527" mask="url(#path-1-outside-1_441_7790)"/>
</g>
<defs>
<clipPath id="clip0_441_7790">
<rect width="40" height="40" fill="white"/>
</clipPath>
</defs>
</svg>
