<svg width="40" height="40" viewBox="0 0 40 40" fill="none" xmlns="http://www.w3.org/2000/svg">
<g clip-path="url(#clip0_441_7828)">
<mask id="path-1-outside-1_441_7828" maskUnits="userSpaceOnUse" x="-1" y="-1" width="42" height="42" fill="black">
<rect fill="white" x="-1" y="-1" width="42" height="42"/>
<path fill-rule="evenodd" clip-rule="evenodd" d="M36.7926 22.2238H38.8765C39.495 22.2238 39.9982 22.7269 39.9981 23.3453V26.3612C39.9981 26.9797 39.495 27.4828 38.8765 27.4828H36.7926C36.4831 28.8951 35.9325 30.2257 35.1556 31.4388L36.628 32.9112C36.8398 33.123 36.9565 33.4047 36.9565 33.7043C36.9565 34.0039 36.8398 34.2856 36.6279 34.4974L34.4954 36.6299C34.2835 36.8418 34.002 36.9585 33.7023 36.9585C33.4027 36.9585 33.1211 36.8417 32.9093 36.6299L31.4369 35.1575C30.2236 35.9344 28.8932 36.485 27.4809 36.7945V38.8787C27.4809 39.4971 26.9778 40.0002 26.3594 40.0002H23.3435C22.7251 40.0002 22.2219 39.4971 22.2219 38.8787V36.7947C20.8099 36.4853 19.4793 35.9347 18.266 35.1577L16.7937 36.6302C16.5818 36.842 16.3002 36.9587 16.0005 36.9587C15.7009 36.9587 15.4193 36.8419 15.2075 36.6301L13.0749 34.4976C12.863 34.2858 12.7464 34.0041 12.7464 33.7045C12.7464 33.4049 12.863 33.1232 13.075 32.9114L14.5472 31.439C13.7704 30.2258 13.2198 28.8953 12.9103 27.4831H10.8263C10.2079 27.4831 9.70475 26.9799 9.70475 26.3615V23.3455C9.70475 22.9963 9.8653 22.684 10.1164 22.4781V22.0949C9.02421 21.8453 7.99297 21.4186 7.0474 20.8249L5.92097 21.9514C5.52358 22.3487 4.87732 22.3485 4.48009 21.9514L2.7566 20.2278C2.35936 19.8305 2.35936 19.1842 2.7566 18.787L3.88302 17.6605C3.2894 16.715 2.86264 15.6836 2.61307 14.5915H1.01882C0.457051 14.5915 0 14.1345 0 13.5727V11.1352C0 10.5735 0.457051 10.1164 1.01882 10.1164H2.61307C2.86264 9.02444 3.2894 7.99305 3.88302 7.0474L2.7566 5.92097C2.35944 5.52366 2.35944 4.8774 2.7566 4.48017L4.48001 2.75668C4.67242 2.56419 4.92831 2.45822 5.20053 2.45822C5.47275 2.45822 5.72856 2.56419 5.92097 2.75668L7.04724 3.88302C7.99289 3.28947 9.02429 2.86264 10.1163 2.61307V1.01882C10.1163 0.457051 10.5733 0 11.1351 0H13.5725C14.1344 0 14.5914 0.457051 14.5913 1.01882V2.61299C15.6834 2.86256 16.7147 3.28932 17.6603 3.88295L18.7868 2.7566C18.9792 2.56411 19.235 2.45814 19.5072 2.45814C19.7793 2.45814 20.0351 2.56411 20.2276 2.75652L21.9512 4.48009C22.3484 4.8774 22.3484 5.52366 21.9512 5.9209L20.8248 7.04732C21.4185 7.99321 21.8452 9.02444 22.0947 10.1164H22.4774C22.6833 9.86631 22.9951 9.70654 23.3435 9.70654H26.3594C26.9778 9.70654 27.4809 10.2097 27.4809 10.8281V12.9121C28.8932 13.2216 30.2236 13.7721 31.4368 14.5491L32.9092 13.0767C33.1211 12.8648 33.4027 12.7482 33.7023 12.7482C34.002 12.7482 34.2835 12.8649 34.4954 13.0768L36.628 15.2093C36.8398 15.4211 36.9565 15.7027 36.9565 16.0023C36.9565 16.302 36.8398 16.5836 36.6279 16.7955L35.1556 18.2678C35.9325 19.4812 36.4831 20.8116 36.7926 22.2238ZM7.57965 19.7752C8.46798 20.348 9.44432 20.7519 10.4817 20.976C10.9488 21.077 11.2877 21.4959 11.2877 21.972V22.2239H12.9103C13.2197 20.8117 13.7704 19.4811 14.5472 18.2679L13.0749 16.7955C13.0596 16.7803 13.0456 16.7642 13.0316 16.7482C13.029 16.7452 13.0265 16.7423 13.0239 16.7393C12.8019 16.7732 12.578 16.7909 12.3539 16.7909C11.2172 16.7909 10.0804 16.3582 9.21506 15.4928C7.81423 14.092 7.51249 11.9082 8.48134 10.1823C8.6397 9.90028 8.9968 9.80002 9.2787 9.9583C9.56075 10.1166 9.66102 10.4736 9.50273 10.7557C8.78971 12.0258 9.01203 13.6331 10.0434 14.6645C10.6606 15.2817 11.4811 15.6216 12.354 15.6216C12.5137 15.6216 12.6712 15.6089 12.8264 15.5864C12.8821 15.4469 12.9656 15.3186 13.075 15.2092L15.2076 13.0767C15.3168 12.9675 15.4448 12.8841 15.584 12.8284C15.7278 11.8415 15.4225 10.8012 14.6646 10.0433C13.7615 9.14025 12.4046 8.8457 11.2079 9.29291C10.905 9.40606 10.5675 9.25222 10.4544 8.94924C10.3411 8.64626 10.495 8.30884 10.798 8.19561C12.4234 7.5884 14.2663 7.98852 15.4928 9.21513C16.5296 10.2519 16.9446 11.6781 16.7392 13.0273C16.7422 13.0299 16.7453 13.0326 16.7483 13.0352C16.7637 13.0487 16.7791 13.0621 16.7937 13.0767L18.2661 14.5491C19.4794 13.7721 20.8099 13.2215 22.222 12.9121V11.2877H21.972C21.4958 11.2877 21.077 10.9487 20.9761 10.4816C20.7521 9.44456 20.3481 8.46814 19.7753 7.57965C19.5165 7.17828 19.573 6.64259 19.9098 6.30587L21.0151 5.20053L19.5073 3.69264L18.4019 4.79806C18.0651 5.13486 17.5294 5.19124 17.1281 4.93253C16.2397 4.35983 15.2633 3.9558 14.2261 3.73177C13.7591 3.63088 13.4201 3.21201 13.4201 2.73583V1.17133H11.2877V2.73575C11.2877 3.21193 10.9487 3.6308 10.4817 3.73169C9.44448 3.95572 8.46814 4.35975 7.57981 4.93253C7.17804 5.19132 6.64259 5.13478 6.30595 4.79806L5.20061 3.69264L3.69272 5.20053L4.79814 6.30595C5.13478 6.64267 5.19132 7.17835 4.93261 7.57965C4.35983 8.46798 3.9558 9.44432 3.73177 10.4816C3.63072 10.9488 3.21185 11.2877 2.73583 11.2877H1.17133V13.42H2.73575C3.21185 13.42 3.63064 13.7589 3.73161 14.2258C3.95572 15.2633 4.35975 16.2397 4.93253 17.128C5.19124 17.5294 5.1347 18.065 4.79806 18.4018L3.69264 19.5073L5.20053 21.0151L6.30587 19.9097C6.64251 19.573 7.17804 19.5165 7.57965 19.7752ZM36.7521 26.3115H38.8268V23.3951H36.7521C36.2279 23.3951 35.7668 23.0218 35.6556 22.5075C35.3748 21.2076 34.8685 19.984 34.1508 18.8708C33.8658 18.4289 33.9279 17.8391 34.2987 17.4684L35.7646 16.0021L33.7024 13.9399L32.2365 15.4059C31.8658 15.7767 31.276 15.8387 30.8341 15.5538C29.7207 14.836 28.4972 14.3297 27.1973 14.049C26.683 13.9378 26.3098 13.4767 26.3098 12.9525V10.8778H23.3933V12.9526C23.3933 13.4768 23.0201 13.9379 22.5057 14.049C21.206 14.3298 19.9824 14.8361 18.869 15.5539C18.427 15.8387 17.8372 15.7766 17.4666 15.406L16.0007 13.9399L13.9385 16.0022L15.4044 17.4682C15.7751 17.8388 15.8373 18.4286 15.5522 18.8707C14.8345 19.9838 14.3282 21.2074 14.0474 22.5073C13.9362 23.0216 13.4752 23.3949 12.951 23.3949H10.8762V26.3113H12.951C13.4752 26.3113 13.9362 26.6847 14.0474 27.199C14.3282 28.4989 14.8345 29.7224 15.5522 30.8356C15.8373 31.2776 15.7751 31.8674 15.4043 32.2381L13.9385 33.7041L16.0007 35.7664L17.4666 34.3003C17.8373 33.9297 18.4272 33.8676 18.869 34.1525C19.9824 34.8703 21.2059 35.3766 22.5057 35.6573C23.0201 35.7685 23.3933 36.2297 23.3933 36.7538V38.8285H26.3098V36.7538C26.3098 36.2296 26.683 35.7685 27.1973 35.6573C28.4972 35.3765 29.7208 34.8703 30.8341 34.1525C31.276 33.8676 31.8659 33.9298 32.2365 34.3003L33.7024 35.7664L35.7646 33.7042L34.2987 32.2382C33.9281 31.8676 33.8659 31.2777 34.1509 30.8357C34.8687 29.7226 35.3749 28.499 35.6557 27.1991C35.7669 26.6848 36.2279 26.3115 36.7521 26.3115ZM19.5361 19.5376C17.3572 21.7167 16.7272 24.9573 17.9313 27.7936C18.0576 28.0913 18.4017 28.2301 18.6992 28.1038C18.9969 27.9774 19.1359 27.6337 19.0094 27.3359C17.993 24.9414 18.5249 22.2055 20.3645 20.3659C22.8389 17.8915 26.8651 17.8916 29.3394 20.3659C31.8138 22.8403 31.8138 26.8664 29.3394 29.3408C28.1506 30.5294 26.5704 31.1895 24.8895 31.1994L24.8513 31.1995C23.1861 31.1995 21.6143 30.5603 20.4221 29.3975C20.1905 29.1716 19.8197 29.1763 19.5939 29.4078C19.3681 29.6394 19.3727 30.0102 19.6043 30.236C21.0168 31.6138 22.8785 32.3708 24.8511 32.3707C24.8662 32.3707 24.8813 32.3707 24.8964 32.3706C26.8875 32.359 28.7596 31.577 30.1677 30.1689C33.0987 27.2378 33.0987 22.4687 30.1677 19.5375C27.2364 16.6066 22.4674 16.6066 19.5361 19.5376ZM24.8524 29.4177C26.0218 29.4177 27.1911 28.9726 28.0814 28.0823C29.8618 26.3019 29.8618 23.4049 28.0814 21.6245C26.3009 19.844 23.4039 19.844 21.6234 21.6245C19.843 23.4049 19.843 26.3019 21.6234 28.0823C22.5137 28.9725 23.683 29.4177 24.8524 29.4177ZM22.4517 22.4527C23.1137 21.7908 23.9829 21.4599 24.8524 21.4599C25.7218 21.4599 26.5913 21.7909 27.2531 22.4527C28.5768 23.7765 28.5768 25.9304 27.2531 27.2541C25.9294 28.5779 23.7754 28.5778 22.4517 27.2541C21.1279 25.9304 21.1279 23.7765 22.4517 22.4527Z"/>
</mask>
<path fill-rule="evenodd" clip-rule="evenodd" d="M36.7926 22.2238H38.8765C39.495 22.2238 39.9982 22.7269 39.9981 23.3453V26.3612C39.9981 26.9797 39.495 27.4828 38.8765 27.4828H36.7926C36.4831 28.8951 35.9325 30.2257 35.1556 31.4388L36.628 32.9112C36.8398 33.123 36.9565 33.4047 36.9565 33.7043C36.9565 34.0039 36.8398 34.2856 36.6279 34.4974L34.4954 36.6299C34.2835 36.8418 34.002 36.9585 33.7023 36.9585C33.4027 36.9585 33.1211 36.8417 32.9093 36.6299L31.4369 35.1575C30.2236 35.9344 28.8932 36.485 27.4809 36.7945V38.8787C27.4809 39.4971 26.9778 40.0002 26.3594 40.0002H23.3435C22.7251 40.0002 22.2219 39.4971 22.2219 38.8787V36.7947C20.8099 36.4853 19.4793 35.9347 18.266 35.1577L16.7937 36.6302C16.5818 36.842 16.3002 36.9587 16.0005 36.9587C15.7009 36.9587 15.4193 36.8419 15.2075 36.6301L13.0749 34.4976C12.863 34.2858 12.7464 34.0041 12.7464 33.7045C12.7464 33.4049 12.863 33.1232 13.075 32.9114L14.5472 31.439C13.7704 30.2258 13.2198 28.8953 12.9103 27.4831H10.8263C10.2079 27.4831 9.70475 26.9799 9.70475 26.3615V23.3455C9.70475 22.9963 9.8653 22.684 10.1164 22.4781V22.0949C9.02421 21.8453 7.99297 21.4186 7.0474 20.8249L5.92097 21.9514C5.52358 22.3487 4.87732 22.3485 4.48009 21.9514L2.7566 20.2278C2.35936 19.8305 2.35936 19.1842 2.7566 18.787L3.88302 17.6605C3.2894 16.715 2.86264 15.6836 2.61307 14.5915H1.01882C0.457051 14.5915 0 14.1345 0 13.5727V11.1352C0 10.5735 0.457051 10.1164 1.01882 10.1164H2.61307C2.86264 9.02444 3.2894 7.99305 3.88302 7.0474L2.7566 5.92097C2.35944 5.52366 2.35944 4.8774 2.7566 4.48017L4.48001 2.75668C4.67242 2.56419 4.92831 2.45822 5.20053 2.45822C5.47275 2.45822 5.72856 2.56419 5.92097 2.75668L7.04724 3.88302C7.99289 3.28947 9.02429 2.86264 10.1163 2.61307V1.01882C10.1163 0.457051 10.5733 0 11.1351 0H13.5725C14.1344 0 14.5914 0.457051 14.5913 1.01882V2.61299C15.6834 2.86256 16.7147 3.28932 17.6603 3.88295L18.7868 2.7566C18.9792 2.56411 19.235 2.45814 19.5072 2.45814C19.7793 2.45814 20.0351 2.56411 20.2276 2.75652L21.9512 4.48009C22.3484 4.8774 22.3484 5.52366 21.9512 5.9209L20.8248 7.04732C21.4185 7.99321 21.8452 9.02444 22.0947 10.1164H22.4774C22.6833 9.86631 22.9951 9.70654 23.3435 9.70654H26.3594C26.9778 9.70654 27.4809 10.2097 27.4809 10.8281V12.9121C28.8932 13.2216 30.2236 13.7721 31.4368 14.5491L32.9092 13.0767C33.1211 12.8648 33.4027 12.7482 33.7023 12.7482C34.002 12.7482 34.2835 12.8649 34.4954 13.0768L36.628 15.2093C36.8398 15.4211 36.9565 15.7027 36.9565 16.0023C36.9565 16.302 36.8398 16.5836 36.6279 16.7955L35.1556 18.2678C35.9325 19.4812 36.4831 20.8116 36.7926 22.2238ZM7.57965 19.7752C8.46798 20.348 9.44432 20.7519 10.4817 20.976C10.9488 21.077 11.2877 21.4959 11.2877 21.972V22.2239H12.9103C13.2197 20.8117 13.7704 19.4811 14.5472 18.2679L13.0749 16.7955C13.0596 16.7803 13.0456 16.7642 13.0316 16.7482C13.029 16.7452 13.0265 16.7423 13.0239 16.7393C12.8019 16.7732 12.578 16.7909 12.3539 16.7909C11.2172 16.7909 10.0804 16.3582 9.21506 15.4928C7.81423 14.092 7.51249 11.9082 8.48134 10.1823C8.6397 9.90028 8.9968 9.80002 9.2787 9.9583C9.56075 10.1166 9.66102 10.4736 9.50273 10.7557C8.78971 12.0258 9.01203 13.6331 10.0434 14.6645C10.6606 15.2817 11.4811 15.6216 12.354 15.6216C12.5137 15.6216 12.6712 15.6089 12.8264 15.5864C12.8821 15.4469 12.9656 15.3186 13.075 15.2092L15.2076 13.0767C15.3168 12.9675 15.4448 12.8841 15.584 12.8284C15.7278 11.8415 15.4225 10.8012 14.6646 10.0433C13.7615 9.14025 12.4046 8.8457 11.2079 9.29291C10.905 9.40606 10.5675 9.25222 10.4544 8.94924C10.3411 8.64626 10.495 8.30884 10.798 8.19561C12.4234 7.5884 14.2663 7.98852 15.4928 9.21513C16.5296 10.2519 16.9446 11.6781 16.7392 13.0273C16.7422 13.0299 16.7453 13.0326 16.7483 13.0352C16.7637 13.0487 16.7791 13.0621 16.7937 13.0767L18.2661 14.5491C19.4794 13.7721 20.8099 13.2215 22.222 12.9121V11.2877H21.972C21.4958 11.2877 21.077 10.9487 20.9761 10.4816C20.7521 9.44456 20.3481 8.46814 19.7753 7.57965C19.5165 7.17828 19.573 6.64259 19.9098 6.30587L21.0151 5.20053L19.5073 3.69264L18.4019 4.79806C18.0651 5.13486 17.5294 5.19124 17.1281 4.93253C16.2397 4.35983 15.2633 3.9558 14.2261 3.73177C13.7591 3.63088 13.4201 3.21201 13.4201 2.73583V1.17133H11.2877V2.73575C11.2877 3.21193 10.9487 3.6308 10.4817 3.73169C9.44448 3.95572 8.46814 4.35975 7.57981 4.93253C7.17804 5.19132 6.64259 5.13478 6.30595 4.79806L5.20061 3.69264L3.69272 5.20053L4.79814 6.30595C5.13478 6.64267 5.19132 7.17835 4.93261 7.57965C4.35983 8.46798 3.9558 9.44432 3.73177 10.4816C3.63072 10.9488 3.21185 11.2877 2.73583 11.2877H1.17133V13.42H2.73575C3.21185 13.42 3.63064 13.7589 3.73161 14.2258C3.95572 15.2633 4.35975 16.2397 4.93253 17.128C5.19124 17.5294 5.1347 18.065 4.79806 18.4018L3.69264 19.5073L5.20053 21.0151L6.30587 19.9097C6.64251 19.573 7.17804 19.5165 7.57965 19.7752ZM36.7521 26.3115H38.8268V23.3951H36.7521C36.2279 23.3951 35.7668 23.0218 35.6556 22.5075C35.3748 21.2076 34.8685 19.984 34.1508 18.8708C33.8658 18.4289 33.9279 17.8391 34.2987 17.4684L35.7646 16.0021L33.7024 13.9399L32.2365 15.4059C31.8658 15.7767 31.276 15.8387 30.8341 15.5538C29.7207 14.836 28.4972 14.3297 27.1973 14.049C26.683 13.9378 26.3098 13.4767 26.3098 12.9525V10.8778H23.3933V12.9526C23.3933 13.4768 23.0201 13.9379 22.5057 14.049C21.206 14.3298 19.9824 14.8361 18.869 15.5539C18.427 15.8387 17.8372 15.7766 17.4666 15.406L16.0007 13.9399L13.9385 16.0022L15.4044 17.4682C15.7751 17.8388 15.8373 18.4286 15.5522 18.8707C14.8345 19.9838 14.3282 21.2074 14.0474 22.5073C13.9362 23.0216 13.4752 23.3949 12.951 23.3949H10.8762V26.3113H12.951C13.4752 26.3113 13.9362 26.6847 14.0474 27.199C14.3282 28.4989 14.8345 29.7224 15.5522 30.8356C15.8373 31.2776 15.7751 31.8674 15.4043 32.2381L13.9385 33.7041L16.0007 35.7664L17.4666 34.3003C17.8373 33.9297 18.4272 33.8676 18.869 34.1525C19.9824 34.8703 21.2059 35.3766 22.5057 35.6573C23.0201 35.7685 23.3933 36.2297 23.3933 36.7538V38.8285H26.3098V36.7538C26.3098 36.2296 26.683 35.7685 27.1973 35.6573C28.4972 35.3765 29.7208 34.8703 30.8341 34.1525C31.276 33.8676 31.8659 33.9298 32.2365 34.3003L33.7024 35.7664L35.7646 33.7042L34.2987 32.2382C33.9281 31.8676 33.8659 31.2777 34.1509 30.8357C34.8687 29.7226 35.3749 28.499 35.6557 27.1991C35.7669 26.6848 36.2279 26.3115 36.7521 26.3115ZM19.5361 19.5376C17.3572 21.7167 16.7272 24.9573 17.9313 27.7936C18.0576 28.0913 18.4017 28.2301 18.6992 28.1038C18.9969 27.9774 19.1359 27.6337 19.0094 27.3359C17.993 24.9414 18.5249 22.2055 20.3645 20.3659C22.8389 17.8915 26.8651 17.8916 29.3394 20.3659C31.8138 22.8403 31.8138 26.8664 29.3394 29.3408C28.1506 30.5294 26.5704 31.1895 24.8895 31.1994L24.8513 31.1995C23.1861 31.1995 21.6143 30.5603 20.4221 29.3975C20.1905 29.1716 19.8197 29.1763 19.5939 29.4078C19.3681 29.6394 19.3727 30.0102 19.6043 30.236C21.0168 31.6138 22.8785 32.3708 24.8511 32.3707C24.8662 32.3707 24.8813 32.3707 24.8964 32.3706C26.8875 32.359 28.7596 31.577 30.1677 30.1689C33.0987 27.2378 33.0987 22.4687 30.1677 19.5375C27.2364 16.6066 22.4674 16.6066 19.5361 19.5376ZM24.8524 29.4177C26.0218 29.4177 27.1911 28.9726 28.0814 28.0823C29.8618 26.3019 29.8618 23.4049 28.0814 21.6245C26.3009 19.844 23.4039 19.844 21.6234 21.6245C19.843 23.4049 19.843 26.3019 21.6234 28.0823C22.5137 28.9725 23.683 29.4177 24.8524 29.4177ZM22.4517 22.4527C23.1137 21.7908 23.9829 21.4599 24.8524 21.4599C25.7218 21.4599 26.5913 21.7909 27.2531 22.4527C28.5768 23.7765 28.5768 25.9304 27.2531 27.2541C25.9294 28.5779 23.7754 28.5778 22.4517 27.2541C21.1279 25.9304 21.1279 23.7765 22.4517 22.4527Z" fill="#242527"/>
<path d="M36.7926 22.2238L36.6949 22.2452L36.7121 22.3238H36.7926V22.2238ZM39.9981 23.3453L39.8981 23.3453V23.3453H39.9981ZM36.7926 27.4828V27.3828H36.7121L36.6949 27.4614L36.7926 27.4828ZM35.1556 31.4388L35.0714 31.3849L35.028 31.4526L35.0849 31.5095L35.1556 31.4388ZM36.628 32.9112L36.5573 32.9819L36.5573 32.9819L36.628 32.9112ZM36.6279 34.4974L36.5572 34.4267L36.5572 34.4267L36.6279 34.4974ZM32.9093 36.6299L32.8385 36.7006L32.8386 36.7007L32.9093 36.6299ZM31.4369 35.1575L31.5076 35.0868L31.4507 35.0299L31.383 35.0733L31.4369 35.1575ZM27.4809 36.7945L27.4595 36.6968L27.3809 36.714V36.7945H27.4809ZM22.2219 36.7947H22.3219V36.7142L22.2433 36.697L22.2219 36.7947ZM18.266 35.1577L18.3199 35.0735L18.2521 35.0301L18.1953 35.087L18.266 35.1577ZM16.7937 36.6302L16.8644 36.7009L16.8644 36.7009L16.7937 36.6302ZM15.2075 36.6301L15.2782 36.5594L15.2782 36.5594L15.2075 36.6301ZM13.0749 34.4976L13.1456 34.4269L13.1456 34.4269L13.0749 34.4976ZM13.075 32.9114L13.1457 32.9821L13.1457 32.9821L13.075 32.9114ZM14.5472 31.439L14.618 31.5097L14.6748 31.4528L14.6315 31.3851L14.5472 31.439ZM12.9103 27.4831L13.008 27.4616L12.9907 27.3831H12.9103V27.4831ZM10.1164 22.4781L10.1798 22.5555L10.2164 22.5255V22.4781H10.1164ZM10.1164 22.0949H10.2164V22.0152L10.1386 21.9974L10.1164 22.0949ZM7.0474 20.8249L7.10057 20.7402L7.03306 20.6978L6.97669 20.7542L7.0474 20.8249ZM5.92097 21.9514L5.99168 22.0221L5.99168 22.0221L5.92097 21.9514ZM4.48009 21.9514L4.40938 22.0221L4.40938 22.0221L4.48009 21.9514ZM2.7566 20.2278L2.82731 20.1571L2.82731 20.1571L2.7566 20.2278ZM2.7566 18.787L2.68589 18.7163L2.7566 18.787ZM3.88302 17.6605L3.95373 17.7313L4.0101 17.6749L3.96772 17.6074L3.88302 17.6605ZM2.61307 14.5915L2.71056 14.5692L2.6928 14.4915H2.61307V14.5915ZM2.61307 10.1164V10.2164H2.6928L2.71056 10.1387L2.61307 10.1164ZM3.88302 7.0474L3.96772 7.10057L4.0101 7.03305L3.95373 6.97669L3.88302 7.0474ZM2.7566 5.92097L2.68587 5.99167L2.68589 5.99168L2.7566 5.92097ZM2.7566 4.48017L2.68589 4.40946L2.68588 4.40946L2.7566 4.48017ZM4.48001 2.75668L4.55072 2.82739L4.55073 2.82737L4.48001 2.75668ZM5.92097 2.75668L5.85025 2.82737L5.85026 2.82738L5.92097 2.75668ZM7.04724 3.88302L6.97653 3.95373L7.03289 4.0101L7.10041 3.96772L7.04724 3.88302ZM10.1163 2.61307L10.1386 2.71056L10.2163 2.6928V2.61307H10.1163ZM14.5913 1.01882L14.4913 1.01881V1.01882H14.5913ZM14.5913 2.61299H14.4913V2.69272L14.569 2.71048L14.5913 2.61299ZM17.6603 3.88295L17.6071 3.96764L17.6747 4.01002L17.731 3.95366L17.6603 3.88295ZM18.7868 2.7566L18.8575 2.82731L18.8576 2.82728L18.7868 2.7566ZM20.2276 2.75652L20.2983 2.68581L20.2983 2.68579L20.2276 2.75652ZM21.9512 4.48009L22.0219 4.40939L22.0219 4.40938L21.9512 4.48009ZM21.9512 5.9209L22.0219 5.99161L22.0219 5.9916L21.9512 5.9209ZM20.8248 7.04732L20.7541 6.97661L20.6977 7.03297L20.7401 7.10048L20.8248 7.04732ZM22.0947 10.1164L21.9972 10.1386L22.015 10.2164H22.0947V10.1164ZM22.4774 10.1164V10.2164H22.5246L22.5546 10.1799L22.4774 10.1164ZM27.4809 12.9121H27.3809V12.9925L27.4595 13.0098L27.4809 12.9121ZM31.4368 14.5491L31.3829 14.6333L31.4506 14.6767L31.5075 14.6198L31.4368 14.5491ZM32.9092 13.0767L32.8385 13.006L32.8385 13.006L32.9092 13.0767ZM34.4954 13.0768L34.4247 13.1475V13.1475L34.4954 13.0768ZM36.628 15.2093L36.5573 15.28L36.5573 15.28L36.628 15.2093ZM36.6279 16.7955L36.5572 16.7248L36.5572 16.7248L36.6279 16.7955ZM35.1556 18.2678L35.0849 18.1971L35.028 18.254L35.0714 18.3218L35.1556 18.2678ZM10.4817 20.976L10.5029 20.8783L10.5028 20.8783L10.4817 20.976ZM7.57965 19.7752L7.63384 19.6911L7.6338 19.6911L7.57965 19.7752ZM11.2877 22.2239H11.1877V22.3239H11.2877V22.2239ZM12.9103 22.2239V22.3239H12.9907L13.008 22.2453L12.9103 22.2239ZM14.5472 18.2679L14.6315 18.3218L14.6748 18.2541L14.618 18.1972L14.5472 18.2679ZM13.0749 16.7955L13.1456 16.7248L13.1454 16.7246L13.0749 16.7955ZM13.0316 16.7482L12.9562 16.8139L12.9562 16.8139L13.0316 16.7482ZM13.0239 16.7393L13.0991 16.6734L13.063 16.6322L13.0088 16.6405L13.0239 16.7393ZM9.21506 15.4928L9.14434 15.5635H9.14435L9.21506 15.4928ZM8.48134 10.1823L8.39414 10.1334L8.39414 10.1334L8.48134 10.1823ZM9.2787 9.9583L9.22974 10.0455L9.22976 10.0455L9.2787 9.9583ZM9.50273 10.7557L9.58993 10.8046L9.58994 10.8046L9.50273 10.7557ZM10.0434 14.6645L9.97271 14.7352H9.97271L10.0434 14.6645ZM12.8264 15.5864L12.8408 15.6853L12.8979 15.677L12.9193 15.6234L12.8264 15.5864ZM13.075 15.2092L13.1457 15.2799L13.1458 15.2799L13.075 15.2092ZM15.2076 13.0767L15.1369 13.0059L15.1368 13.006L15.2076 13.0767ZM15.584 12.8284L15.6212 12.9213L15.6747 12.8999L15.683 12.8429L15.584 12.8284ZM14.6646 10.0433L14.5939 10.114V10.1141L14.6646 10.0433ZM11.2079 9.29291L11.2429 9.38659L11.243 9.38658L11.2079 9.29291ZM10.4544 8.94924L10.5481 8.91426L10.5481 8.91422L10.4544 8.94924ZM10.798 8.19561L10.763 8.10194L10.763 8.10194L10.798 8.19561ZM15.4928 9.21513L15.4221 9.28584L15.4221 9.28584L15.4928 9.21513ZM16.7392 13.0273L16.6403 13.0122L16.6321 13.0663L16.6732 13.1024L16.7392 13.0273ZM16.7483 13.0352L16.814 12.9599L16.814 12.9599L16.7483 13.0352ZM16.7937 13.0767L16.8644 13.006V13.006L16.7937 13.0767ZM18.2661 14.5491L18.1954 14.6198L18.2523 14.6767L18.3201 14.6333L18.2661 14.5491ZM22.222 12.9121L22.2434 13.0098L22.322 12.9925V12.9121H22.222ZM22.222 11.2877H22.322V11.1877H22.222V11.2877ZM20.9761 10.4816L20.8784 10.5028V10.5028L20.9761 10.4816ZM19.7753 7.57965L19.6912 7.63384V7.63384L19.7753 7.57965ZM19.9098 6.30587L19.9805 6.37659L19.9805 6.37658L19.9098 6.30587ZM21.0151 5.20053L21.0859 5.27124L21.1566 5.20053L21.0859 5.12982L21.0151 5.20053ZM19.5073 3.69264L19.578 3.62193L19.5073 3.55122L19.4366 3.62194L19.5073 3.69264ZM18.4019 4.79806L18.4726 4.86877L18.4726 4.86877L18.4019 4.79806ZM17.1281 4.93253L17.0739 5.01658L17.0739 5.01658L17.1281 4.93253ZM14.2261 3.73177L14.2049 3.82951L14.205 3.82951L14.2261 3.73177ZM13.4201 1.17133H13.5201V1.07133H13.4201V1.17133ZM11.2877 1.17133V1.07133H11.1877V1.17133H11.2877ZM10.4817 3.73169L10.5028 3.82943L10.5028 3.82943L10.4817 3.73169ZM7.57981 4.93253L7.63396 5.0166L7.634 5.01658L7.57981 4.93253ZM6.30595 4.79806L6.37667 4.72736L6.37666 4.72736L6.30595 4.79806ZM5.20061 3.69264L5.27132 3.62194L5.20061 3.55122L5.1299 3.62193L5.20061 3.69264ZM3.69272 5.20053L3.62201 5.12982L3.5513 5.20053L3.62201 5.27124L3.69272 5.20053ZM4.79814 6.30595L4.86886 6.23525L4.86885 6.23524L4.79814 6.30595ZM4.93261 7.57965L5.01665 7.63384L5.01666 7.63383L4.93261 7.57965ZM3.73177 10.4816L3.82951 10.5028L3.82951 10.5028L3.73177 10.4816ZM1.17133 11.2877V11.1877H1.07133V11.2877H1.17133ZM1.17133 13.42H1.07133V13.52H1.17133V13.42ZM3.73161 14.2258L3.82936 14.2047L3.82935 14.2047L3.73161 14.2258ZM4.93253 17.128L5.01659 17.0738L5.01657 17.0738L4.93253 17.128ZM4.79806 18.4018L4.86878 18.4725L4.86878 18.4725L4.79806 18.4018ZM3.69264 19.5073L3.62193 19.4366L3.55122 19.5073L3.62193 19.578L3.69264 19.5073ZM5.20053 21.0151L5.12982 21.0859L5.20053 21.1566L5.27124 21.0859L5.20053 21.0151ZM6.30587 19.9097L6.37659 19.9804L6.37659 19.9804L6.30587 19.9097ZM38.8268 26.3115V26.4115H38.9268V26.3115H38.8268ZM38.8268 23.3951H38.9268V23.2951H38.8268V23.3951ZM35.6556 22.5075L35.5579 22.5286L35.5579 22.5286L35.6556 22.5075ZM34.1508 18.8708L34.2348 18.8166L34.2348 18.8166L34.1508 18.8708ZM34.2987 17.4684L34.3694 17.5391L34.3694 17.5391L34.2987 17.4684ZM35.7646 16.0021L35.8354 16.0728L35.9061 16.0021L35.8354 15.9314L35.7646 16.0021ZM33.7024 13.9399L33.7731 13.8692L33.7024 13.7984L33.6317 13.8692L33.7024 13.9399ZM32.2365 15.4059L32.3072 15.4766L32.3072 15.4766L32.2365 15.4059ZM30.8341 15.5538L30.7799 15.6379L30.7799 15.6379L30.8341 15.5538ZM27.1973 14.049L27.1762 14.1467L27.1762 14.1467L27.1973 14.049ZM26.3098 10.8778H26.4098V10.7778H26.3098V10.8778ZM23.3933 10.8778V10.7778H23.2933V10.8778H23.3933ZM22.5057 14.049L22.5268 14.1468L22.5268 14.1468L22.5057 14.049ZM18.869 15.5539L18.9232 15.6379L18.9232 15.6379L18.869 15.5539ZM17.4666 15.406L17.3959 15.4767L17.3959 15.4767L17.4666 15.406ZM16.0007 13.9399L16.0714 13.8692L16.0007 13.7985L15.93 13.8692L16.0007 13.9399ZM13.9385 16.0022L13.8678 15.9315L13.797 16.0022L13.8678 16.0729L13.9385 16.0022ZM15.4044 17.4682L15.3337 17.5389L15.3337 17.5389L15.4044 17.4682ZM15.5522 18.8707L15.4681 18.8165L15.4681 18.8165L15.5522 18.8707ZM14.0474 22.5073L14.1451 22.5284L14.1451 22.5284L14.0474 22.5073ZM10.8762 23.3949V23.2949H10.7762V23.3949H10.8762ZM10.8762 26.3113H10.7762V26.4113H10.8762V26.3113ZM14.0474 27.199L14.1451 27.1779L14.1451 27.1778L14.0474 27.199ZM15.5522 30.8356L15.4682 30.8898L15.4682 30.8898L15.5522 30.8356ZM15.4043 32.2381L15.3336 32.1674L15.3336 32.1674L15.4043 32.2381ZM13.9385 33.7041L13.8678 33.6334L13.797 33.7041L13.8678 33.7748L13.9385 33.7041ZM16.0007 35.7664L15.93 35.8371L16.0007 35.9078L16.0714 35.8371L16.0007 35.7664ZM17.4666 34.3003L17.3959 34.2296L17.3959 34.2296L17.4666 34.3003ZM18.869 34.1525L18.8149 34.2366L18.8149 34.2366L18.869 34.1525ZM22.5057 35.6573L22.5268 35.5596L22.5268 35.5596L22.5057 35.6573ZM23.3933 38.8285H23.2933V38.9285H23.3933V38.8285ZM26.3098 38.8285V38.9285H26.4098V38.8285H26.3098ZM27.1973 35.6573L27.1762 35.5596H27.1762L27.1973 35.6573ZM30.8341 34.1525L30.7799 34.0685H30.7799L30.8341 34.1525ZM32.2365 34.3003L32.3072 34.2296L32.3072 34.2296L32.2365 34.3003ZM33.7024 35.7664L33.6317 35.8371L33.7024 35.9079L33.7731 35.8371L33.7024 35.7664ZM35.7646 33.7042L35.8354 33.7749L35.9061 33.7042L35.8354 33.6335L35.7646 33.7042ZM34.2987 32.2382L34.3694 32.1675H34.3694L34.2987 32.2382ZM34.1509 30.8357L34.235 30.8899L34.235 30.8899L34.1509 30.8357ZM35.6557 27.1991L35.558 27.178L35.558 27.178L35.6557 27.1991ZM17.9313 27.7936L18.0233 27.7545L18.0233 27.7545L17.9313 27.7936ZM19.5361 19.5376L19.4654 19.4669L19.4654 19.4669L19.5361 19.5376ZM18.6992 28.1038L18.7383 28.1959L18.7383 28.1959L18.6992 28.1038ZM19.0094 27.3359L18.9174 27.375L18.9174 27.375L19.0094 27.3359ZM20.3645 20.3659L20.2938 20.2952L20.3645 20.3659ZM29.3394 20.3659L29.2687 20.4366V20.4366L29.3394 20.3659ZM29.3394 29.3408L29.4101 29.4115L29.4101 29.4115L29.3394 29.3408ZM24.8895 31.1994L24.8897 31.2994L24.8901 31.2994L24.8895 31.1994ZM24.8513 31.1995V31.2995H24.8515L24.8513 31.1995ZM20.4221 29.3975L20.3522 29.4691L20.3522 29.4691L20.4221 29.3975ZM19.5939 29.4078L19.6655 29.4777L19.6655 29.4776L19.5939 29.4078ZM19.6043 30.236L19.6741 30.1645L19.6741 30.1644L19.6043 30.236ZM24.8511 32.3707V32.2707H24.8511L24.8511 32.3707ZM24.8964 32.3706L24.8958 32.2706L24.8953 32.2706L24.8964 32.3706ZM30.1677 30.1689L30.2385 30.2396L30.2385 30.2396L30.1677 30.1689ZM30.1677 19.5375L30.2385 19.4668L30.2385 19.4668L30.1677 19.5375ZM28.0814 28.0823L28.0107 28.0116L28.0814 28.0823ZM21.6234 21.6245L21.5527 21.5538L21.6234 21.6245ZM21.6234 28.0823L21.6942 28.0116L21.6234 28.0823ZM22.4517 22.4527L22.5224 22.5234L22.5224 22.5234L22.4517 22.4527ZM27.2531 22.4527L27.1823 22.5234L27.1824 22.5234L27.2531 22.4527ZM27.2531 27.2541L27.1824 27.1833L27.1823 27.1833L27.2531 27.2541ZM22.4517 27.2541L22.5224 27.1833L22.5224 27.1833L22.4517 27.2541ZM38.8765 22.1238H36.7926V22.3238H38.8765V22.1238ZM40.0981 23.3453C40.0982 22.6717 39.5502 22.1238 38.8765 22.1238V22.3238C39.4398 22.3238 39.8982 22.7822 39.8981 23.3453L40.0981 23.3453ZM40.0981 26.3612V23.3453H39.8981V26.3612H40.0981ZM38.8765 27.5828C39.5502 27.5828 40.0981 27.0349 40.0981 26.3612H39.8981C39.8981 26.9245 39.4398 27.3828 38.8765 27.3828V27.5828ZM36.7926 27.5828H38.8765V27.3828H36.7926V27.5828ZM35.2398 31.4927C36.0231 30.2696 36.5782 28.928 36.8903 27.5042L36.6949 27.4614C36.3879 28.8621 35.8418 30.1817 35.0714 31.3849L35.2398 31.4927ZM36.6987 32.8405L35.2263 31.3681L35.0849 31.5095L36.5573 32.9819L36.6987 32.8405ZM37.0565 33.7043C37.0565 33.3781 36.9293 33.071 36.6987 32.8405L36.5573 32.9819C36.7504 33.1749 36.8565 33.4312 36.8565 33.7043H37.0565ZM36.6986 34.5681C36.9293 34.3375 37.0565 34.0304 37.0565 33.7043H36.8565C36.8565 33.9774 36.7504 34.2336 36.5572 34.4267L36.6986 34.5681ZM34.5661 36.7006L36.6986 34.5681L36.5572 34.4267L34.4247 36.5592L34.5661 36.7006ZM33.7023 37.0585C34.0285 37.0585 34.3355 36.9313 34.5661 36.7006L34.4247 36.5592C34.2316 36.7523 33.9754 36.8585 33.7023 36.8585V37.0585ZM32.8386 36.7007C33.0692 36.9312 33.3762 37.0585 33.7023 37.0585V36.8585C33.4292 36.8585 33.1731 36.7523 32.98 36.5592L32.8386 36.7007ZM31.3662 35.2282L32.8385 36.7006L32.98 36.5592L31.5076 35.0868L31.3662 35.2282ZM27.5024 36.8922C28.9261 36.5802 30.2676 36.025 31.4908 35.2417L31.383 35.0733C30.1797 35.8438 28.8603 36.3899 27.4595 36.6968L27.5024 36.8922ZM27.5809 38.8787V36.7945H27.3809V38.8787H27.5809ZM26.3594 40.1002C27.0331 40.1002 27.5809 39.5523 27.5809 38.8787H27.3809C27.3809 39.4419 26.9226 39.9002 26.3594 39.9002V40.1002ZM23.3435 40.1002H26.3594V39.9002H23.3435V40.1002ZM22.1219 38.8787C22.1219 39.5523 22.6698 40.1002 23.3435 40.1002V39.9002C22.7803 39.9002 22.3219 39.4419 22.3219 38.8787H22.1219ZM22.1219 36.7947V38.8787H22.3219V36.7947H22.1219ZM18.212 35.242C19.4354 36.0253 20.7769 36.5805 22.2005 36.8924L22.2433 36.697C20.8428 36.3902 19.5232 35.8441 18.3199 35.0735L18.212 35.242ZM16.8644 36.7009L18.3367 35.2284L18.1953 35.087L16.723 36.5595L16.8644 36.7009ZM16.0005 37.0587C16.3267 37.0587 16.6337 36.9315 16.8644 36.7009L16.723 36.5594C16.5298 36.7526 16.2736 36.8587 16.0005 36.8587V37.0587ZM15.1368 36.7008C15.3674 36.9314 15.6744 37.0587 16.0005 37.0587V36.8587C15.7275 36.8587 15.4713 36.7525 15.2782 36.5594L15.1368 36.7008ZM13.0042 34.5683L15.1368 36.7008L15.2782 36.5594L13.1456 34.4269L13.0042 34.5683ZM12.6464 33.7045C12.6464 34.0307 12.7736 34.3378 13.0042 34.5683L13.1456 34.4269C12.9525 34.2338 12.8464 33.9776 12.8464 33.7045H12.6464ZM13.0043 32.8406C12.7736 33.0713 12.6464 33.3784 12.6464 33.7045H12.8464C12.8464 33.4314 12.9525 33.1752 13.1457 32.9821L13.0043 32.8406ZM14.4765 31.3683L13.0043 32.8407L13.1457 32.9821L14.618 31.5097L14.4765 31.3683ZM12.8126 27.5045C13.1247 28.9282 13.6798 30.2698 14.463 31.4929L14.6315 31.3851C13.861 30.1819 13.315 28.8624 13.008 27.4616L12.8126 27.5045ZM10.8263 27.5831H12.9103V27.3831H10.8263V27.5831ZM9.60475 26.3615C9.60475 27.0352 10.1526 27.5831 10.8263 27.5831V27.3831C10.2631 27.3831 9.80475 26.9247 9.80475 26.3615H9.60475ZM9.60475 23.3455V26.3615H9.80475V23.3455H9.60475ZM10.0529 22.4008C9.77983 22.6247 9.60475 22.9649 9.60475 23.3455H9.80475C9.80475 23.0276 9.95076 22.7432 10.1798 22.5555L10.0529 22.4008ZM10.0164 22.0949V22.4781H10.2164V22.0949H10.0164ZM6.99423 20.9096C7.94934 21.5092 8.99102 21.9403 10.0941 22.1924L10.1386 21.9974C9.05739 21.7503 8.0366 21.3279 7.10057 20.7402L6.99423 20.9096ZM5.99168 22.0221L7.11811 20.8956L6.97669 20.7542L5.85026 21.8806L5.99168 22.0221ZM4.40938 22.0221C4.84566 22.4583 5.55523 22.4584 5.99168 22.0221L5.85027 21.8806C5.49194 22.2389 4.90899 22.2388 4.55079 21.8806L4.40938 22.0221ZM2.68589 20.2985L4.40938 22.0221L4.5508 21.8806L2.82731 20.1571L2.68589 20.2985ZM2.68589 18.7163C2.2496 19.1526 2.2496 19.8622 2.68589 20.2985L2.82731 20.1571C2.46913 19.7989 2.46913 19.2159 2.82731 18.8577L2.68589 18.7163ZM3.81231 17.5898L2.68589 18.7163L2.82731 18.8577L3.95373 17.7313L3.81231 17.5898ZM2.51558 14.6138C2.76765 15.7168 3.19871 16.7586 3.79833 17.7137L3.96772 17.6074C3.38008 16.6713 2.95764 15.6504 2.71056 14.5692L2.51558 14.6138ZM1.01882 14.6915H2.61307V14.4915H1.01882V14.6915ZM-0.1 13.5727C-0.1 14.1897 0.401823 14.6915 1.01882 14.6915V14.4915C0.51228 14.4915 0.1 14.0792 0.1 13.5727H-0.1ZM-0.1 11.1352V13.5727H0.1V11.1352H-0.1ZM1.01882 10.0164C0.401823 10.0164 -0.1 10.5183 -0.1 11.1352H0.1C0.1 10.6287 0.51228 10.2164 1.01882 10.2164V10.0164ZM2.61307 10.0164H1.01882V10.2164H2.61307V10.0164ZM3.79833 6.99423C3.19871 7.94942 2.76765 8.99126 2.51559 10.0941L2.71056 10.1387C2.95764 9.05762 3.38008 8.03668 3.96772 7.10057L3.79833 6.99423ZM2.68589 5.99168L3.81231 7.11811L3.95373 6.97669L2.82731 5.85026L2.68589 5.99168ZM2.68588 4.40946C2.24968 4.84575 2.24969 5.55531 2.68587 5.99167L2.82732 5.85028C2.4692 5.49201 2.46921 4.90905 2.82732 4.55087L2.68588 4.40946ZM4.4093 2.68597L2.68589 4.40946L2.82731 4.55087L4.55072 2.82739L4.4093 2.68597ZM5.20053 2.35822C4.9018 2.35822 4.62046 2.47472 4.40928 2.68598L4.55073 2.82737C4.72438 2.65366 4.95483 2.55822 5.20053 2.55822V2.35822ZM5.9917 2.68598C5.78053 2.47472 5.49927 2.35822 5.20053 2.35822V2.55822C5.44623 2.55822 5.6766 2.65365 5.85025 2.82737L5.9917 2.68598ZM7.11796 3.81232L5.99169 2.68597L5.85026 2.82738L6.97653 3.95373L7.11796 3.81232ZM10.094 2.51559C8.9911 2.76765 7.94926 3.19879 6.99408 3.79833L7.10041 3.96772C8.03652 3.38015 9.05747 2.95764 10.1386 2.71056L10.094 2.51559ZM10.0163 1.01882V2.61307H10.2163V1.01882H10.0163ZM11.1351 -0.1C10.5181 -0.1 10.0163 0.401823 10.0163 1.01882H10.2163C10.2163 0.51228 10.6286 0.1 11.1351 0.1V-0.1ZM13.5725 -0.1H11.1351V0.1H13.5725V-0.1ZM14.6913 1.01883C14.6914 0.401828 14.1896 -0.1 13.5725 -0.1V0.1C14.0792 0.1 14.4914 0.512275 14.4913 1.01881L14.6913 1.01883ZM14.6913 2.61299V1.01882H14.4913V2.61299H14.6913ZM17.7135 3.79825C16.7583 3.19864 15.7165 2.76757 14.6136 2.51551L14.569 2.71048C15.6502 2.95756 16.671 3.38 17.6071 3.96764L17.7135 3.79825ZM18.7161 2.68588L17.5896 3.81223L17.731 3.95366L18.8575 2.82731L18.7161 2.68588ZM19.5072 2.35814C19.2085 2.35814 18.9272 2.47464 18.7161 2.68592L18.8576 2.82728C19.0311 2.65358 19.2616 2.55814 19.5072 2.55814V2.35814ZM20.2983 2.68579C20.0871 2.47465 19.8058 2.35814 19.5072 2.35814V2.55814C19.7528 2.55814 19.9832 2.65357 20.1569 2.82725L20.2983 2.68579ZM22.0219 4.40938L20.2983 2.68581L20.1569 2.82723L21.8805 4.5508L22.0219 4.40938ZM22.0219 5.9916C22.4581 5.55531 22.4581 4.84575 22.0219 4.40939L21.8805 4.55078C22.2386 4.90905 22.2386 5.49201 21.8805 5.85019L22.0219 5.9916ZM20.8955 7.11803L22.0219 5.99161L21.8805 5.85019L20.7541 6.97661L20.8955 7.11803ZM22.1922 10.0941C21.9402 8.99126 21.5092 7.94958 20.9095 6.99416L20.7401 7.10048C21.3278 8.03684 21.7502 9.05763 21.9972 10.1386L22.1922 10.0941ZM22.4774 10.0164H22.0947V10.2164H22.4774V10.0164ZM23.3435 9.60654C22.9638 9.60654 22.6242 9.78076 22.4002 10.0528L22.5546 10.1799C22.7424 9.95187 23.0263 9.80654 23.3435 9.80654V9.60654ZM26.3594 9.60654H23.3435V9.80654H26.3594V9.60654ZM27.5809 10.8281C27.5809 10.1545 27.0331 9.60654 26.3594 9.60654V9.80654C26.9226 9.80654 27.3809 10.265 27.3809 10.8281H27.5809ZM27.5809 12.9121V10.8281H27.3809V12.9121H27.5809ZM31.4908 14.4649C30.2675 13.6815 28.9261 13.1265 27.5024 12.8144L27.4595 13.0098C28.8603 13.3168 30.1796 13.8628 31.3829 14.6333L31.4908 14.4649ZM32.8385 13.006L31.3661 14.4784L31.5075 14.6198L32.9799 13.1474L32.8385 13.006ZM33.7023 12.6482C33.3762 12.6482 33.0692 12.7754 32.8385 13.006L32.9799 13.1474C33.1731 12.9543 33.4292 12.8482 33.7023 12.8482V12.6482ZM34.5661 13.006C34.3355 12.7755 34.0285 12.6482 33.7023 12.6482V12.8482C33.9754 12.8482 34.2316 12.9544 34.4247 13.1475L34.5661 13.006ZM36.6987 15.1386L34.5661 13.006L34.4247 13.1475L36.5573 15.28L36.6987 15.1386ZM37.0565 16.0023C37.0565 15.6762 36.9293 15.3691 36.6987 15.1386L36.5573 15.28C36.7504 15.473 36.8565 15.7292 36.8565 16.0023H37.0565ZM36.6986 16.8662C36.9293 16.6356 37.0565 16.3285 37.0565 16.0023H36.8565C36.8565 16.2754 36.7504 16.5317 36.5572 16.7248L36.6986 16.8662ZM35.2263 18.3386L36.6986 16.8662L36.5572 16.7248L35.0849 18.1971L35.2263 18.3386ZM36.8903 22.2024C36.5783 20.7787 36.0231 19.4372 35.2398 18.2139L35.0714 18.3218C35.8419 19.5251 36.388 20.8446 36.6949 22.2452L36.8903 22.2024ZM10.5028 20.8783C9.47715 20.6567 8.51202 20.2574 7.63384 19.6911L7.52546 19.8592C8.42395 20.4386 9.4115 20.8471 10.4606 21.0738L10.5028 20.8783ZM11.3877 21.972C11.3877 21.4485 11.0157 20.9892 10.5029 20.8783L10.4606 21.0738C10.8818 21.1648 11.1877 21.5432 11.1877 21.972H11.3877ZM11.3877 22.2239V21.972H11.1877V22.2239H11.3877ZM12.9103 22.1239H11.2877V22.3239H12.9103V22.1239ZM14.463 18.214C13.6798 19.4372 13.1246 20.7788 12.8126 22.2025L13.008 22.2453C13.3149 20.8446 13.861 19.525 14.6315 18.3218L14.463 18.214ZM13.0042 16.8662L14.4765 18.3386L14.618 18.1972L13.1456 16.7248L13.0042 16.8662ZM12.9562 16.8139C12.9699 16.8295 12.9862 16.8483 13.0043 16.8663L13.1454 16.7246C13.1331 16.7123 13.1214 16.6989 13.107 16.6824L12.9562 16.8139ZM12.9487 16.8052C12.9512 16.8081 12.9537 16.811 12.9562 16.8139L13.107 16.6824C13.1044 16.6795 13.1018 16.6765 13.0991 16.6734L12.9487 16.8052ZM12.3539 16.8909C12.5833 16.8909 12.8122 16.8727 13.039 16.8382L13.0088 16.6405C12.7916 16.6736 12.5727 16.6909 12.3539 16.6909V16.8909ZM9.14435 15.5635C10.0293 16.4485 11.1919 16.8909 12.3539 16.8909V16.6909C11.2426 16.6909 10.1316 16.2679 9.28577 15.4221L9.14435 15.5635ZM8.39414 10.1334C7.40333 11.8984 7.71187 14.1311 9.14434 15.5635L9.28577 15.4221C7.91658 14.0529 7.62166 11.9181 8.56854 10.2313L8.39414 10.1334ZM9.32766 9.87111C8.99759 9.68577 8.57954 9.80318 8.39414 10.1334L8.56853 10.2313C8.69986 9.99739 8.99601 9.91426 9.22974 10.0455L9.32766 9.87111ZM9.58994 10.8046C9.77524 10.4744 9.65788 10.0564 9.32764 9.87109L9.22976 10.0455C9.46363 10.1768 9.5468 10.4728 9.41553 10.7067L9.58994 10.8046ZM10.1141 14.5938C9.11436 13.5941 8.89889 12.0356 9.58993 10.8046L9.41553 10.7067C8.68053 12.016 8.90969 13.6722 9.97271 14.7352L10.1141 14.5938ZM12.354 15.5216C11.5076 15.5216 10.7125 15.1922 10.1141 14.5938L9.97271 14.7352C10.6086 15.3711 11.4546 15.7216 12.354 15.7216V15.5216ZM12.812 15.4874C12.6611 15.5094 12.5084 15.5216 12.354 15.5216V15.7216C12.519 15.7216 12.6814 15.7085 12.8408 15.6853L12.812 15.4874ZM13.0044 15.1385C12.8851 15.2576 12.7942 15.3974 12.7335 15.5493L12.9193 15.6234C12.97 15.4964 13.046 15.3796 13.1457 15.2799L13.0044 15.1385ZM15.1368 13.006L13.0043 15.1385L13.1458 15.2799L15.2783 13.1474L15.1368 13.006ZM15.5469 12.7356C15.3952 12.7962 15.2558 12.8871 15.1369 13.0059L15.2782 13.1474C15.3778 13.0479 15.4943 12.972 15.6212 12.9213L15.5469 12.7356ZM14.5939 10.1141C15.3283 10.8485 15.6245 11.8567 15.4851 12.814L15.683 12.8429C15.8311 11.8262 15.5166 10.7539 14.7353 9.97263L14.5939 10.1141ZM11.243 9.38658C12.4029 8.95308 13.7185 9.23867 14.5939 10.114L14.7353 9.97263C13.8045 9.04183 12.4062 8.73832 11.1729 9.19924L11.243 9.38658ZM10.3607 8.98423C10.4932 9.33897 10.8882 9.51905 11.2429 9.38659L11.173 9.19923C10.9217 9.29307 10.6419 9.16548 10.5481 8.91426L10.3607 8.98423ZM10.763 8.10194C10.4083 8.23449 10.2281 8.62952 10.3607 8.98427L10.5481 8.91422C10.4541 8.663 10.5817 8.38319 10.833 8.28928L10.763 8.10194ZM15.5635 9.14443C14.3093 7.8901 12.4251 7.48102 10.763 8.10194L10.833 8.28929C12.4217 7.69577 14.2233 8.08694 15.4221 9.28584L15.5635 9.14443ZM16.838 13.0423C17.0481 11.6632 16.6238 10.2047 15.5635 9.14442L15.4221 9.28584C16.4354 10.2991 16.8412 11.693 16.6403 13.0122L16.838 13.0423ZM16.814 12.9599C16.811 12.9572 16.808 12.9546 16.8051 12.9521L16.6732 13.1024C16.6764 13.1052 16.6795 13.1079 16.6826 13.1106L16.814 12.9599ZM16.8644 13.006C16.847 12.9886 16.829 12.973 16.814 12.9599L16.6826 13.1106C16.6984 13.1244 16.7112 13.1356 16.723 13.1474L16.8644 13.006ZM18.3368 14.4784L16.8644 13.006L16.723 13.1474L18.1954 14.6198L18.3368 14.4784ZM22.2006 12.8144C20.7769 13.1264 19.4354 13.6815 18.2122 14.4649L18.3201 14.6333C19.5233 13.8627 20.8428 13.3167 22.2434 13.0098L22.2006 12.8144ZM22.122 11.2877V12.9121H22.322V11.2877H22.122ZM21.972 11.3877H22.222V11.1877H21.972V11.3877ZM20.8784 10.5028C20.9891 11.0156 21.4485 11.3877 21.972 11.3877V11.1877C21.5431 11.1877 21.1648 10.8818 21.0739 10.4605L20.8784 10.5028ZM19.6912 7.63384C20.2575 8.51218 20.6569 9.47738 20.8784 10.5028L21.0739 10.4605C20.8474 9.41173 20.4387 8.4241 19.8593 7.52546L19.6912 7.63384ZM19.8391 6.23515C19.4689 6.60532 19.407 7.19306 19.6912 7.63384L19.8593 7.52546C19.6259 7.1635 19.6772 6.67986 19.9805 6.37659L19.8391 6.23515ZM20.9444 5.12982L19.8391 6.23516L19.9805 6.37658L21.0859 5.27124L20.9444 5.12982ZM19.4366 3.76335L20.9444 5.27124L21.0859 5.12982L19.578 3.62193L19.4366 3.76335ZM18.4726 4.86877L19.578 3.76335L19.4366 3.62194L18.3312 4.72736L18.4726 4.86877ZM17.0739 5.01658C17.5146 5.30068 18.1024 5.23903 18.4726 4.86877L18.3312 4.72735C18.0279 5.03069 17.5442 5.0818 17.1822 4.84848L17.0739 5.01658ZM14.205 3.82951C15.2305 4.05102 16.1956 4.45042 17.0739 5.01658L17.1822 4.84848C16.2837 4.26924 15.2961 3.86059 14.2472 3.63402L14.205 3.82951ZM13.3201 2.73583C13.3201 3.25933 13.6922 3.71873 14.2049 3.82951L14.2472 3.63402C13.826 3.54303 13.5201 3.16469 13.5201 2.73583H13.3201ZM13.3201 1.17133V2.73583H13.5201V1.17133H13.3201ZM11.2877 1.27133H13.4201V1.07133H11.2877V1.27133ZM11.3877 2.73575V1.17133H11.1877V2.73575H11.3877ZM10.5028 3.82943C11.0156 3.71865 11.3877 3.25925 11.3877 2.73575H11.1877C11.1877 3.16461 10.8818 3.54295 10.4606 3.63394L10.5028 3.82943ZM7.634 5.01658C8.51218 4.45034 9.4773 4.05094 10.5028 3.82943L10.4606 3.63394C9.41165 3.86051 8.4241 4.26916 7.52562 4.84849L7.634 5.01658ZM6.23523 4.86877C6.60533 5.23895 7.19282 5.30074 7.63396 5.0166L7.52566 4.84846C7.16326 5.08189 6.67984 5.03061 6.37667 4.72736L6.23523 4.86877ZM5.1299 3.76335L6.23524 4.86877L6.37666 4.72736L5.27132 3.62194L5.1299 3.76335ZM3.76343 5.27124L5.27132 3.76335L5.1299 3.62193L3.62201 5.12982L3.76343 5.27124ZM4.86885 6.23524L3.76343 5.12982L3.62201 5.27124L4.72743 6.37666L4.86885 6.23524ZM5.01666 7.63383C5.30077 7.19313 5.23893 6.6054 4.86886 6.23525L4.72742 6.37665C5.03063 6.67993 5.08186 7.16358 4.84856 7.52547L5.01666 7.63383ZM3.82951 10.5028C4.05102 9.47715 4.45042 8.51202 5.01665 7.63384L4.84857 7.52546C4.26924 8.42395 3.86059 9.4115 3.63402 10.4605L3.82951 10.5028ZM2.73583 11.3877C3.25919 11.3877 3.71856 11.0157 3.82951 10.5028L3.63403 10.4605C3.54288 10.8819 3.16452 11.1877 2.73583 11.1877V11.3877ZM1.17133 11.3877H2.73583V11.1877H1.17133V11.3877ZM1.27133 13.42V11.2877H1.07133V13.42H1.27133ZM2.73575 13.32H1.17133V13.52H2.73575V13.32ZM3.82935 14.2047C3.71848 13.692 3.25918 13.32 2.73575 13.32V13.52C3.16453 13.52 3.5428 13.8259 3.63387 14.247L3.82935 14.2047ZM5.01657 17.0738C4.45035 16.1957 4.05094 15.2305 3.82936 14.2047L3.63386 14.2469C3.86051 15.2961 4.26916 16.2838 4.84849 17.1822L5.01657 17.0738ZM4.86878 18.4725C5.23886 18.1023 5.30068 17.5147 5.01659 17.0738L4.84847 17.1822C5.08179 17.5442 5.03055 18.0278 4.72734 18.3311L4.86878 18.4725ZM3.76336 19.578L4.86878 18.4725L4.72735 18.3311L3.62193 19.4366L3.76336 19.578ZM5.27124 20.9444L3.76335 19.4366L3.62193 19.578L5.12982 21.0859L5.27124 20.9444ZM6.23516 19.839L5.12982 20.9444L5.27124 21.0859L6.37659 19.9804L6.23516 19.839ZM7.6338 19.6911C7.19282 19.407 6.60525 19.4688 6.23515 19.839L6.37659 19.9804C6.67977 19.6772 7.16327 19.6259 7.5255 19.8593L7.6338 19.6911ZM38.8268 26.2115H36.7521V26.4115H38.8268V26.2115ZM38.7268 23.3951V26.3115H38.9268V23.3951H38.7268ZM36.7521 23.4951H38.8268V23.2951H36.7521V23.4951ZM35.5579 22.5286C35.679 23.0887 36.1805 23.4951 36.7521 23.4951V23.2951C36.2752 23.2951 35.8547 22.9549 35.7534 22.4864L35.5579 22.5286ZM34.0667 18.9249C34.7779 20.028 35.2796 21.2404 35.5579 22.5286L35.7534 22.4864C35.47 21.1747 34.9591 19.94 34.2348 18.8166L34.0667 18.9249ZM34.228 17.3977C33.8238 17.8018 33.7563 18.4437 34.0667 18.925L34.2348 18.8166C33.9752 18.4141 34.0321 17.8763 34.3694 17.5391L34.228 17.3977ZM35.6939 15.9314L34.228 17.3977L34.3694 17.5391L35.8354 16.0728L35.6939 15.9314ZM33.6317 14.0106L35.6939 16.0728L35.8354 15.9314L33.7731 13.8692L33.6317 14.0106ZM32.3072 15.4766L33.7731 14.0106L33.6317 13.8692L32.1658 15.3352L32.3072 15.4766ZM30.7799 15.6379C31.2612 15.9481 31.903 15.8808 32.3072 15.4766L32.1658 15.3352C31.8285 15.6725 31.2908 15.7292 30.8882 15.4698L30.7799 15.6379ZM27.1762 14.1467C28.4644 14.4249 29.6766 14.9266 30.7799 15.6379L30.8882 15.4698C29.7647 14.7454 28.53 14.2345 27.2184 13.9512L27.1762 14.1467ZM26.2098 12.9525C26.2098 13.5241 26.6161 14.0257 27.1762 14.1467L27.2184 13.9512C26.7499 13.85 26.4098 13.4294 26.4098 12.9525H26.2098ZM26.2098 10.8778V12.9525H26.4098V10.8778H26.2098ZM23.3933 10.9778H26.3098V10.7778H23.3933V10.9778ZM23.4933 12.9526V10.8778H23.2933V12.9526H23.4933ZM22.5268 14.1468C23.087 14.0258 23.4933 13.5242 23.4933 12.9526H23.2933C23.2933 13.4295 22.9532 13.8501 22.4846 13.9513L22.5268 14.1468ZM18.9232 15.6379C20.0265 14.9267 21.2388 14.425 22.5268 14.1468L22.4846 13.9513C21.1732 14.2346 19.9384 14.7455 18.8149 15.4698L18.9232 15.6379ZM17.3959 15.4767C17.7999 15.8808 18.4418 15.9482 18.9232 15.6379L18.8149 15.4698C18.4122 15.7293 17.8744 15.6724 17.5373 15.3353L17.3959 15.4767ZM15.93 14.0107L17.3959 15.4767L17.5373 15.3353L16.0714 13.8692L15.93 14.0107ZM14.0092 16.0729L16.0714 14.0107L15.93 13.8692L13.8678 15.9315L14.0092 16.0729ZM15.4751 17.3975L14.0092 15.9315L13.8678 16.0729L15.3337 17.5389L15.4751 17.3975ZM15.6362 18.9249C15.9467 18.4434 15.8793 17.8016 15.4751 17.3975L15.3337 17.5389C15.6709 17.8761 15.7278 18.4138 15.4681 18.8165L15.6362 18.9249ZM14.1451 22.5284C14.4234 21.2402 14.925 20.0279 15.6362 18.9249L15.4681 18.8165C14.7439 19.9398 14.233 21.1746 13.9497 22.4861L14.1451 22.5284ZM12.951 23.4949C13.5225 23.4949 14.0241 23.0885 14.1451 22.5284L13.9497 22.4861C13.8484 22.9547 13.4278 23.2949 12.951 23.2949V23.4949ZM10.8762 23.4949H12.951V23.2949H10.8762V23.4949ZM10.9762 26.3113V23.3949H10.7762V26.3113H10.9762ZM12.951 26.2113H10.8762V26.4113H12.951V26.2113ZM14.1451 27.1778C14.0241 26.6178 13.5225 26.2113 12.951 26.2113V26.4113C13.4278 26.4113 13.8484 26.7516 13.9497 27.2201L14.1451 27.1778ZM15.6363 30.7814C14.9251 29.6784 14.4234 28.4661 14.1451 27.1779L13.9497 27.2201C14.233 28.5317 14.7439 29.7664 15.4682 30.8898L15.6363 30.7814ZM15.475 32.3088C15.8793 31.9047 15.9467 31.2628 15.6363 30.7814L15.4682 30.8898C15.7278 31.2924 15.6709 31.8301 15.3336 32.1674L15.475 32.3088ZM14.0092 33.7748L15.4751 32.3088L15.3336 32.1674L13.8678 33.6334L14.0092 33.7748ZM16.0714 35.6956L14.0092 33.6334L13.8678 33.7748L15.93 35.8371L16.0714 35.6956ZM17.3959 34.2296L15.93 35.6957L16.0714 35.8371L17.5373 34.371L17.3959 34.2296ZM18.9232 34.0685C18.442 33.7582 17.8001 33.8256 17.3959 34.2296L17.5373 34.3711C17.8746 34.0339 18.4124 33.9771 18.8149 34.2366L18.9232 34.0685ZM22.5268 35.5596C21.2387 35.2814 20.0265 34.7797 18.9232 34.0685L18.8149 34.2366C19.9384 34.9609 21.1731 35.4718 22.4846 35.7551L22.5268 35.5596ZM23.4933 36.7538C23.4933 36.1823 23.087 35.6807 22.5268 35.5596L22.4846 35.7551C22.9532 35.8564 23.2933 36.277 23.2933 36.7538H23.4933ZM23.4933 38.8285V36.7538H23.2933V38.8285H23.4933ZM26.3098 38.7285H23.3933V38.9285H26.3098V38.7285ZM26.2098 36.7538V38.8285H26.4098V36.7538H26.2098ZM27.1762 35.5596C26.6161 35.6806 26.2098 36.1822 26.2098 36.7538H26.4098C26.4098 36.2769 26.7499 35.8563 27.2184 35.7551L27.1762 35.5596ZM30.7799 34.0685C29.6767 34.7797 28.4644 35.2813 27.1762 35.5596L27.2184 35.7551C28.53 35.4718 29.7648 34.9609 30.8882 34.2366L30.7799 34.0685ZM32.3072 34.2296C31.9032 33.8256 31.2612 33.7581 30.7799 34.0685L30.8882 34.2366C31.2908 33.977 31.8287 34.034 32.1657 34.371L32.3072 34.2296ZM33.7731 35.6957L32.3072 34.2296L32.1657 34.371L33.6317 35.8371L33.7731 35.6957ZM35.6939 33.6335L33.6317 35.6957L33.7731 35.8371L35.8354 33.7749L35.6939 33.6335ZM34.228 32.3089L35.6939 33.7749L35.8354 33.6335L34.3694 32.1675L34.228 32.3089ZM34.0669 30.7815C33.7565 31.2629 33.8239 31.9048 34.228 32.3089L34.3694 32.1675C34.0323 31.8303 33.9754 31.2925 34.235 30.8899L34.0669 30.7815ZM35.558 27.178C35.2797 28.4662 34.7781 29.6785 34.0669 30.7815L34.235 30.8899C34.9592 29.7666 35.4701 28.5318 35.7535 27.2202L35.558 27.178ZM36.7521 26.2115C36.1806 26.2115 35.6791 26.6179 35.558 27.178L35.7534 27.2203C35.8548 26.7516 36.2753 26.4115 36.7521 26.4115V26.2115ZM18.0233 27.7545C16.8352 24.9558 17.4568 21.7586 19.6069 19.6083L19.4654 19.4669C17.2577 21.6748 16.6192 24.9589 17.8392 27.8327L18.0233 27.7545ZM18.6601 28.0118C18.4134 28.1165 18.1281 28.0014 18.0233 27.7545L17.8392 27.8327C17.9872 28.1813 18.39 28.3437 18.7383 28.1959L18.6601 28.0118ZM18.9174 27.375C19.0222 27.6219 18.9071 27.9069 18.6601 28.0118L18.7383 28.1959C19.0868 28.0479 19.2495 27.6454 19.1015 27.2968L18.9174 27.375ZM20.2938 20.2952C18.4254 22.1636 17.885 24.943 18.9174 27.375L19.1015 27.2968C18.1009 24.9399 18.6244 22.2474 20.4352 20.4366L20.2938 20.2952ZM29.4101 20.2952C26.8968 17.7818 22.8072 17.7817 20.2938 20.2952L20.4352 20.4366C22.8706 18.0013 26.8335 18.0014 29.2687 20.4366L29.4101 20.2952ZM29.4101 29.4115C31.9235 26.898 31.9235 22.8086 29.4101 20.2952L29.2687 20.4366C31.704 22.8719 31.704 26.8347 29.2687 29.27L29.4101 29.4115ZM24.8901 31.2994C26.5973 31.2893 28.2027 30.6187 29.4101 29.4115L29.2687 29.27C28.0985 30.4401 26.5435 31.0897 24.8889 31.0994L24.8901 31.2994ZM24.8515 31.2995L24.8897 31.2994L24.8893 31.0994L24.8511 31.0995L24.8515 31.2995ZM20.3522 29.4691C21.5632 30.6502 23.16 31.2995 24.8513 31.2995V31.0995C23.2122 31.0995 21.6655 30.4705 20.4919 29.3259L20.3522 29.4691ZM19.6655 29.4776C19.8527 29.2857 20.1602 29.2818 20.3522 29.4691L20.4919 29.3259C20.2207 29.0615 19.7867 29.0669 19.5223 29.338L19.6655 29.4776ZM19.6741 30.1644C19.4821 29.9772 19.4783 29.6697 19.6655 29.4777L19.5224 29.338C19.258 29.6091 19.2633 30.0432 19.5345 30.3076L19.6741 30.1644ZM24.8511 32.2707C22.9046 32.2708 21.0679 31.5239 19.6741 30.1645L19.5345 30.3076C20.9656 31.7036 22.8524 32.4708 24.8511 32.4707L24.8511 32.2707ZM24.8953 32.2706C24.8809 32.2707 24.8662 32.2707 24.8511 32.2707V32.4707C24.8661 32.4707 24.8817 32.4707 24.8974 32.4706L24.8953 32.2706ZM30.097 30.0982C28.7075 31.4877 26.8606 32.2591 24.8958 32.2706L24.897 32.4706C26.9144 32.4588 28.8117 31.6663 30.2385 30.2396L30.097 30.0982ZM30.097 19.6082C32.989 22.5003 32.989 27.2062 30.097 30.0982L30.2385 30.2396C33.2085 27.2695 33.2085 22.437 30.2385 19.4668L30.097 19.6082ZM19.6069 19.6083C22.499 16.7163 27.2047 16.7163 30.097 19.6083L30.2385 19.4668C27.268 16.4968 22.4357 16.4968 19.4654 19.4669L19.6069 19.6083ZM28.0107 28.0116C27.14 28.8823 25.9964 29.3177 24.8524 29.3177V29.5177C26.0471 29.5177 27.2423 29.0629 28.1521 28.153L28.0107 28.0116ZM28.0107 21.6952C29.7521 23.4366 29.7521 26.2703 28.0107 28.0116L28.1521 28.153C29.9716 26.3336 29.9716 23.3733 28.1521 21.5538L28.0107 21.6952ZM21.6942 21.6952C23.4356 19.9538 26.2693 19.9538 28.0107 21.6952L28.1521 21.5538C26.3326 19.7343 23.3723 19.7343 21.5527 21.5538L21.6942 21.6952ZM21.6942 28.0116C19.9528 26.2703 19.9528 23.4366 21.6942 21.6952L21.5527 21.5538C19.7333 23.3733 19.7333 26.3336 21.5527 28.153L21.6942 28.0116ZM24.8524 29.3177C23.7084 29.3177 22.5648 28.8823 21.6942 28.0116L21.5527 28.153C22.4625 29.0628 23.6577 29.5177 24.8524 29.5177V29.3177ZM24.8524 21.3599C23.9575 21.3599 23.0625 21.7005 22.381 22.382L22.5224 22.5234C23.1648 21.881 24.0082 21.5599 24.8524 21.5599V21.3599ZM27.3238 22.382C26.6425 21.7006 25.7471 21.3599 24.8524 21.3599V21.5599C25.6964 21.5599 26.5402 21.8812 27.1823 22.5234L27.3238 22.382ZM27.3238 27.3248C28.6866 25.962 28.6866 23.7448 27.3238 22.382L27.1824 22.5234C28.4671 23.8081 28.467 25.8987 27.1824 27.1833L27.3238 27.3248ZM22.381 27.3248C23.7437 28.6876 25.961 28.6877 27.3238 27.3248L27.1823 27.1833C25.8977 28.4681 23.8071 28.468 22.5224 27.1833L22.381 27.3248ZM22.381 22.382C21.0181 23.7448 21.0181 25.962 22.381 27.3248L22.5224 27.1833C21.2377 25.8987 21.2377 23.8081 22.5224 22.5234L22.381 22.382Z" fill="#242527" mask="url(#path-1-outside-1_441_7828)"/>
</g>
<defs>
<clipPath id="clip0_441_7828">
<rect width="40" height="40" fill="white"/>
</clipPath>
</defs>
</svg>
