<svg width="54" height="38" viewBox="0 0 54 38" fill="none" xmlns="http://www.w3.org/2000/svg">
<path d="M51.4535 16.7185H51.3691V16.606L51.4535 16.7185Z" fill="white"/>
<path d="M49.7836 14.5027L49.7766 14.4922H49.779L49.7836 14.5027Z" fill="white"/>
<path d="M51.4535 16.7185H51.3691V16.606L51.4535 16.7185Z" fill="white"/>
<path d="M49.7836 14.5027L49.7766 14.4922H49.779L49.7836 14.5027Z" fill="white"/>
<path d="M51.4535 16.7185H51.3691V16.606L51.4535 16.7185Z" fill="white"/>
<path d="M53.2242 19.067L51.4535 16.7232H51.375V16.6061L49.7895 14.5025L49.7824 14.4932L45.8859 6.57832L45.3 5.38184C45.1479 5.07178 44.9116 4.81076 44.6182 4.62861C44.3247 4.44646 43.986 4.35052 43.6406 4.35176H36.3305V2.80488C36.3305 2.56302 36.2828 2.32353 36.1902 2.10009C36.0976 1.87665 35.9619 1.67364 35.7908 1.50267C35.6198 1.3317 35.4167 1.19612 35.1932 1.10367C34.9697 1.01122 34.7301 0.963714 34.4883 0.963868H6.38672C6.09146 0.963868 5.80829 1.08116 5.59951 1.28994C5.39073 1.49872 5.27344 1.78189 5.27344 2.07715C5.27344 2.37241 5.39073 2.65558 5.59951 2.86436C5.80829 3.07314 6.09146 3.19043 6.38672 3.19043H34.1039V14.8752C34.1039 15.1171 34.1516 15.3566 34.2442 15.58C34.3367 15.8034 34.4725 16.0064 34.6435 16.1774C34.8146 16.3484 35.0177 16.484 35.2412 16.5764C35.4647 16.6689 35.7042 16.7164 35.9461 16.7162H48.2695C48.3928 16.7163 48.5143 16.745 48.6246 16.8001C48.7348 16.8552 48.8307 16.9352 48.9047 17.0338L50.1469 18.6826L51.1406 19.9975C51.2919 20.1967 51.3742 20.4399 51.375 20.69V29.724H47.0953C46.8263 28.3175 46.0754 27.0488 44.9718 26.1362C43.8682 25.2237 42.481 24.7244 41.049 24.7244C39.617 24.7244 38.2298 25.2237 37.1262 26.1362C36.0226 27.0488 35.2717 28.3175 35.0027 29.724H23.9379C23.6689 28.3175 22.918 27.0488 21.8144 26.1362C20.7108 25.2237 19.3236 24.7244 17.8916 24.7244C16.4596 24.7244 15.0724 25.2237 13.9688 26.1362C12.8652 27.0488 12.1143 28.3175 11.8453 29.724H6.375C6.07974 29.724 5.79657 29.8413 5.58779 30.0501C5.37901 30.2589 5.26172 30.542 5.26172 30.8373C5.26172 31.1326 5.37901 31.4157 5.58779 31.6245C5.79657 31.8333 6.07974 31.9506 6.375 31.9506H11.8336C12.0859 33.3749 12.8316 34.6648 13.94 35.5942C15.0484 36.5235 16.4487 37.0329 17.8951 37.0329C19.3416 37.0329 20.7418 36.5235 21.8502 35.5942C22.9586 34.6648 23.7044 33.3749 23.9566 31.9506H34.991C35.2433 33.3749 35.989 34.6648 37.0974 35.5942C38.2058 36.5235 39.6061 37.0329 41.0525 37.0329C42.499 37.0329 43.8993 36.5235 45.0077 35.5942C46.1161 34.6648 46.8618 33.3749 47.1141 31.9506H51.7559C52.2443 31.9503 52.7127 31.7561 53.0581 31.4107C53.4035 31.0653 53.5977 30.5969 53.598 30.1084V20.1721C53.5957 19.7731 53.4646 19.3855 53.2242 19.067ZM36.3305 14.4967V6.57832H43.4062L47.2992 14.4908L36.3305 14.4967ZM21.6727 31.9576C21.4017 32.9201 20.7756 33.7439 19.9208 34.2625C19.0659 34.7812 18.0461 34.956 17.0673 34.7518C16.0885 34.5476 15.2237 33.9795 14.6476 33.1623C14.0715 32.3451 13.827 31.3397 13.9635 30.3491C14.1001 29.3586 14.6075 28.4569 15.3832 27.826C16.159 27.1952 17.1452 26.8822 18.1428 26.9505C19.1403 27.0187 20.0748 27.463 20.7574 28.1936C21.44 28.9242 21.8199 29.8866 21.8203 30.8865C21.82 31.2463 21.7703 31.6043 21.6727 31.9506V31.9576ZM44.8301 31.9576C44.5591 32.9201 43.933 33.7439 43.0782 34.2625C42.2233 34.7812 41.2035 34.956 40.2247 34.7518C39.2459 34.5476 38.3811 33.9795 37.805 33.1623C37.2289 32.3451 36.9844 31.3397 37.121 30.3491C37.2575 29.3586 37.7649 28.4569 38.5406 27.826C39.3164 27.1952 40.3026 26.8822 41.3002 26.9505C42.2977 27.0187 43.2322 27.463 43.9148 28.1936C44.5974 28.9242 44.9773 29.8866 44.9777 30.8865C44.9774 31.2463 44.9277 31.6043 44.8301 31.9506V31.9576Z" fill="white"/>
<path d="M2.8887 20.1718H1.28909C1.04534 20.1718 0.923462 20.0546 0.923462 19.8202C0.923462 19.8003 0.938696 19.703 0.969165 19.5155L2.76682 11.1671C2.89963 10.5577 3.13401 10.1108 3.46995 9.82647C3.80588 9.54209 4.27463 9.3999 4.8762 9.3999H9.05862C9.35393 9.3999 9.50041 9.50654 9.50041 9.71982C9.50041 9.89248 9.40393 10.3647 9.21096 11.1366C9.14065 11.3897 8.95784 11.5175 8.66252 11.5175H5.6719C5.3469 11.5175 5.14885 11.7003 5.07776 12.0659L4.6969 13.8788H7.68752C7.95237 13.8788 8.08362 13.996 8.08362 14.214C8.08362 14.3148 7.99221 14.7835 7.8094 15.6202C7.74846 15.864 7.58088 15.9859 7.30666 15.9859H4.24456L3.43713 19.703C3.36448 20.0155 3.18166 20.1718 2.8887 20.1718Z" fill="white"/>
<path d="M10.4907 20.1719H8.89106C8.66724 20.1719 8.55591 20.0652 8.55591 19.852C8.56401 19.7339 8.57927 19.6165 8.60161 19.5004L9.75942 14.0781C9.79697 13.8521 9.87646 13.6351 9.9938 13.4383C10.1222 13.2661 10.2871 13.1245 10.4766 13.0234C10.7618 12.85 11.2165 12.6937 11.8407 12.5547C12.4078 12.4245 12.9873 12.3557 13.5692 12.3496C14.0872 12.3496 14.4528 12.3895 14.6661 12.4668C14.8289 12.5371 14.9098 12.6848 14.9098 12.9086C14.9156 13.3177 14.8324 13.7231 14.6661 14.0969C14.6243 14.1893 14.5551 14.2666 14.4679 14.3184C14.3807 14.3702 14.2797 14.3939 14.1786 14.3863C14.0977 14.3863 13.9442 14.3805 13.7098 14.3711C13.4754 14.3617 13.3137 14.3559 13.2223 14.3559C12.8168 14.3559 12.5192 14.3957 12.3387 14.473C12.2383 14.503 12.1518 14.5678 12.095 14.6559C12.023 14.7773 11.9764 14.912 11.9579 15.052L10.9981 19.6832C10.9145 20.009 10.7454 20.1719 10.4907 20.1719Z" fill="white"/>
<path d="M17.1785 17.4695C17.1785 17.8351 17.2957 18.0859 17.5137 18.223C17.7317 18.3601 18.0774 18.4293 18.5344 18.4293C19.0514 18.4358 19.5674 18.3847 20.0731 18.2769C20.0832 18.2769 20.1614 18.2617 20.3074 18.2312C20.4025 18.2078 20.4993 18.1925 20.5969 18.1855C20.7703 18.1855 20.8817 18.2816 20.9321 18.475C21.0334 18.7968 21.0878 19.1314 21.0938 19.4687C21.0938 19.682 20.9766 19.839 20.7422 19.9375C20.1328 20.2117 19.1731 20.3488 17.8629 20.3488C15.7817 20.3488 14.7406 19.4504 14.7399 17.6535C14.746 16.8332 14.8935 16.0202 15.1758 15.25C15.4303 14.4911 15.8739 13.8095 16.4649 13.2695C17.1758 12.6602 18.1457 12.3555 19.3746 12.3555C20.3496 12.3555 21.043 12.5383 21.4547 12.9039C21.8664 13.2695 22.0719 13.7926 22.0711 14.473C22.0726 15.1528 21.9803 15.8295 21.7969 16.484C21.7055 16.7582 21.6047 16.9305 21.4922 17.0019C21.3719 17.0704 21.2342 17.1021 21.0961 17.0933H17.209C17.1891 17.2715 17.1785 17.398 17.1785 17.4695ZM19.7344 15.4129C19.8048 15.1851 19.8408 14.9481 19.841 14.7098C19.8489 14.6166 19.8382 14.5228 19.8094 14.4339C19.7806 14.345 19.7344 14.2627 19.6735 14.1918C19.5621 14.0746 19.3489 14.0242 19.0336 14.0242C18.6922 14.0116 18.3591 14.1318 18.1043 14.3594C17.8606 14.5727 17.6778 14.9242 17.5559 15.4141L19.7344 15.4129Z" fill="white"/>
<path d="M25.2423 17.4695C25.2423 17.8352 25.3594 18.0859 25.5774 18.2231C25.7954 18.3602 26.1411 18.4293 26.5981 18.4293C27.1151 18.4359 27.6311 18.3848 28.1368 18.277C28.1469 18.277 28.2231 18.2617 28.3653 18.2313C28.4603 18.2078 28.5571 18.1925 28.6548 18.1856C28.8282 18.1856 28.9395 18.2817 28.9899 18.475C29.0929 18.7954 29.1493 19.1289 29.1575 19.4653C29.1575 19.6785 29.0403 19.8356 28.8059 19.934C28.1965 20.2082 27.2368 20.3453 25.9266 20.3453C23.8438 20.3453 22.8028 19.4469 22.8036 17.65C22.8086 16.8312 22.9545 16.0194 23.2348 15.25C23.4893 14.4911 23.933 13.8095 24.5239 13.2695C25.2348 12.6602 26.2048 12.3555 27.4337 12.3555C28.4087 12.3555 29.102 12.5383 29.5137 12.9039C29.9255 13.2695 30.1309 13.7926 30.1301 14.4731C30.1316 15.1528 30.0393 15.8295 29.8559 16.484C29.7645 16.7582 29.6637 16.9305 29.5512 17.002C29.4309 17.0702 29.2932 17.102 29.1551 17.0934H25.268C25.2481 17.2715 25.2423 17.3981 25.2423 17.4695ZM27.8016 15.4129C27.8721 15.1852 27.908 14.9482 27.9083 14.7098C27.9162 14.6166 27.9054 14.5228 27.8766 14.4339C27.8479 14.345 27.8017 14.2627 27.7407 14.1918C27.6294 14.0746 27.4161 14.0242 27.1008 14.0242C26.7594 14.0116 26.4264 14.1318 26.1716 14.3594C25.9278 14.5727 25.745 14.9242 25.6231 15.4141L27.8016 15.4129Z" fill="white"/>
</svg>
